<?xml version="1.0" encoding="UTF-8" standalone="no"?>
<svg
   xmlns:dc="http://purl.org/dc/elements/1.1/"
   xmlns:cc="http://creativecommons.org/ns#"
   xmlns:rdf="http://www.w3.org/1999/02/22-rdf-syntax-ns#"
   xmlns:svg="http://www.w3.org/2000/svg"
   xmlns="http://www.w3.org/2000/svg"
   xmlns:sodipodi="http://sodipodi.sourceforge.net/DTD/sodipodi-0.dtd"
   xmlns:inkscape="http://www.inkscape.org/namespaces/inkscape"
   id="Layer_1"
   data-name="Layer 1"
   width="64"
   height="96"
   viewBox="0 0 239497.6 339355.19"
   version="1.1"
   sodipodi:docname="grid.svg"
   inkscape:version="0.92.4 (5da689c313, 2019-01-14)">
  <metadata
     id="metadata64">
    <rdf:RDF>
      <cc:Work
         rdf:about="">
        <dc:format>image/svg+xml</dc:format>
        <dc:type
           rdf:resource="http://purl.org/dc/dcmitype/StillImage" />
        <dc:title>grid_generic novo</dc:title>
      </cc:Work>
    </rdf:RDF>
  </metadata>
  <sodipodi:namedview
     pagecolor="#ffffff"
     bordercolor="#666666"
     borderopacity="1"
     objecttolerance="10"
     gridtolerance="10"
     guidetolerance="10"
     inkscape:pageopacity="0"
     inkscape:pageshadow="2"
     inkscape:window-width="1920"
     inkscape:window-height="1027"
     id="namedview62"
     showgrid="false"
     units="px"
     inkscape:zoom="3.7766238"
     inkscape:cx="45.346672"
     inkscape:cy="71.965229"
     inkscape:window-x="-8"
     inkscape:window-y="-8"
     inkscape:window-maximized="1"
     inkscape:current-layer="Layer_1" />
  <defs
     id="defs53">
    <style
       id="style51">.cls-1{fill:none;stroke:#2e3092;stroke-miterlimit:2;stroke-width:2.41px;}.cls-2{fill:#5790cc;}</style>
  </defs>
  <title
     id="title55">grid_generic novo</title>
  <rect
     class="cls-1"
     x="1175.6951"
     y="-342388.88"
     width="237469.89"
     height="343991.09"
     id="rect57"
     style="fill:none;stroke:#2e3092;stroke-width:950.06781006px;stroke-miterlimit:2"
     transform="scale(1,-1)" />
  <path
     class="cls-2"
     d="M 150235.32,80979.972 H 91387.059 l 15347.201,-9157.229 h 28125.16 z m 12505.26,77915.218 v 13959.08 a 3789.2536,4622.3859 0 0 0 7574.91,0 v -13950.33 h 17873.37 v 13950.33 a 3789.2536,4622.3859 0 0 0 7574.92,0 v -18568.34 a 3785.6654,4618.0086 0 0 0 -2978.3,-4512.95 l -52245.76,-18852.86 -1467.62,-13902.17 a 3347.8917,4083.983 0 0 0 -71.77,-656.59 l -2759.41,-26145.37 h 26528.36 v 13950.33 a 3785.6654,4618.0086 0 1 0 7571.33,0 V 85602.358 a 3789.2536,4622.3859 0 0 0 -2443.63,-4320.353 L 137676.24,63256.448 a 3782.077,4613.6313 0 0 0 -1969.98,-674.1 h -29797.31 v 0 a 3803.6069,4639.895 0 0 0 -1657.8,463.995 L 73750.526,81255.742 h -46.646 -17.949 l -64.587,43.772 v 0 l -64.587,43.772 -57.411,43.772 v 0 h -35.889 -28.706 l -53.823,43.771 v 0 l -60.999,43.772 v 0 l -50.234,43.772 -57.419,43.772 v 0 l -46.646,43.772 v 0 0 l -107.646,87.551 v 0 l -61.006,48.149 -35.882,43.772 -71.764,65.657 v 0 l -57.411,56.904 -53.83,48.149 -28.706,43.772 -28.705,43.772 -39.47,43.778 v 0 l -50.235,56.904 v 0 l -50.242,52.526 -39.47,48.149 v 0 l -32.293,43.772 h -17.941 l -46.647,61.281 v 0 l -50.242,61.28 -39.47,52.527 v 0 l -25.117,43.778 -21.529,43.772 -35.882,56.904 v 0 l -43.058,70.035 v 0 l -35.882,56.903 -17.948,43.772 -25.118,43.772 -28.705,48.149 v 0 l -39.47,70.042 -39.47,74.412 v 0 l -25.118,52.526 -21.529,43.772 -17.941,43.772 -28.713,65.658 v 0 l -39.47,87.544 -25.117,65.664 v 43.772 0 l -39.47,96.298 v 0 l -32.294,78.79 v 0 0 l -28.705,83.166 v 56.904 l -17.941,48.156 v 0 l -28.713,87.543 v 0 l -21.529,83.167 v 0 0 l -25.117,91.921 v 0 l -21.529,87.544 v 43.772 87.55 0 78.79 43.772 52.526 56.903 43.772 83.174 0 87.543 0 65.658 48.149 43.772 74.412 0 87.551 19286.2 a 3785.667,4618.0106 0 0 0 7571.334,0 V 90364.815 h 26973.321 v 245.129 l -3060.83,25344.336 a 3878.9614,4731.8174 0 0 0 -190.18,1799.05 l -1388.68,13131.78 -52719.426,19036.7 -236.836,70.03 -78.94,43.78 -75.351,43.77 h -17.941 l -61.007,43.78 h -25.117 -32.294 -35.882 -35.882 l -50.234,43.77 h -25.125 l -60.999,43.77 v 0 l -71.764,43.77 v 0 l -71.763,43.77 v 0 l -61.007,43.78 h -17.941 l -50.235,43.77 -57.411,43.77 h -25.117 l -50.242,43.77 v 0 l -104.057,140.08 v 0 l -57.411,48.15 v 0 l -68.183,56.9 v 0 l -60.999,56.9 -64.588,56.91 h -21.529 l -39.477,43.77 -28.706,43.77 -32.293,43.77 v 0 l -107.646,118.19 -53.83,61.29 v 0 l -57.411,65.65 v 0 l -46.646,61.28 v 0 l -39.47,52.53 v 0 l -43.066,52.53 v 0 l -28.706,43.77 v 0 l -107.645,161.96 v 0 l -46.647,78.79 v 0 l -46.653,78.79 -43.059,78.8 -46.646,78.79 -17.941,43.77 -21.529,43.77 -28.706,52.53 v 43.77 l -32.293,65.65 v 0 l -35.89,78.79 v 0 l -35.881,87.55 v 0 l -32.294,74.42 v 43.77 l -25.117,65.66 v 43.77 0 l -64.588,179.47 v 0 43.77 l -21.529,78.79 v 0 l -28.713,91.92 v 0 l -25.117,91.92 -32.294,122.57 v 43.77 l -17.941,83.17 v 52.53 43.77 70.03 0 96.31 0 100.67 l -17.94,105.06 v 91.92 43.77 78.8 288.89 56.9 18909.77 a 3789.2536,4622.3859 0 0 0 7574.918,0 v -13950.33 h 17744.185 v 13950.33 a 3785.6655,4618.0087 0 0 0 7571.331,0 v -13950.33 h 19577.81 l -753.55,7187.46 a 4266.4987,5204.5614 0 0 0 -71.76,682.85 l -2870.64,27095.24 a 3739.0173,4561.1043 0 0 0 -136.36,1313.18 l -3975.84,37644.43 a 4040.4352,4928.794 0 0 0 -64.6,608.43 l -143.53,1356.96 a 3771.3121,4600.4996 0 0 0 -68.18,647.83 l -3792.84,35784.1 a 3778.4887,4609.2541 0 0 0 5529.58,4915.66 l 28789.001,-19347.49 28789.01,19347.49 a 3778.4887,4609.2541 0 0 0 5529.58,-4915.66 l -4004.55,-37819.53 a 4040.4352,4928.794 0 0 0 -64.6,-608.43 l -4008.13,-37933.34 a 3767.7238,4596.1223 0 0 0 -71.77,-691.6 l -3728.25,-35267.58 z M 48854.844,149772.98 v 0 l -233.24,70.04 z m 81002.476,-47856.58 1471.21,13950.33 -139.95,210.11 -5314.28,-8093.55 z m 3896.9,36904.68 1144.68,10846.85 h -1288.21 l -7356.03,-10846.85 z m 3197.19,30246.86 2005.86,18962.29 -12067.48,-12256.33 8655,-8793.91 z m 3588.31,34046.33 2436.46,23050.64 -15192.9,-12527.71 z m 4011.72,37880.79 2404.17,22682.96 -18081.48,-12146.89 z m -2045.33,-91327.13 -925.79,-8754.52 24267.74,8754.52 z m -21465.27,96579.85 -18092.24,-12160.03 18077.89,-14882.68 18085.08,14913.32 z m -23510.591,-5252.72 15677.321,10536.07 -18077.901,12146.89 z m 23496.241,-32925.73 -14303,-11792.34 14274.29,-14501.87 14303,14528.13 z m -19495.28,-4933.18 12742.09,10505.43 -15171.381,12501.44 z m 19466.57,-33332.83 -9724.31,-9883.85 685.36,-1015.53 h 18099.43 l 681.78,1002.4 z m -14539.82,-2783.94 8647.82,8754.52 -11970.59,12164.41 2009.45,-18997.31 z m 13524.34,-37425.57 -4194.74,-6228.84 5246.11,-7997.25 5238.93,7979.74 -4241.38,6233.22 z m -9128.66,-13481.95 -111.24,-161.96 1481.97,-14007.23 3968.67,6044.99 z m 10154.91,29458.96 2784.53,4105.86 h -5569.06 z m -5246.11,-6740.99 -7352.44,10846.85 h -1234.38 l 1144.68,-10846.85 z m 5271.23,-38204.72 -6817.79,-10400.365 h 13657.11 z m -20514.36,40130.71 -943.731,8929.61 H 75777.918 Z"
     id="path59"
     inkscape:connector-curvature="0"
     style="fill:#5790cc;stroke-width:396.32003784" />
</svg>
