<?xml version="1.0" encoding="UTF-8" standalone="no"?>
<!-- Generator: Adobe Illustrator 19.0.0, SVG Export Plug-In . SVG Version: 6.00 Build 0)  -->

<svg
   xmlns:dc="http://purl.org/dc/elements/1.1/"
   xmlns:cc="http://creativecommons.org/ns#"
   xmlns:rdf="http://www.w3.org/1999/02/22-rdf-syntax-ns#"
   xmlns:svg="http://www.w3.org/2000/svg"
   xmlns="http://www.w3.org/2000/svg"
   xmlns:sodipodi="http://sodipodi.sourceforge.net/DTD/sodipodi-0.dtd"
   xmlns:inkscape="http://www.inkscape.org/namespaces/inkscape"
   version="1.1"
   id="svg256"
   inkscape:version="0.92.4 (5da689c313, 2019-01-14)"
   sodipodi:docname="t_3p2w.svg"
   x="0px"
   y="0px"
   viewBox="-281 597.5 64 96"
   xml:space="preserve"
   width="64"
   height="96"><metadata
   id="metadata108"><rdf:RDF><cc:Work
       rdf:about=""><dc:format>image/svg+xml</dc:format><dc:type
         rdf:resource="http://purl.org/dc/dcmitype/StillImage" /></cc:Work></rdf:RDF></metadata><defs
   id="defs106" />
<style
   type="text/css"
   id="style2">
	.st0{fill:none;stroke:#000000;stroke-linecap:round;stroke-miterlimit:10;}
	.st1{stroke:#000000;stroke-linecap:round;stroke-miterlimit:10;}
	.st2{fill:none;stroke:#000000;stroke-linecap:round;stroke-linejoin:round;stroke-miterlimit:22.926;}
</style>
<sodipodi:namedview
   inkscape:cy="17.153471"
   inkscape:cx="11.948193"
   inkscape:zoom="6.82"
   showgrid="true"
   guidetolerance="10"
   gridtolerance="10"
   objecttolerance="10"
   borderopacity="1"
   bordercolor="#666666"
   id="namedview258"
   pagecolor="#ffffff"
   inkscape:current-layer="svg256"
   inkscape:window-maximized="1"
   inkscape:window-y="-8"
   inkscape:window-x="1358"
   inkscape:snap-page="true"
   inkscape:bbox-nodes="false"
   inkscape:snap-global="true"
   inkscape:snap-bbox-midpoints="false"
   inkscape:bbox-paths="false"
   inkscape:snap-bbox="true"
   inkscape:window-height="1017"
   inkscape:pageshadow="2"
   inkscape:window-width="1920"
   inkscape:pageopacity="0">
	</sodipodi:namedview>
<line
   class="st0"
   x1="-250.89999"
   y1="614.90002"
   x2="-250.89999"
   y2="675.09998"
   id="line5"
   style="fill:none;stroke:#000000;stroke-linecap:round;stroke-miterlimit:10" />
<line
   class="st0"
   x1="-246.60001"
   y1="614.90002"
   x2="-246.60001"
   y2="675.09998"
   id="line7"
   style="fill:none;stroke:#000000;stroke-linecap:round;stroke-miterlimit:10" />
<g
   id="g55">
	<g
   id="g302_12_"
   transform="translate(53.7173,40.5333)">
		<path
   id="path304_12_"
   inkscape:connector-curvature="0"
   class="st1"
   d="m -310.7,573 c 0,0.6 -0.4,1 -1,1 -0.6,0 -1,-0.4 -1,-1 0,-0.6 0.4,-1 1,-1 0.5,0 1,0.4 1,1"
   style="stroke:#000000;stroke-linecap:round;stroke-miterlimit:10" />
	</g>
	<g
   id="g306_12_"
   transform="translate(53.7173,40.5333)">
		<path
   id="path308_12_"
   inkscape:connector-curvature="0"
   class="st0"
   d="m -311.7,574 c -0.6,0 -1,-0.4 -1,-1 0,-0.6 0.4,-1 1,-1 0.6,0 1,0.4 1,1 0,0.5 -0.5,1 -1,1 z"
   style="fill:none;stroke:#000000;stroke-linecap:round;stroke-miterlimit:10" />
	</g>
	<line
   class="st2"
   x1="-263"
   y1="677.5"
   x2="-281"
   y2="677.5"
   id="line13"
   style="fill:none;stroke:#000000;stroke-linecap:round;stroke-linejoin:round;stroke-miterlimit:22.9260006" />
	<line
   class="st2"
   x1="-263"
   y1="613.5"
   x2="-281"
   y2="613.5"
   id="line15"
   style="fill:none;stroke:#000000;stroke-linecap:round;stroke-linejoin:round;stroke-miterlimit:22.9260006" />
	<line
   class="st2"
   x1="-265.79999"
   y1="645.5"
   x2="-281"
   y2="645.5"
   id="line17"
   style="fill:none;stroke:#000000;stroke-linecap:round;stroke-linejoin:round;stroke-miterlimit:22.9260006" />
	<g
   id="g49">
		<g
   id="g274_12_"
   transform="translate(36.5867,32.3413)">
			<path
   id="path276_12_"
   inkscape:connector-curvature="0"
   class="st0"
   d="m -299.6,583.7 c 4.2,0.5 7.1,2.3 7.1,4.3 0,2 -2.9,3.7 -7.1,4.3"
   style="fill:none;stroke:#000000;stroke-linecap:round;stroke-miterlimit:10" />
		</g>
		<g
   id="g278_12_"
   transform="translate(36.6293,32.4267)">
			<path
   id="path280_12_"
   inkscape:connector-curvature="0"
   class="st0"
   d="m -299.6,590.8 c -0.1,0 -0.3,0 -0.4,0 -1.3,0 -2.4,0.3 -2.4,0.7 0,0.4 1.1,0.7 2.4,0.7 0.1,0 0.3,0 0.4,0"
   style="fill:none;stroke:#000000;stroke-linecap:round;stroke-miterlimit:10" />
		</g>
		<g
   id="g274_1_"
   transform="translate(36.5867,32.3413)">
			<path
   id="path276_1_"
   inkscape:connector-curvature="0"
   class="st0"
   d="m -299.6,590.9 c 4.2,0.5 7.1,2.3 7.1,4.3 0,2 -2.9,3.7 -7.1,4.3"
   style="fill:none;stroke:#000000;stroke-linecap:round;stroke-miterlimit:10" />
		</g>
		<g
   id="g278_1_"
   transform="translate(36.6293,32.4267)">
			<path
   id="path280_1_"
   inkscape:connector-curvature="0"
   class="st0"
   d="m -299.6,598.1 c -0.1,0 -0.3,0 -0.4,0 -1.3,0 -2.4,0.3 -2.4,0.7 0,0.4 1.1,0.7 2.4,0.7 0.1,0 0.3,0 0.4,0"
   style="fill:none;stroke:#000000;stroke-linecap:round;stroke-miterlimit:10" />
		</g>
		<g
   id="g274_4_"
   transform="translate(36.5867,32.3413)">
			<path
   id="path276_4_"
   inkscape:connector-curvature="0"
   class="st0"
   d="m -299.6,598.1 c 4.2,0.5 7.1,2.3 7.1,4.3 0,2 -2.9,3.7 -7.1,4.3"
   style="fill:none;stroke:#000000;stroke-linecap:round;stroke-miterlimit:10" />
		</g>
		<g
   id="g278_4_"
   transform="translate(36.6293,32.4267)">
			<path
   id="path280_4_"
   inkscape:connector-curvature="0"
   class="st0"
   d="m -299.6,605.3 c -0.1,0 -0.3,0 -0.4,0 -1.3,0 -2.4,0.3 -2.4,0.7 0,0.4 1.1,0.7 2.4,0.7 0.1,0 0.3,0 0.4,0"
   style="fill:none;stroke:#000000;stroke-linecap:round;stroke-miterlimit:10" />
		</g>
		<g
   id="g274_6_"
   transform="translate(36.5867,32.3413)">
			<path
   id="path276_6_"
   inkscape:connector-curvature="0"
   class="st0"
   d="m -299.6,605.4 c 4.2,0.5 7.1,2.3 7.1,4.3 0,2 -2.9,3.7 -7.1,4.3"
   style="fill:none;stroke:#000000;stroke-linecap:round;stroke-miterlimit:10" />
		</g>
		<g
   id="g278_6_"
   transform="translate(36.6293,32.4267)">
			<path
   id="path280_6_"
   inkscape:connector-curvature="0"
   class="st0"
   d="m -299.6,612.5 c -0.1,0 -0.3,0 -0.4,0 -1.3,0 -2.4,0.3 -2.4,0.7 0,0.4 1.1,0.7 2.4,0.7 0.1,0 0.3,0 0.4,0"
   style="fill:none;stroke:#000000;stroke-linecap:round;stroke-miterlimit:10" />
		</g>
		<g
   id="g274_8_"
   transform="translate(36.5867,32.3413)">
			<path
   id="path276_8_"
   inkscape:connector-curvature="0"
   class="st0"
   d="m -299.6,612.6 c 4.2,0.5 7.1,2.3 7.1,4.3 0,2 -2.9,3.7 -7.1,4.3"
   style="fill:none;stroke:#000000;stroke-linecap:round;stroke-miterlimit:10" />
		</g>
		<g
   id="g278_8_"
   transform="translate(36.6293,32.4267)">
			<path
   id="path280_8_"
   inkscape:connector-curvature="0"
   class="st0"
   d="m -299.6,619.7 c -0.1,0 -0.3,0 -0.4,0 -1.3,0 -2.4,0.3 -2.4,0.7 0,0.4 1.1,0.7 2.4,0.7 0.1,0 0.3,0 0.4,0"
   style="fill:none;stroke:#000000;stroke-linecap:round;stroke-miterlimit:10" />
		</g>
		<g
   id="g274_10_"
   transform="translate(36.5867,32.3413)">
			<path
   id="path276_10_"
   inkscape:connector-curvature="0"
   class="st0"
   d="m -299.6,619.8 c 4.2,0.5 7.1,2.3 7.1,4.3 0,2 -2.9,3.7 -7.1,4.3"
   style="fill:none;stroke:#000000;stroke-linecap:round;stroke-miterlimit:10" />
		</g>
		<g
   id="g278_10_"
   transform="translate(36.6293,32.4267)">
			<path
   id="path280_10_"
   inkscape:connector-curvature="0"
   class="st0"
   d="m -299.6,626.9 c -0.1,0 -0.3,0 -0.4,0 -1.3,0 -2.4,0.3 -2.4,0.7 0,0.4 1.1,0.7 2.4,0.7 0.1,0 0.3,0 0.4,0"
   style="fill:none;stroke:#000000;stroke-linecap:round;stroke-miterlimit:10" />
		</g>
		<g
   id="g274_14_"
   transform="translate(36.5867,32.3413)">
			<path
   id="path276_14_"
   inkscape:connector-curvature="0"
   class="st0"
   d="m -299.6,627 c 4.2,0.5 7.1,2.3 7.1,4.3 0,2 -2.9,3.7 -7.1,4.3"
   style="fill:none;stroke:#000000;stroke-linecap:round;stroke-miterlimit:10" />
		</g>
		<g
   id="g278_14_"
   transform="translate(36.6293,32.4267)">
			<path
   id="path280_14_"
   inkscape:connector-curvature="0"
   class="st0"
   d="m -299.6,634.2 c -0.1,0 -0.3,0 -0.4,0 -1.3,0 -2.4,0.3 -2.4,0.7 0,0.4 1.1,0.7 2.4,0.7 0.1,0 0.3,0 0.4,0"
   style="fill:none;stroke:#000000;stroke-linecap:round;stroke-miterlimit:10" />
		</g>
		<g
   id="g274_16_"
   transform="translate(36.5867,32.3413)">
			<path
   id="path276_16_"
   inkscape:connector-curvature="0"
   class="st0"
   d="m -299.6,634.2 c 4.2,0.5 7.1,2.3 7.1,4.3 0,2 -2.9,3.7 -7.1,4.3"
   style="fill:none;stroke:#000000;stroke-linecap:round;stroke-miterlimit:10" />
		</g>
	</g>
	<line
   class="st0"
   x1="-263"
   y1="677.5"
   x2="-263"
   y2="675.09998"
   id="line51"
   style="fill:none;stroke:#000000;stroke-linecap:round;stroke-miterlimit:10" />
	<line
   class="st0"
   x1="-263"
   y1="615.90002"
   x2="-263"
   y2="613.5"
   id="line53"
   style="fill:none;stroke:#000000;stroke-linecap:round;stroke-miterlimit:10" />
</g>
<g
   id="g103">
	<g
   id="g302_2_"
   transform="translate(53.7173,40.5333)">
		<path
   id="path304_2_"
   inkscape:connector-curvature="0"
   class="st1"
   d="m -294.7,573 c 0,0.6 0.4,1 1,1 0.6,0 1,-0.4 1,-1 0,-0.6 -0.4,-1 -1,-1 -0.6,0 -1,0.4 -1,1"
   style="stroke:#000000;stroke-linecap:round;stroke-miterlimit:10" />
	</g>
	<g
   id="g306_2_"
   transform="translate(53.7173,40.5333)">
		<path
   id="path308_2_"
   inkscape:connector-curvature="0"
   class="st0"
   d="m -293.7,574 c 0.6,0 1,-0.4 1,-1 0,-0.6 -0.4,-1 -1,-1 -0.6,0 -1,0.4 -1,1 0,0.5 0.4,1 1,1 z"
   style="fill:none;stroke:#000000;stroke-linecap:round;stroke-miterlimit:10" />
	</g>
	<line
   class="st2"
   x1="-235"
   y1="677.5"
   x2="-217"
   y2="677.5"
   id="line61"
   style="fill:none;stroke:#000000;stroke-linecap:round;stroke-linejoin:round;stroke-miterlimit:22.9260006" />
	<line
   class="st2"
   x1="-235"
   y1="613.5"
   x2="-217"
   y2="613.5"
   id="line63"
   style="fill:none;stroke:#000000;stroke-linecap:round;stroke-linejoin:round;stroke-miterlimit:22.9260006" />
	<line
   class="st2"
   x1="-232.2"
   y1="645.5"
   x2="-217"
   y2="645.5"
   id="line65"
   style="fill:none;stroke:#000000;stroke-linecap:round;stroke-linejoin:round;stroke-miterlimit:22.9260006" />
	<g
   id="g97">
		<g
   id="g274_24_"
   transform="translate(36.5867,32.3413)">
			<path
   id="path276_24_"
   inkscape:connector-curvature="0"
   class="st0"
   d="m -271.6,583.7 c -4.2,0.5 -7.1,2.3 -7.1,4.3 0,2 2.9,3.7 7.1,4.3"
   style="fill:none;stroke:#000000;stroke-linecap:round;stroke-miterlimit:10" />
		</g>
		<g
   id="g278_21_"
   transform="translate(36.6293,32.4267)">
			<path
   id="path280_21_"
   inkscape:connector-curvature="0"
   class="st0"
   d="m -271.6,590.8 c 0.1,0 0.3,0 0.4,0 1.3,0 2.4,0.3 2.4,0.7 0,0.4 -1.1,0.7 -2.4,0.7 -0.1,0 -0.3,0 -0.4,0"
   style="fill:none;stroke:#000000;stroke-linecap:round;stroke-miterlimit:10" />
		</g>
		<g
   id="g274_23_"
   transform="translate(36.5867,32.3413)">
			<path
   id="path276_23_"
   inkscape:connector-curvature="0"
   class="st0"
   d="m -271.6,590.9 c -4.2,0.5 -7.1,2.3 -7.1,4.3 0,2 2.9,3.7 7.1,4.3"
   style="fill:none;stroke:#000000;stroke-linecap:round;stroke-miterlimit:10" />
		</g>
		<g
   id="g278_20_"
   transform="translate(36.6293,32.4267)">
			<path
   id="path280_20_"
   inkscape:connector-curvature="0"
   class="st0"
   d="m -271.6,598.1 c 0.1,0 0.3,0 0.4,0 1.3,0 2.4,0.3 2.4,0.7 0,0.4 -1.1,0.7 -2.4,0.7 -0.1,0 -0.3,0 -0.4,0"
   style="fill:none;stroke:#000000;stroke-linecap:round;stroke-miterlimit:10" />
		</g>
		<g
   id="g274_22_"
   transform="translate(36.5867,32.3413)">
			<path
   id="path276_22_"
   inkscape:connector-curvature="0"
   class="st0"
   d="m -271.6,598.1 c -4.2,0.5 -7.1,2.3 -7.1,4.3 0,2 2.9,3.7 7.1,4.3"
   style="fill:none;stroke:#000000;stroke-linecap:round;stroke-miterlimit:10" />
		</g>
		<g
   id="g278_19_"
   transform="translate(36.6293,32.4267)">
			<path
   id="path280_19_"
   inkscape:connector-curvature="0"
   class="st0"
   d="m -271.6,605.3 c 0.1,0 0.3,0 0.4,0 1.3,0 2.4,0.3 2.4,0.7 0,0.4 -1.1,0.7 -2.4,0.7 -0.1,0 -0.3,0 -0.4,0"
   style="fill:none;stroke:#000000;stroke-linecap:round;stroke-miterlimit:10" />
		</g>
		<g
   id="g274_21_"
   transform="translate(36.5867,32.3413)">
			<path
   id="path276_21_"
   inkscape:connector-curvature="0"
   class="st0"
   d="m -271.6,605.4 c -4.2,0.5 -7.1,2.3 -7.1,4.3 0,2 2.9,3.7 7.1,4.3"
   style="fill:none;stroke:#000000;stroke-linecap:round;stroke-miterlimit:10" />
		</g>
		<g
   id="g278_18_"
   transform="translate(36.6293,32.4267)">
			<path
   id="path280_18_"
   inkscape:connector-curvature="0"
   class="st0"
   d="m -271.6,612.5 c 0.1,0 0.3,0 0.4,0 1.3,0 2.4,0.3 2.4,0.7 0,0.4 -1.1,0.7 -2.4,0.7 -0.1,0 -0.3,0 -0.4,0"
   style="fill:none;stroke:#000000;stroke-linecap:round;stroke-miterlimit:10" />
		</g>
		<g
   id="g274_20_"
   transform="translate(36.5867,32.3413)">
			<path
   id="path276_20_"
   inkscape:connector-curvature="0"
   class="st0"
   d="m -271.6,612.6 c -4.2,0.5 -7.1,2.3 -7.1,4.3 0,2 2.9,3.7 7.1,4.3"
   style="fill:none;stroke:#000000;stroke-linecap:round;stroke-miterlimit:10" />
		</g>
		<g
   id="g278_17_"
   transform="translate(36.6293,32.4267)">
			<path
   id="path280_17_"
   inkscape:connector-curvature="0"
   class="st0"
   d="m -271.6,619.7 c 0.1,0 0.3,0 0.4,0 1.3,0 2.4,0.3 2.4,0.7 0,0.4 -1.1,0.7 -2.4,0.7 -0.1,0 -0.3,0 -0.4,0"
   style="fill:none;stroke:#000000;stroke-linecap:round;stroke-miterlimit:10" />
		</g>
		<g
   id="g274_19_"
   transform="translate(36.5867,32.3413)">
			<path
   id="path276_19_"
   inkscape:connector-curvature="0"
   class="st0"
   d="m -271.6,619.8 c -4.2,0.5 -7.1,2.3 -7.1,4.3 0,2 2.9,3.7 7.1,4.3"
   style="fill:none;stroke:#000000;stroke-linecap:round;stroke-miterlimit:10" />
		</g>
		<g
   id="g278_16_"
   transform="translate(36.6293,32.4267)">
			<path
   id="path280_16_"
   inkscape:connector-curvature="0"
   class="st0"
   d="m -271.6,626.9 c 0.1,0 0.3,0 0.4,0 1.3,0 2.4,0.3 2.4,0.7 0,0.4 -1.1,0.7 -2.4,0.7 -0.1,0 -0.3,0 -0.4,0"
   style="fill:none;stroke:#000000;stroke-linecap:round;stroke-miterlimit:10" />
		</g>
		<g
   id="g274_18_"
   transform="translate(36.5867,32.3413)">
			<path
   id="path276_18_"
   inkscape:connector-curvature="0"
   class="st0"
   d="m -271.6,627 c -4.2,0.5 -7.1,2.3 -7.1,4.3 0,2 2.9,3.7 7.1,4.3"
   style="fill:none;stroke:#000000;stroke-linecap:round;stroke-miterlimit:10" />
		</g>
		<g
   id="g278_15_"
   transform="translate(36.6293,32.4267)">
			<path
   id="path280_15_"
   inkscape:connector-curvature="0"
   class="st0"
   d="m -271.6,634.2 c 0.1,0 0.3,0 0.4,0 1.3,0 2.4,0.3 2.4,0.7 0,0.4 -1.1,0.7 -2.4,0.7 -0.1,0 -0.3,0 -0.4,0"
   style="fill:none;stroke:#000000;stroke-linecap:round;stroke-miterlimit:10" />
		</g>
		<g
   id="g274_17_"
   transform="translate(36.5867,32.3413)">
			<path
   id="path276_17_"
   inkscape:connector-curvature="0"
   class="st0"
   d="m -271.6,634.2 c -4.2,0.5 -7.1,2.3 -7.1,4.3 0,2 2.9,3.7 7.1,4.3"
   style="fill:none;stroke:#000000;stroke-linecap:round;stroke-miterlimit:10" />
		</g>
	</g>
	<line
   class="st0"
   x1="-235"
   y1="677.5"
   x2="-235"
   y2="675.09998"
   id="line99"
   style="fill:none;stroke:#000000;stroke-linecap:round;stroke-miterlimit:10" />
	<line
   class="st0"
   x1="-235"
   y1="615.90002"
   x2="-235"
   y2="613.5"
   id="line101"
   style="fill:none;stroke:#000000;stroke-linecap:round;stroke-miterlimit:10" />
</g>
</svg>