<?xml version="1.0" encoding="UTF-8"?>
<svg id="svg256" xmlns="http://www.w3.org/2000/svg" width="96" height="64" viewBox="0 0 96 64">
  <line x1="15.96" y1="40.58" x2="80.01" y2="40.58" style="fill: none; stroke: #000; stroke-linecap: round; stroke-miterlimit: 10;"/>
  <line x1="54.89" y1="22.94" x2="40.97" y2="22.94" style="fill: none; stroke: #000; stroke-linecap: round; stroke-linejoin: round; stroke-width: .95px;"/>
  <line x1="55" y1="17.52" x2="41.08" y2="17.52" style="fill: none; stroke: #000; stroke-linecap: round; stroke-linejoin: round; stroke-width: .95px;"/>
  <line x1="48" y1="22.94" x2="47.99" y2="40.58" style="fill: none; stroke: #000; stroke-linecap: round; stroke-miterlimit: 10;"/>
  <line x1="48.01" y1="0" x2="48" y2="17.52" style="fill: none; stroke: #000; stroke-linecap: round; stroke-miterlimit: 10;"/>
  <path id="path304" d="M18.92,8c0,1.66,1.34,3,3,3s3-1.34,3-3c0-1.66-1.34-3-3-3-1.66,0-3,1.34-3,3" style="fill: blue;"/>
  <line id="line72-2" x1="46.5" y1="55.68" x2="49.27" y2="55.68" style="fill: none; stroke: #000; stroke-linecap: round; stroke-miterlimit: 10;"/>
  <line id="line74-4" x1="45.68" y1="53.88" x2="50.15" y2="53.88" style="fill: none; stroke: #000; stroke-linecap: round; stroke-miterlimit: 10;"/>
  <line id="line76-7" x1="44.91" y1="52.03" x2="50.91" y2="52.03" style="fill: none; stroke: #000; stroke-linecap: round; stroke-miterlimit: 10;"/>
  <line x1="47.99" y1="40.58" x2="47.88" y2="52.03" style="fill: none; stroke: #000; stroke-linecap: round; stroke-linejoin: round;"/>
  <line x1="86.92" y1="22.94" x2="73" y2="22.94" style="fill: none; stroke: #000; stroke-linecap: round; stroke-linejoin: round; stroke-width: .95px;"/>
  <line x1="87.03" y1="17.52" x2="73.11" y2="17.52" style="fill: none; stroke: #000; stroke-linecap: round; stroke-linejoin: round; stroke-width: .95px;"/>
  <line x1="80.02" y1="22.94" x2="80.01" y2="40.58" style="fill: none; stroke: #000; stroke-linecap: round; stroke-miterlimit: 10;"/>
  <line x1="80.04" y1="0" x2="80.03" y2="17.52" style="fill: none; stroke: #000; stroke-linecap: round; stroke-miterlimit: 10;"/>
  <line x1="22.87" y1="22.94" x2="8.95" y2="22.94" style="fill: none; stroke: #000; stroke-linecap: round; stroke-linejoin: round; stroke-width: .95px;"/>
  <line x1="22.98" y1="17.52" x2="9.06" y2="17.52" style="fill: none; stroke: #000; stroke-linecap: round; stroke-linejoin: round; stroke-width: .95px;"/>
  <line x1="15.97" y1="22.94" x2="15.96" y2="40.58" style="fill: none; stroke: #000; stroke-linecap: round; stroke-miterlimit: 10;"/>
  <line x1="15.99" y1="0" x2="15.98" y2="17.52" style="fill: none; stroke: #000; stroke-linecap: round; stroke-miterlimit: 10;"/>
</svg>