<?xml version="1.0" encoding="UTF-8"?>
<svg id="svg256" xmlns="http://www.w3.org/2000/svg" width="128" height="64" viewBox="0 0 128 64">
  <line x1="54.89" y1="22.94" x2="40.97" y2="22.94" style="fill: none; stroke: #000; stroke-linecap: round; stroke-linejoin: round; stroke-width: .95px;"/>
  <line x1="55" y1="17.52" x2="41.08" y2="17.52" style="fill: none; stroke: #000; stroke-linecap: round; stroke-linejoin: round; stroke-width: .95px;"/>
  <path id="path304" d="M18.92,8c0,1.66,1.34,3,3,3s3-1.34,3-3c0-1.66-1.34-3-3-3-1.66,0-3,1.34-3,3" style="fill: blue;"/>
  <rect x="109.5" y="0" width="5" height="5" transform="translate(109.5 114.5) rotate(-90)"/>
  <line x1="15.96" y1="40.58" x2="80.01" y2="40.58" style="fill: none; stroke: #000; stroke-linecap: round; stroke-miterlimit: 10;"/>
  <line x1="54.89" y1="22.94" x2="40.97" y2="22.94" style="fill: none; stroke: #000; stroke-linecap: round; stroke-linejoin: round; stroke-width: .95px;"/>
  <line x1="55" y1="17.52" x2="41.08" y2="17.52" style="fill: none; stroke: #000; stroke-linecap: round; stroke-linejoin: round; stroke-width: .95px;"/>
  <line x1="48" y1="22.94" x2="47.99" y2="40.58" style="fill: none; stroke: #000; stroke-linecap: round; stroke-miterlimit: 10;"/>
  <line x1="48.01" y1="0" x2="48" y2="17.52" style="fill: none; stroke: #000; stroke-linecap: round; stroke-miterlimit: 10;"/>
  <path id="path304-2" data-name="path304" d="M18.92,8c0,1.66,1.34,3,3,3s3-1.34,3-3c0-1.66-1.34-3-3-3-1.66,0-3,1.34-3,3" style="fill: blue;"/>
  <line x1="86.92" y1="22.94" x2="73" y2="22.94" style="fill: none; stroke: #000; stroke-linecap: round; stroke-linejoin: round; stroke-width: .95px;"/>
  <line x1="87.03" y1="17.52" x2="73.11" y2="17.52" style="fill: none; stroke: #000; stroke-linecap: round; stroke-linejoin: round; stroke-width: .95px;"/>
  <line x1="80.02" y1="22.94" x2="80.01" y2="40.58" style="fill: none; stroke: #000; stroke-linecap: round; stroke-miterlimit: 10;"/>
  <line x1="80.04" y1="0" x2="80.03" y2="17.52" style="fill: none; stroke: #000; stroke-linecap: round; stroke-miterlimit: 10;"/>
  <line x1="22.87" y1="22.94" x2="8.95" y2="22.94" style="fill: none; stroke: #000; stroke-linecap: round; stroke-linejoin: round; stroke-width: .95px;"/>
  <line x1="22.98" y1="17.52" x2="9.06" y2="17.52" style="fill: none; stroke: #000; stroke-linecap: round; stroke-linejoin: round; stroke-width: .95px;"/>
  <line x1="15.97" y1="22.94" x2="15.96" y2="40.58" style="fill: none; stroke: #000; stroke-linecap: round; stroke-miterlimit: 10;"/>
  <line x1="15.99" y1="0" x2="15.98" y2="17.52" style="fill: none; stroke: #000; stroke-linecap: round; stroke-miterlimit: 10;"/>
</svg>