<?xml version="1.0" encoding="UTF-8"?>
<svg id="svg256" xmlns="http://www.w3.org/2000/svg" width="96" height="64" viewBox="0 0 96 64">
  <line x1="33.5" y1="35.83" x2="21.82" y2="56.06" style="fill: none; stroke: #000; stroke-linecap: round; stroke-miterlimit: 10;"/>
  <line x1="80.03" y1="0" x2="79.97" y2="51.69" style="fill: none; stroke: #000; stroke-linecap: round; stroke-miterlimit: 10; stroke-width: 1px;"/>
  <line x1="39.52" y1="39.2" x2="27.47" y2="32.24" style="fill: none; stroke: #000; stroke-linecap: round; stroke-linejoin: round; stroke-width: .95px;"/>
  <line x1="42.33" y1="34.55" x2="30.28" y2="27.6" style="fill: none; stroke: #000; stroke-linecap: round; stroke-linejoin: round; stroke-width: .95px;"/>
  <line x1="59.66" y1="30.89" x2="48" y2="10.7" style="fill: none; stroke: #000; stroke-miterlimit: 10;"/>
  <line x1="53.64" y1="34.27" x2="65.69" y2="27.31" style="fill: none; stroke: #000; stroke-linejoin: round; stroke-width: .95px;"/>
  <line x1="56.25" y1="39.02" x2="68.3" y2="32.07" style="fill: none; stroke: #000; stroke-linecap: round; stroke-linejoin: round; stroke-width: .95px;"/>
  <line x1="45.29" y1="62.9" x2="45.29" y2="48.98" style="fill: none; stroke: #000; stroke-linecap: round; stroke-linejoin: round; stroke-width: .95px;"/>
  <line x1="50.71" y1="63.01" x2="50.71" y2="49.09" style="fill: none; stroke: #000; stroke-linecap: round; stroke-linejoin: round; stroke-width: .95px;"/>
  <line x1="74.19" y1="56.05" x2="62.28" y2="35.54" style="fill: none; stroke: #000; stroke-linecap: round; stroke-miterlimit: 10;"/>
  <line x1="48" y1="10.7" x2="36.3" y2="31.08" style="fill: none; stroke: #000; stroke-linecap: round; stroke-miterlimit: 10;"/>
  <line x1="74.19" y1="56.05" x2="50.71" y2="56.05" style="fill: none; stroke: #000; stroke-miterlimit: 10;"/>
  <line x1="45.29" y1="56.06" x2="21.82" y2="56.06" style="fill: none; stroke: #000; stroke-miterlimit: 10;"/>
  <line x1="79.97" y1="51.69" x2="74.19" y2="56.05" style="fill: none; stroke: #000; stroke-linecap: round; stroke-miterlimit: 10;"/>
  <line x1="15.97" y1="52.02" x2="21.82" y2="56.06" style="fill: none; stroke: #000; stroke-linecap: round; stroke-miterlimit: 10;"/>
  <line x1="16.03" y1=".33" x2="15.97" y2="52.02" style="fill: none; stroke: #000; stroke-linecap: round; stroke-miterlimit: 10; stroke-width: 1px;"/>
  <line x1="48" y1="0" x2="48" y2="10.7" style="fill: none; stroke: #000; stroke-linecap: round; stroke-miterlimit: 10; stroke-width: 1px;"/>
  <path id="path304" d="M19,8c0,1.66,1.34,3,3,3s3-1.34,3-3c0-1.66-1.34-3-3-3-1.66,0-3,1.34-3,3" style="fill: blue;"/>
</svg>