<?xml version="1.0" encoding="UTF-8" standalone="no"?>
<svg
   id="svg256"
   width="96"
   height="160"
   viewBox="0 0 96 160"
   version="1.1"
   sodipodi:docname="generator_sld.svg"
   inkscape:version="1.1.1 (3bf5ae0d25, 2021-09-20)"
   xmlns:inkscape="http://www.inkscape.org/namespaces/inkscape"
   xmlns:sodipodi="http://sodipodi.sourceforge.net/DTD/sodipodi-0.dtd"
   xmlns="http://www.w3.org/2000/svg"
   xmlns:svg="http://www.w3.org/2000/svg">
  <sodipodi:namedview
     id="namedview910"
     pagecolor="#ffffff"
     bordercolor="#666666"
     borderopacity="1.0"
     inkscape:pageshadow="2"
     inkscape:pageopacity="0.0"
     inkscape:pagecheckerboard="0"
     showgrid="false"
     inkscape:zoom="7.30625"
     inkscape:cx="47.972626"
     inkscape:cy="80"
     inkscape:window-width="2560"
     inkscape:window-height="1377"
     inkscape:window-x="1912"
     inkscape:window-y="-8"
     inkscape:window-maximized="1"
     inkscape:current-layer="svg256" />
  <defs
     id="defs870">
    <style
       id="style868">
      .cls-1 {
        fill: #fff;
      }

      .cls-2, .cls-3, .cls-4, .cls-5, .cls-6, .cls-7 {
        fill: none;
      }

      .cls-2, .cls-3, .cls-4, .cls-6, .cls-7 {
        stroke-linecap: round;
      }

      .cls-2, .cls-4 {
        stroke-miterlimit: 3.98;
      }

      .cls-2, .cls-5, .cls-6 {
        stroke: #2b3990;
      }

      .cls-8 {
        fill: blue;
      }

      .cls-3, .cls-4, .cls-7 {
        stroke: #000;
      }

      .cls-3, .cls-6, .cls-7 {
        stroke-linejoin: round;
      }

      .cls-9 {
        fill: #2b3990;
      }

      .cls-5 {
        stroke-miterlimit: 9.95;
      }

      .cls-10 {
        fill: #d9d9d9;
      }

      .cls-7 {
        stroke-width: 2px;
      }
    </style>
  </defs>
  <rect
     class="cls-10"
     x="-3.5"
     y="107.37"
     width="56"
     height="47"
     transform="translate(-106.37 155.37) rotate(-90)"
     id="rect872" />
  <rect
     class="cls-10"
     x="1"
     y="1"
     width="94"
     height="32"
     id="rect874" />
  <rect
     class="cls-7"
     width="96"
     height="160"
     id="rect877" />
  <path
     id="path41"
     class="cls-1"
     d="M48.8,44.18c-19.99,0-36.2,16.21-36.2,36.2s16.21,36.2,36.2,36.2,36.2-16.21,36.2-36.2-16.21-36.2-36.2-36.2" />
  <path
     id="path45"
     class="cls-3"
     d="M48.8,44.18c-19.99,0-36.2,16.21-36.2,36.2s16.21,36.2,36.2,36.2,36.2-16.21,36.2-36.2-16.21-36.2-36.2-36.2Z" />
  <path
     id="path49"
     class="cls-10"
     d="M48.8,50.34c-16.59,0-30.04,13.45-30.04,30.04s13.45,30.04,30.04,30.04,30.04-13.45,30.04-30.04-13.45-30.04-30.04-30.04" />
  <path
     id="path53"
     class="cls-3"
     d="M48.8,50.34c-16.59,0-30.04,13.45-30.04,30.04s13.45,30.04,30.04,30.04,30.04-13.45,30.04-30.04-13.45-30.04-30.04-30.04Z" />
  <path
     id="path57"
     class="cls-4"
     d="M95,79.79h-10" />
  <path
     id="path77"
     class="cls-1"
     d="M39.46,65.16v30.53h-6.33c0,3.86,2.98,7.24,7.81,9.17,4.83,1.93,10.78,1.93,15.62,0,4.83-1.93,7.81-5.31,7.81-9.17h-6.14v-30.53h6.23c0-3.86-2.98-7.34-7.81-9.27-4.83-1.93-10.78-1.93-15.62,0-4.83,1.93-7.81,5.41-7.81,9.27h6.23Z" />
  <path
     id="path81"
     class="cls-3"
     d="M39.46,65.16v30.53h-6.33c0,3.86,2.98,7.24,7.81,9.17,4.83,1.93,10.78,1.93,15.62,0,4.83-1.93,7.81-5.31,7.81-9.17h-6.14v-30.53h6.23c0-3.86-2.98-7.34-7.81-9.27-4.83-1.93-10.78-1.93-15.62,0-4.83,1.93-7.81,5.41-7.81,9.27h6.23Z" />
  <path
     id="path85"
     class="cls-2"
     d="M38.97,69.85h-8.7" />
  <path
     id="path89"
     class="cls-6"
     d="M58.64,73.93c.54,0,1.04-.39,1.31-1.02,.27-.63,.27-1.41,0-2.04-.27-.63-.77-1.02-1.31-1.02" />
  <path
     id="path93"
     class="cls-2"
     d="M58.64,78.01h-19.67" />
  <path
     id="path97"
     class="cls-6"
     d="M38.97,73.93c-.54,0-1.04,.39-1.31,1.02-.27,.63-.27,1.41,0,2.04,.27,.63,.77,1.02,1.31,1.02" />
  <path
     id="path101"
     class="cls-6"
     d="M58.64,82.09c.54,0,1.04-.39,1.31-1.02,.27-.63,.27-1.41,0-2.04-.27-.63-.77-1.02-1.31-1.02" />
  <path
     id="path105"
     class="cls-2"
     d="M58.64,86.17h-19.67" />
  <path
     id="path109"
     class="cls-6"
     d="M38.97,82.09c-.54,0-1.04,.39-1.31,1.02-.27,.63-.27,1.41,0,2.04,.27,.63,.77,1.02,1.31,1.02" />
  <path
     id="path113"
     class="cls-6"
     d="M58.64,90.25c.54,0,1.04-.39,1.31-1.02,.27-.63,.27-1.41,0-2.04s-.77-1.02-1.31-1.02" />
  <path
     id="path117"
     class="cls-2"
     d="M58.64,69.85h-19.67" />
  <path
     id="path125"
     class="cls-1"
     d="M23.29,79.83c0,3.85,3.12,6.97,6.97,6.97s6.98-3.12,6.98-6.97-3.12-6.97-6.98-6.97-6.97,3.12-6.97,6.97" />
  <path
     id="path129"
     class="cls-5"
     d="M23.29,79.83c0,3.85,3.12,6.97,6.97,6.97s6.98-3.12,6.98-6.97-3.12-6.97-6.98-6.97-6.97,3.12-6.97,6.97Z" />
  <path
     id="path133"
     class="cls-2"
     d="M38.98,90.25h-8.71" />
  <path
     id="path137"
     class="cls-2"
     d="M30.27,74.65v2.91" />
  <path
     id="path141"
     class="cls-2"
     d="M32.02,75.97h-3.51" />
  <path
     id="path145"
     class="cls-2"
     d="M31.51,83.72h-3" />
  <path
     id="path149"
     class="cls-2"
     d="M30.27,90.25v-3.45" />
  <path
     id="path153"
     class="cls-2"
     d="M30.27,69.85v3" />
  <path
     id="path157"
     class="cls-2"
     d="M6.89,79.76h14.22" />
  <path
     id="path161"
     class="cls-9"
     d="M20.54,82.37v-5.21l2.6,2.6-2.6,2.61Z" />
</svg>
