<?xml version="1.0" encoding="UTF-8" standalone="no"?>
<svg
   id="svg256"
   width="64"
   height="32"
   viewBox="0 0 64 32"
   version="1.1"
   sodipodi:docname="ind_1S.svg"
   inkscape:version="1.1.1 (3bf5ae0d25, 2021-09-20)"
   xmlns:inkscape="http://www.inkscape.org/namespaces/inkscape"
   xmlns:sodipodi="http://sodipodi.sourceforge.net/DTD/sodipodi-0.dtd"
   xmlns="http://www.w3.org/2000/svg"
   xmlns:svg="http://www.w3.org/2000/svg">
  <defs
     id="defs1222" />
  <sodipodi:namedview
     id="namedview1220"
     pagecolor="#ffffff"
     bordercolor="#666666"
     borderopacity="1.0"
     inkscape:pageshadow="2"
     inkscape:pageopacity="0.0"
     inkscape:pagecheckerboard="0"
     showgrid="false"
     inkscape:zoom="16.53125"
     inkscape:cx="36.809074"
     inkscape:cy="7.9546314"
     inkscape:window-width="2560"
     inkscape:window-height="1377"
     inkscape:window-x="1912"
     inkscape:window-y="-8"
     inkscape:window-maximized="1"
     inkscape:current-layer="svg256" />
  <line
     x1="14.741568"
     y1="16.032887"
     x2="0.060749929"
     y2="16.011433"
     style="fill:none;stroke:#000000;stroke-width:1;stroke-miterlimit:10;stroke-dasharray:none"
     id="line1216" />
  <path
     id="path304"
     d="M8,19c-1.66,0-3,1.34-3,3s1.34,3,3,3c1.66,0,3-1.34,3-3,0-1.66-1.34-3-3-3"
     style="fill: blue;" />
  <g
     id="g1648"
     transform="translate(-12.219282,-26.071834)">
    <path
       id="path276-5"
       data-name="path276"
       d="m 29.05913,42.089386 c 0.52,-4.2 2.26,-7.12 4.25,-7.12 1.99,0 3.73,2.92 4.25,7.12"
       style="fill:none;stroke:#000000;stroke-linecap:round;stroke-miterlimit:10" />
    <path
       id="path280-5"
       data-name="path280"
       d="m 36.27913,42.089386 c 0,0.13 -0.01,0.28 -0.01,0.41 0,1.31 0.3,2.38 0.66,2.38 0.37,0 0.66,-1.07 0.66,-2.38 0,-0.13 -0.01,-0.28 -0.01,-0.41"
       style="fill:none;stroke:#000000;stroke-linecap:round;stroke-miterlimit:10" />
    <path
       id="path276-6"
       data-name="path276"
       d="m 36.27913,42.089386 c 0.52,-4.2 2.26,-7.12 4.25,-7.12 1.99,0 3.73,2.92 4.25,7.12"
       style="fill:none;stroke:#000000;stroke-linecap:round;stroke-miterlimit:10" />
    <path
       id="path280-6"
       data-name="path280"
       d="m 43.49913,42.089386 c 0,0.13 -0.01,0.28 -0.01,0.41 0,1.31 0.3,2.38 0.66,2.38 0.37,0 0.66,-1.07 0.66,-2.38 0,-0.13 -0.01,-0.28 -0.01,-0.41"
       style="fill:none;stroke:#000000;stroke-linecap:round;stroke-miterlimit:10" />
    <path
       id="path276-7"
       data-name="path276"
       d="m 43.49913,42.089386 c 0.52,-4.2 2.26,-7.12 4.25,-7.12 1.99,0 3.73,2.92 4.25,7.12"
       style="fill:none;stroke:#000000;stroke-linecap:round;stroke-miterlimit:10" />
    <path
       id="path280-7"
       data-name="path280"
       d="m 50.71913,42.089386 c 0,0.13 -0.01,0.28 -0.01,0.41 0,1.31 0.3,2.38 0.66,2.38 0.36,0 0.66,-1.07 0.66,-2.38 0,-0.13 -0.01,-0.28 -0.01,-0.41"
       style="fill:none;stroke:#000000;stroke-linecap:round;stroke-miterlimit:10" />
    <path
       id="path276-8"
       data-name="path276"
       d="m 50.71913,42.089386 c 0.52,-4.2 2.26,-7.12 4.25,-7.12 1.99,0 3.73,2.92 4.25,7.12"
       style="fill:none;stroke:#000000;stroke-linecap:round;stroke-miterlimit:10" />
    <line
       x1="61.63913"
       y1="42.089386"
       x2="59.229126"
       y2="42.089386"
       style="fill:none;stroke:#000000;stroke-linecap:round;stroke-miterlimit:10"
       id="line1057" />
    <line
       x1="29.05913"
       y1="42.089386"
       x2="26.649126"
       y2="42.089386"
       style="fill:none;stroke:#000000;stroke-linecap:round;stroke-miterlimit:10"
       id="line1057-6" />
  </g>
  <line
     x1="64.023094"
     y1="16.12166"
     x2="49.342762"
     y2="16.000856"
     style="fill:none;stroke:#000000;stroke-width:1;stroke-miterlimit:10;stroke-dasharray:none"
     id="line1216-7" />
</svg>
