<?xml version="1.0" encoding="UTF-8"?>
<svg id="svg256" xmlns="http://www.w3.org/2000/svg" width="64" height="96" viewBox="0 0 64 96">
  <path id="path304" d="M56,19c-1.66,0-3,1.34-3,3,0,1.66,1.34,3,3,3,1.66,0,3-1.34,3-3,0-1.66-1.34-3-3-3" style="fill: blue;"/>
  <line x1="64" y1="16" x2="10.58" y2="16.01" style="fill: none; stroke: #000; stroke-miterlimit: 10;"/>
  <line x1="64" y1="80" x2="10.54" y2="80.01" style="fill: none; stroke: #000; stroke-miterlimit: 10;"/>
  <line x1="39.04" y1="48.02" x2="29.04" y2="48.01" style="fill: none; stroke: #000; stroke-linecap: round; stroke-miterlimit: 10;"/>
  <line x1="64" y1="48.02" x2="54.04" y2="48.02" style="fill: none; stroke: #000; stroke-linecap: round; stroke-miterlimit: 10;"/>
  <path id="path888" d="M46.54,40.52c4.14,0,7.5,3.36,7.5,7.5s-3.36,7.5-7.5,7.5-7.5-3.36-7.5-7.5,3.36-7.5,7.5-7.5Z" style="fill: none; stroke: #000; stroke-linecap: round; stroke-linejoin: round;"/>
  <line x1="24.04" y1="39.35" x2="29.04" y2="48.01" style="fill: none; stroke: #000; stroke-linecap: round; stroke-miterlimit: 10;"/>
  <path id="path888-2" data-name="path888" d="M13.8,36.6c-2.07-3.59-.84-8.17,2.75-10.25s8.17-.84,10.25,2.75,.84,8.17-2.75,10.25-8.17,.84-10.25-2.75Z" style="fill: none; stroke: #000; stroke-linecap: round; stroke-linejoin: round;"/>
  <line x1="24.03" y1="56.67" x2="29.04" y2="48.01" style="fill: none; stroke: #000; stroke-linecap: round; stroke-miterlimit: 10;"/>
  <path id="path888-3" data-name="path888" d="M26.78,66.91c-2.07,3.59-6.66,4.82-10.25,2.75s-4.82-6.66-2.75-10.25,6.66-4.82,10.25-2.75,4.82,6.66,2.75,10.25Z" style="fill: none; stroke: #000; stroke-linecap: round; stroke-linejoin: round;"/>
  <line x1="10.58" y1="16.01" x2="16.54" y2="26.36" style="fill: none; stroke: #000; stroke-linecap: round; stroke-miterlimit: 10;"/>
  <line x1="10.54" y1="80.01" x2="16.53" y2="69.66" style="fill: none; stroke: #000; stroke-linecap: round; stroke-miterlimit: 10;"/>
  <g>
    <line x1="41.56" y1="48.02" x2="47.93" y2="48.02" style="fill: none; stroke: #000; stroke-linecap: round; stroke-miterlimit: 10;"/>
    <polygon points="47.2 50.51 51.52 48.02 47.2 45.53 47.2 50.51"/>
  </g>
  <g>
    <line x1="22.77" y1="58.85" x2="19.58" y2="64.37" style="fill: none; stroke: #000; stroke-linecap: round; stroke-miterlimit: 10;"/>
    <polygon points="17.79 62.49 17.79 67.48 22.11 64.99 17.79 62.49"/>
  </g>
  <g>
    <line x1="22.78" y1="37.17" x2="19.6" y2="31.64" style="fill: none; stroke: #000; stroke-linecap: round; stroke-miterlimit: 10;"/>
    <polygon points="22.12 31.03 17.81 28.54 17.8 33.52 22.12 31.03"/>
  </g>
  <line id="line72-2" x1="13.93" y1="46.53" x2="13.93" y2="49.29" style="fill: none; stroke: #000; stroke-linecap: round; stroke-miterlimit: 10;"/>
  <line id="line74-4" x1="15.73" y1="45.7" x2="15.73" y2="50.17" style="fill: none; stroke: #000; stroke-linecap: round; stroke-miterlimit: 10;"/>
  <line id="line76-7" x1="17.58" y1="44.94" x2="17.58" y2="50.94" style="fill: none; stroke: #000; stroke-linecap: round; stroke-miterlimit: 10;"/>
  <line x1="29.04" y1="48.01" x2="17.58" y2="47.91" style="fill: none; stroke: #000; stroke-linecap: round; stroke-linejoin: round;"/>
</svg>