<?xml version="1.0" encoding="UTF-8"?>
<svg id="svg256" xmlns="http://www.w3.org/2000/svg" width="64" height="32" viewBox="0 0 64 32">
  <path id="path304" d="M56,19c-1.66,0-3,1.34-3,3,0,1.66,1.34,3,3,3,1.66,0,3-1.34,3-3,0-1.66-1.34-3-3-3" style="fill: blue;"/>
  <line x1="64" y1="16.01" x2="42.15" y2="15.98" style="fill: none; stroke: #000; stroke-linecap: round; stroke-miterlimit: 10;"/>
  <path id="path888" d="M34.65,8.48c4.14,0,7.5,3.36,7.5,7.5s-3.36,7.5-7.5,7.5-7.5-3.36-7.5-7.5,3.36-7.5,7.5-7.5Z" style="fill: none; stroke: #000; stroke-linecap: round; stroke-linejoin: round;"/>
  <g>
    <line x1="29.65" y1="15.98" x2="36.02" y2="15.98" style="fill: none; stroke: #000; stroke-linecap: round; stroke-miterlimit: 10;"/>
    <polygon points="35.29 18.48 39.61 15.98 35.29 13.49 35.29 18.48"/>
  </g>
  <line id="line72-2" x1="9.41" y1="14.52" x2="9.41" y2="17.28" style="fill: none; stroke: #000; stroke-linecap: round; stroke-miterlimit: 10;"/>
  <line id="line74-4" x1="11.21" y1="13.69" x2="11.21" y2="18.16" style="fill: none; stroke: #000; stroke-linecap: round; stroke-miterlimit: 10;"/>
  <line id="line76-7" x1="13.06" y1="12.93" x2="13.06" y2="18.93" style="fill: none; stroke: #000; stroke-linecap: round; stroke-miterlimit: 10;"/>
  <line x1="27.15" y1="15.98" x2="13.06" y2="15.9" style="fill: none; stroke: #000; stroke-linecap: round; stroke-linejoin: round;"/>
</svg>