<?xml version="1.0" encoding="UTF-8" standalone="no"?>
<svg
   id="svg256"
   width="128"
   height="48"
   viewBox="0 0 128 48"
   version="1.1"
   sodipodi:docname="load_3Y_sld.svg"
   inkscape:version="1.1.1 (3bf5ae0d25, 2021-09-20)"
   xmlns:inkscape="http://www.inkscape.org/namespaces/inkscape"
   xmlns:sodipodi="http://sodipodi.sourceforge.net/DTD/sodipodi-0.dtd"
   xmlns="http://www.w3.org/2000/svg"
   xmlns:svg="http://www.w3.org/2000/svg">
  <defs
     id="defs878" />
  <sodipodi:namedview
     id="namedview876"
     pagecolor="#ffffff"
     bordercolor="#666666"
     borderopacity="1.0"
     inkscape:pageshadow="2"
     inkscape:pageopacity="0.0"
     inkscape:pagecheckerboard="0"
     showgrid="false"
     inkscape:zoom="13.851562"
     inkscape:cx="64"
     inkscape:cy="24.004512"
     inkscape:window-width="2560"
     inkscape:window-height="1377"
     inkscape:window-x="1912"
     inkscape:window-y="-8"
     inkscape:window-maximized="1"
     inkscape:current-layer="svg256" />
  <rect
     x="39.96"
     y="17.29"
     width="16"
     height="6"
     transform="translate(68.25 -27.67) rotate(90)"
     style="fill: none; stroke: #000; stroke-miterlimit: 10;"
     id="rect852" />
  <line
     x1="47.98"
     y1="12.09"
     x2="48.02"
     y2=".14"
     style="fill: none; stroke: #000; stroke-miterlimit: 10;"
     id="line854" />
  <line
     x1="15.99"
     y1="40.58"
     x2="80.04"
     y2="40.58"
     style="fill: none; stroke: #000; stroke-linecap: round; stroke-miterlimit: 10;"
     id="line856" />
  <path
     id="path304"
     d="m 21.188015,12.836999 c 0,1.66 1.34,3 3,3 1.66,0 3,-1.34 3,-3 0,-1.66 -1.34,-2.9999996 -3,-2.9999996 -1.66,0 -3,1.3399996 -3,2.9999996"
     style="fill:#0000ff" />
  <line
     x1="80.029999"
     y1="6.3222842"
     x2="80.019997"
     y2="12"
     style="fill:none;stroke:#000000;stroke-width:1.0015748;stroke-linecap:round;stroke-miterlimit:10;stroke-dasharray:none"
     id="line859" />
  <line
     x1="16.030001"
     x2="16.030001"
     y2="11.757162"
     style="fill:none;stroke:#000000;stroke-width:0.973036;stroke-linecap:round;stroke-miterlimit:10;stroke-dasharray:none"
     id="line861"
     y1="6.637764" />
  <rect
     x="8.03"
     y="17"
     width="16"
     height="6"
     transform="translate(36.03 3.97) rotate(90)"
     style="fill: none; stroke: #000; stroke-miterlimit: 10;"
     id="rect863" />
  <rect
     x="72.03"
     y="17"
     width="16"
     height="6"
     transform="translate(100.03 -60.03) rotate(90)"
     style="fill: none; stroke: #000; stroke-miterlimit: 10;"
     id="rect865" />
  <line
     x1="48.02"
     y1="28.29"
     x2="48.01"
     y2="40.48"
     style="fill: none; stroke: #000; stroke-linecap: round; stroke-miterlimit: 10;"
     id="line867" />
  <line
     x1="80.02"
     y1="28"
     x2="80.01"
     y2="40.48"
     style="fill: none; stroke: #000; stroke-linecap: round; stroke-miterlimit: 10;"
     id="line869" />
  <line
     x1="16.02"
     y1="28"
     x2="16.02"
     y2="40.58"
     style="fill: none; stroke: #000; stroke-linecap: round; stroke-miterlimit: 10;"
     id="line871" />
  <rect
     x="109.5"
     y="0"
     width="5"
     height="5"
     transform="translate(109.5 114.5) rotate(-90)"
     id="rect873" />
  <rect
     style="fill:#000000;fill-opacity:1;stroke-width:1.85457;stroke-linecap:round;stroke-linejoin:round;stroke-miterlimit:10"
     id="rect24770"
     width="87.527275"
     height="2.5989847"
     x="4.2092853"
     y="4.9813876" />
</svg>
