<?xml version="1.0" encoding="UTF-8" standalone="no"?>
<svg
   id="svg256"
   width="128"
   height="48"
   viewBox="0 0 128 48"
   version="1.1"
   sodipodi:docname="load_3Yg_sld.svg"
   inkscape:version="1.1.1 (3bf5ae0d25, 2021-09-20)"
   xmlns:inkscape="http://www.inkscape.org/namespaces/inkscape"
   xmlns:sodipodi="http://sodipodi.sourceforge.net/DTD/sodipodi-0.dtd"
   xmlns="http://www.w3.org/2000/svg"
   xmlns:svg="http://www.w3.org/2000/svg">
  <defs
     id="defs1127" />
  <sodipodi:namedview
     id="namedview1125"
     pagecolor="#ffffff"
     bordercolor="#666666"
     borderopacity="1.0"
     inkscape:pageshadow="2"
     inkscape:pageopacity="0.0"
     inkscape:pagecheckerboard="0"
     showgrid="false"
     inkscape:zoom="11.689359"
     inkscape:cx="59.070818"
     inkscape:cy="22.199678"
     inkscape:window-width="2560"
     inkscape:window-height="1377"
     inkscape:window-x="1912"
     inkscape:window-y="-8"
     inkscape:window-maximized="1"
     inkscape:current-layer="svg256" />
  <line
     x1="15.96"
     y1="40.58"
     x2="80.01"
     y2="40.58"
     style="fill: none; stroke: #000; stroke-linecap: round; stroke-miterlimit: 10;"
     id="line1092" />
  <line
     x1="48"
     y1="0"
     x2="48"
     y2="12"
     style="fill: none; stroke: #000; stroke-linecap: round; stroke-miterlimit: 10;"
     id="line1094" />
  <path
     id="path304"
     d="m 21.153887,12.261241 c 0,1.66 1.34,3 3,3 1.66,0 3,-1.34 3,-3 0,-1.66 -1.34,-2.9999998 -3,-2.9999998 -1.66,0 -3,1.3399998 -3,2.9999998"
     style="fill:#0000ff" />
  <line
     x1="80"
     y1="6.4160919"
     x2="80"
     y2="12"
     style="fill:none;stroke:#000000;stroke-width:1;stroke-linecap:round;stroke-miterlimit:10;stroke-dasharray:none"
     id="line1097" />
  <line
     x1="16"
     y1="6.2532959"
     x2="16"
     y2="12.09"
     style="fill:none;stroke:#000000;stroke-width:1;stroke-linecap:round;stroke-miterlimit:10;stroke-dasharray:none"
     id="line1099" />
  <rect
     x="8"
     y="17"
     width="16"
     height="6"
     transform="translate(36 4) rotate(90)"
     style="fill: none; stroke: #000; stroke-miterlimit: 10;"
     id="rect1101" />
  <rect
     x="40"
     y="17"
     width="16"
     height="6"
     transform="translate(68 -28) rotate(90)"
     style="fill: none; stroke: #000; stroke-miterlimit: 10;"
     id="rect1103" />
  <rect
     x="72"
     y="17"
     width="16"
     height="6"
     transform="translate(100 -60) rotate(90)"
     style="fill: none; stroke: #000; stroke-miterlimit: 10;"
     id="rect1105" />
  <line
     x1="48"
     y1="28"
     x2="47.99"
     y2="40.48"
     style="fill: none; stroke: #000; stroke-linecap: round; stroke-miterlimit: 10;"
     id="line1107" />
  <line
     x1="80"
     y1="28"
     x2="79.99"
     y2="40.48"
     style="fill: none; stroke: #000; stroke-linecap: round; stroke-miterlimit: 10;"
     id="line1109" />
  <line
     x1="15.99"
     y1="28"
     x2="15.99"
     y2="40.58"
     style="fill: none; stroke: #000; stroke-linecap: round; stroke-miterlimit: 10;"
     id="line1111" />
  <rect
     x="109.5"
     y="0"
     width="5"
     height="5"
     transform="translate(109.5 114.5) rotate(-90)"
     id="rect1113" />
  <line
     x1="112"
     y1="13.34"
     x2="112"
     y2="2.5"
     style="fill: none; stroke: #000; stroke-linecap: round; stroke-linejoin: round;"
     id="line1115" />
  <line
     id="line72-2"
     x1="110.93"
     y1="27.28"
     x2="113.04"
     y2="27.28"
     style="fill: none; stroke: #000; stroke-linecap: round; stroke-miterlimit: 10;" />
  <line
     id="line74-4"
     x1="110.31"
     y1="25.72"
     x2="113.72"
     y2="25.72"
     style="fill: none; stroke: #000; stroke-linecap: round; stroke-miterlimit: 10;" />
  <line
     id="line76-7"
     x1="109.72"
     y1="24.1"
     x2="114.3"
     y2="24.1"
     style="fill: none; stroke: #000; stroke-linecap: round; stroke-miterlimit: 10;" />
  <rect
     x="108.51"
     y="14.51"
     width="6.97"
     height="4.65"
     transform="translate(95.17 128.83) rotate(-90)"
     style="fill: none; stroke: #000; stroke-linecap: round; stroke-linejoin: round;"
     id="rect1120" />
  <line
     x1="111.99"
     y1="20.32"
     x2="111.99"
     y2="24.1"
     style="fill: none; stroke: #000; stroke-linecap: round; stroke-linejoin: round;"
     id="line1122" />
  <rect
     style="fill:#000000;fill-opacity:1;stroke-width:1.85457;stroke-linecap:round;stroke-linejoin:round;stroke-miterlimit:10"
     id="rect24770"
     width="87.527275"
     height="2.5989847"
     x="4.2666073"
     y="4.7643352" />
</svg>
