<?xml version="1.0" encoding="UTF-8"?>
<svg id="svg256" xmlns="http://www.w3.org/2000/svg" width="128" height="48" viewBox="0 0 128 48">
  <line x1="15.96" y1="40.58" x2="80.01" y2="40.58" style="fill: none; stroke: #000; stroke-linecap: round; stroke-miterlimit: 10;"/>
  <line x1="48" y1="0" x2="48" y2="12" style="fill: none; stroke: #000; stroke-linecap: round; stroke-miterlimit: 10;"/>
  <path id="path304" d="M18.92,8c0,1.66,1.34,3,3,3s3-1.34,3-3c0-1.66-1.34-3-3-3-1.66,0-3,1.34-3,3" style="fill: blue;"/>
  <line x1="80" y1="0" x2="80" y2="12" style="fill: none; stroke: #000; stroke-linecap: round; stroke-miterlimit: 10;"/>
  <line x1="16" y1="0" x2="16" y2="12.09" style="fill: none; stroke: #000; stroke-linecap: round; stroke-miterlimit: 10;"/>
  <rect x="8" y="17" width="16" height="6" transform="translate(36 4) rotate(90)" style="fill: none; stroke: #000; stroke-miterlimit: 10;"/>
  <rect x="40" y="17" width="16" height="6" transform="translate(68 -28) rotate(90)" style="fill: none; stroke: #000; stroke-miterlimit: 10;"/>
  <rect x="72" y="17" width="16" height="6" transform="translate(100 -60) rotate(90)" style="fill: none; stroke: #000; stroke-miterlimit: 10;"/>
  <line x1="48" y1="28" x2="47.99" y2="40.48" style="fill: none; stroke: #000; stroke-linecap: round; stroke-miterlimit: 10;"/>
  <line x1="80" y1="28" x2="79.99" y2="40.48" style="fill: none; stroke: #000; stroke-linecap: round; stroke-miterlimit: 10;"/>
  <line x1="15.99" y1="28" x2="15.99" y2="40.58" style="fill: none; stroke: #000; stroke-linecap: round; stroke-miterlimit: 10;"/>
  <rect x="109.5" y="0" width="5" height="5" transform="translate(109.5 114.5) rotate(-90)"/>
  <line x1="112" y1="13.34" x2="112" y2="2.5" style="fill: none; stroke: #000; stroke-linecap: round; stroke-linejoin: round;"/>
  <line id="line72-2" x1="110.93" y1="27.28" x2="113.04" y2="27.28" style="fill: none; stroke: #000; stroke-linecap: round; stroke-miterlimit: 10;"/>
  <line id="line74-4" x1="110.31" y1="25.72" x2="113.72" y2="25.72" style="fill: none; stroke: #000; stroke-linecap: round; stroke-miterlimit: 10;"/>
  <line id="line76-7" x1="109.72" y1="24.1" x2="114.3" y2="24.1" style="fill: none; stroke: #000; stroke-linecap: round; stroke-miterlimit: 10;"/>
  <rect x="108.51" y="14.51" width="6.97" height="4.65" transform="translate(95.17 128.83) rotate(-90)" style="fill: none; stroke: #000; stroke-linecap: round; stroke-linejoin: round;"/>
  <line x1="111.99" y1="20.32" x2="111.99" y2="24.1" style="fill: none; stroke: #000; stroke-linecap: round; stroke-linejoin: round;"/>
</svg>