<?xml version="1.0" encoding="UTF-8"?>
<svg id="svg256" xmlns="http://www.w3.org/2000/svg" width="96" height="48" viewBox="0 0 96 48">
  <line x1="48.03" y1="5.9" x2="48.07" y2=".11" style="fill: none; stroke: #000; stroke-linecap: round; stroke-miterlimit: 10;"/>
  <line x1="67.98" y1="40.54" x2="56.51" y2="40.54" style="fill: none; stroke: #000; stroke-linecap: round; stroke-miterlimit: 10;"/>
  <rect x="40.18" y="37.62" width="16" height="6" style="fill: none; stroke: #000; stroke-miterlimit: 10;"/>
  <line x1="39.98" y1="40.58" x2="28.03" y2="40.54" style="fill: none; stroke: #000; stroke-linecap: round; stroke-miterlimit: 10;"/>
  <line x1="67.98" y1="40.54" x2="62.27" y2="30.56" style="fill: none; stroke: #000; stroke-linecap: round; stroke-miterlimit: 10;"/>
  <rect x="50.03" y="20.41" width="16" height="6" transform="translate(49.29 -38.55) rotate(60)" style="fill: none; stroke: #000; stroke-miterlimit: 10;"/>
  <line x1="53.97" y1="16.27" x2="48.03" y2="5.9" style="fill: none; stroke: #000; stroke-linecap: round; stroke-miterlimit: 10;"/>
  <line x1="28.03" y1="40.54" x2="33.79" y2="30.56" style="fill: none; stroke: #000; stroke-linecap: round; stroke-miterlimit: 10;"/>
  <rect x="30.03" y="20.41" width="16" height="6" transform="translate(77.31 2.18) rotate(120)" style="fill: none; stroke: #000; stroke-miterlimit: 10;"/>
  <line x1="42.08" y1="16.27" x2="48.03" y2="5.9" style="fill: none; stroke: #000; stroke-linecap: round; stroke-miterlimit: 10;"/>
  <line x1="79.95" y1="0" x2="80.02" y2="28.5" style="fill: none; stroke: #000; stroke-linecap: round; stroke-miterlimit: 10;"/>
  <line x1="16.1" x2="15.98" y2="28.49" style="fill: none; stroke: #000; stroke-linecap: round; stroke-miterlimit: 10;"/>
  <line x1="28.03" y1="40.54" x2="15.98" y2="28.49" style="fill: none; stroke: #000; stroke-linecap: round; stroke-miterlimit: 10;"/>
  <line x1="67.98" y1="40.54" x2="80.02" y2="28.5" style="fill: none; stroke: #000; stroke-linecap: round; stroke-miterlimit: 10;"/>
  <path id="path304" d="M19,8c0,1.66,1.34,3,3,3s3-1.34,3-3c0-1.66-1.34-3-3-3-1.66,0-3,1.34-3,3" style="fill: blue;"/>
</svg>