<?xml version="1.0" encoding="UTF-8"?>
<svg id="svg256" xmlns="http://www.w3.org/2000/svg" width="128" height="48" viewBox="0 0 128 48">
  <rect x="39.96" y="17.29" width="16" height="6" transform="translate(68.25 -27.67) rotate(90)" style="fill: none; stroke: #000; stroke-miterlimit: 10;"/>
  <line x1="47.98" y1="12.09" x2="48.02" y2=".14" style="fill: none; stroke: #000; stroke-miterlimit: 10;"/>
  <line x1="15.99" y1="40.58" x2="80.04" y2="40.58" style="fill: none; stroke: #000; stroke-linecap: round; stroke-miterlimit: 10;"/>
  <path id="path304" d="M18.95,8c0,1.66,1.34,3,3,3s3-1.34,3-3c0-1.66-1.34-3-3-3-1.66,0-3,1.34-3,3" style="fill: blue;"/>
  <line x1="80.03" y1="0" x2="80.02" y2="12" style="fill: none; stroke: #000; stroke-linecap: round; stroke-miterlimit: 10;"/>
  <line x1="16.03" x2="16.03" y2="12.09" style="fill: none; stroke: #000; stroke-linecap: round; stroke-miterlimit: 10;"/>
  <rect x="8.03" y="17" width="16" height="6" transform="translate(36.03 3.97) rotate(90)" style="fill: none; stroke: #000; stroke-miterlimit: 10;"/>
  <rect x="72.03" y="17" width="16" height="6" transform="translate(100.03 -60.03) rotate(90)" style="fill: none; stroke: #000; stroke-miterlimit: 10;"/>
  <line x1="48.02" y1="28.29" x2="48.01" y2="40.48" style="fill: none; stroke: #000; stroke-linecap: round; stroke-miterlimit: 10;"/>
  <line x1="80.02" y1="28" x2="80.01" y2="40.48" style="fill: none; stroke: #000; stroke-linecap: round; stroke-miterlimit: 10;"/>
  <line x1="16.02" y1="28" x2="16.02" y2="40.58" style="fill: none; stroke: #000; stroke-linecap: round; stroke-miterlimit: 10;"/>
  <rect x="109.5" y="0" width="5" height="5" transform="translate(109.5 114.5) rotate(-90)"/>
</svg>