<?xml version="1.0" encoding="UTF-8"?>
<svg id="svg256" xmlns="http://www.w3.org/2000/svg" width="64" height="96" viewBox="0 0 64 96">
  <line y1="16" x2="64" y2="16" style="fill: none; stroke: #000; stroke-miterlimit: 10;"/>
  <line y1="48" x2="64" y2="48" style="fill: none; stroke: #000; stroke-miterlimit: 10;"/>
  <line y1="80" x2="64" y2="80" style="fill: none; stroke: #000; stroke-miterlimit: 10;"/>
  <path d="M22.7,22.59c-.49-.01-.9-.24-1.11-.61-.22-.39-.2-.89,.05-1.36,.23-.42,.46-.84,.69-1.26l1.4-2.55c1.54-2.81,3.07-5.61,4.61-8.42,.52-.95,1.03-1.9,1.54-2.85,.39-.71,.77-1.43,1.16-2.14,.38-.71,.86-.81,1.11-.81s.73,.11,1.1,.82c1.29,2.45,2.58,4.91,3.87,7.36,0,0,4.49,8.53,5.23,9.95,.25,.47,.26,.96,.04,1.32-.21,.35-.61,.55-1.1,.55H22.7Z" style="fill: #fcef00; fill-rule: evenodd;"/>
  <path d="M32.03,22.14h-8.98c-.11,0-.23,0-.34,0-.72-.02-1.04-.62-.67-1.3,.4-.74,.81-1.48,1.22-2.22,1.83-3.34,3.66-6.67,5.48-10.01,.91-1.66,1.8-3.32,2.7-4.98,.42-.77,1.01-.77,1.41,0,1.9,3.61,3.8,7.22,5.69,10.83,1.14,2.16,2.27,4.32,3.41,6.48,.35,.67,.06,1.2-.65,1.2-3.09,0-6.19,0-9.28,0Zm8.16-1.53c-2.68-5.09-5.34-10.15-8.04-15.27-2.79,5.12-5.53,10.16-8.32,15.27h16.36Z" style="fill-rule: evenodd;"/>
  <polygon points="31.92 17.75 32.49 13.98 29.51 15.8 31.3 8.22 33.18 8.22 31.25 13.43 34.31 11.5 32.8 17.89 33.84 17.67 31.92 20.4 31.09 17.03 31.92 17.75" style="fill-rule: evenodd;"/>
  <path d="M32.03,22.14h-8.98c-.11,0-.23,0-.34,0-.72-.02-1.04-.62-.67-1.3,.4-.74,.81-1.48,1.22-2.22,1.83-3.34,3.66-6.67,5.48-10.01,.91-1.66,1.8-3.32,2.7-4.98,.42-.77,1.01-.77,1.41,0,1.9,3.61,3.8,7.22,5.69,10.83,1.14,2.16,2.27,4.32,3.41,6.48,.35,.67,.06,1.2-.65,1.2-3.09,0-6.19,0-9.28,0Zm8.16-1.53c-2.68-5.09-5.34-10.15-8.04-15.27-2.79,5.12-5.53,10.16-8.32,15.27h16.36Z" style="fill-rule: evenodd;"/>
  <path d="M22.7,54.62c-.49-.01-.9-.24-1.11-.61-.22-.39-.2-.89,.05-1.36,.23-.42,.46-.84,.69-1.26l1.4-2.55c1.54-2.81,3.07-5.61,4.61-8.42,.52-.95,1.03-1.9,1.54-2.85,.39-.71,.77-1.43,1.16-2.14,.38-.71,.86-.81,1.11-.81s.73,.11,1.1,.82c1.29,2.45,2.58,4.91,3.87,7.36,0,0,4.49,8.53,5.23,9.95,.25,.47,.26,.96,.04,1.32-.21,.35-.61,.55-1.1,.55H22.7Z" style="fill: #fcef00; fill-rule: evenodd;"/>
  <path d="M32.03,54.17h-8.98c-.11,0-.23,0-.34,0-.72-.02-1.04-.62-.67-1.3,.4-.74,.81-1.48,1.22-2.22,1.83-3.34,3.66-6.67,5.48-10.01,.91-1.66,1.8-3.32,2.7-4.98,.42-.77,1.01-.77,1.41,0,1.9,3.61,3.8,7.22,5.69,10.83,1.14,2.16,2.27,4.32,3.41,6.48,.35,.67,.06,1.2-.65,1.2-3.09,0-6.19,0-9.28,0Zm8.16-1.53c-2.68-5.09-5.34-10.15-8.04-15.27-2.79,5.12-5.53,10.16-8.32,15.27h16.36Z" style="fill-rule: evenodd;"/>
  <polygon points="31.92 49.79 32.49 46.01 29.51 47.83 31.3 40.25 33.18 40.25 31.25 45.46 34.31 43.54 32.8 49.93 33.84 49.71 31.92 52.43 31.09 49.07 31.92 49.79" style="fill-rule: evenodd;"/>
  <path d="M32.03,54.17h-8.98c-.11,0-.23,0-.34,0-.72-.02-1.04-.62-.67-1.3,.4-.74,.81-1.48,1.22-2.22,1.83-3.34,3.66-6.67,5.48-10.01,.91-1.66,1.8-3.32,2.7-4.98,.42-.77,1.01-.77,1.41,0,1.9,3.61,3.8,7.22,5.69,10.83,1.14,2.16,2.27,4.32,3.41,6.48,.35,.67,.06,1.2-.65,1.2-3.09,0-6.19,0-9.28,0Zm8.16-1.53c-2.68-5.09-5.34-10.15-8.04-15.27-2.79,5.12-5.53,10.16-8.32,15.27h16.36Z" style="fill-rule: evenodd;"/>
  <line x1="30.19" y1="27.6" x2="34.74" y2="27.6" style="fill: none; stroke: #000; stroke-linecap: round; stroke-miterlimit: 10;"/>
  <line x1="29.46" y1="25.62" x2="35.49" y2="25.61" style="fill: none; stroke: #000; stroke-linecap: round; stroke-miterlimit: 10;"/>
  <line x1="32.47" y1="25.61" x2="32.47" y2="22.59" style="fill: none; stroke: #000; stroke-miterlimit: 10;"/>
  <line x1="31.07" y1="29.59" x2="33.89" y2="29.59" style="fill: none; stroke: #000; stroke-linecap: round; stroke-miterlimit: 10;"/>
  <line x1="30.2" y1="59.66" x2="34.75" y2="59.66" style="fill: none; stroke: #000; stroke-linecap: round; stroke-miterlimit: 10;"/>
  <line x1="29.48" y1="57.67" x2="35.5" y2="57.66" style="fill: none; stroke: #000; stroke-linecap: round; stroke-miterlimit: 10;"/>
  <line x1="32.48" y1="57.67" x2="32.48" y2="54.65" style="fill: none; stroke: #000; stroke-miterlimit: 10;"/>
  <line x1="31.08" y1="61.65" x2="33.9" y2="61.65" style="fill: none; stroke: #000; stroke-linecap: round; stroke-miterlimit: 10;"/>
  <path id="path304" d="M5,22c0,1.66,1.34,3,3,3s3-1.34,3-3c0-1.66-1.34-3-3-3-1.66,0-3,1.34-3,3" style="fill: blue;"/>
</svg>