<?xml version="1.0" encoding="UTF-8" standalone="no"?>
<svg
   xmlns:dc="http://purl.org/dc/elements/1.1/"
   xmlns:cc="http://creativecommons.org/ns#"
   xmlns:rdf="http://www.w3.org/1999/02/22-rdf-syntax-ns#"
   xmlns:svg="http://www.w3.org/2000/svg"
   xmlns="http://www.w3.org/2000/svg"
   xmlns:sodipodi="http://sodipodi.sourceforge.net/DTD/sodipodi-0.dtd"
   xmlns:inkscape="http://www.inkscape.org/namespaces/inkscape"
   id="svg256"
   viewBox="0 0 64 96"
   version="1.1"
   sodipodi:docname="sc_b-01.svg"
   height="96"
   width="64"
   inkscape:version="1.0.1 (3bc2e813f5, 2020-09-07)">
  <metadata
     id="metadata23">
    <rdf:RDF>
      <cc:Work
         rdf:about="">
        <dc:format>image/svg+xml</dc:format>
        <dc:type
           rdf:resource="http://purl.org/dc/dcmitype/StillImage" />
      </cc:Work>
    </rdf:RDF>
  </metadata>
  <defs
     id="defs21" />
  <sodipodi:namedview
     pagecolor="#ffffff"
     bordercolor="#666666"
     borderopacity="1"
     objecttolerance="10"
     gridtolerance="10"
     guidetolerance="10"
     inkscape:pageopacity="0"
     inkscape:pageshadow="2"
     inkscape:window-width="1920"
     inkscape:window-height="1017"
     id="namedview19"
     showgrid="false"
     inkscape:zoom="8.8541667"
     inkscape:cx="32"
     inkscape:cy="48"
     inkscape:window-x="-8"
     inkscape:window-y="-8"
     inkscape:window-maximized="1"
     inkscape:current-layer="svg256" />
  <title
     id="title2">sc_b</title>
  <line
     x1="0.07"
     y1="15.97"
     x2="63.93"
     y2="16.02"
     style="fill:none;stroke:#000;stroke-miterlimit:10"
     id="line4" />
  <line
     x1="0.07"
     y1="47.96"
     x2="63.93"
     y2="48.1"
     style="fill:none;stroke:#000;stroke-miterlimit:10"
     id="line6" />
  <line
     x1="0.07"
     y1="79.96"
     x2="63.93"
     y2="80.1"
     style="fill:none;stroke:#000;stroke-miterlimit:10"
     id="line8" />
  <path
     d="M22.7,56a1.29,1.29,0,0,1-1.11-.61,1.38,1.38,0,0,1,.06-1.36c.22-.42.46-.84.69-1.26l1.4-2.56q2.31-4.2,4.61-8.42L29.89,39l1.16-2.14A1.27,1.27,0,0,1,32.16,36a1.25,1.25,0,0,1,1.1.82l3.87,7.36s4.49,8.53,5.23,9.95a1.33,1.33,0,0,1,0,1.32,1.23,1.23,0,0,1-1.1.55H22.7Z"
     style="fill:#fcef00;fill-rule:evenodd"
     id="path10" />
  <path
     d="M32,55.57H22.71c-.72,0-1-.62-.67-1.29s.82-1.48,1.22-2.22q2.74-5,5.48-10c.91-1.66,1.8-3.32,2.7-5,.42-.77,1-.77,1.42,0l5.69,10.82c1.14,2.17,2.28,4.32,3.41,6.49.35.66.06,1.2-.65,1.2ZM40.19,54l-8-15.27L23.83,54Z"
     style="fill-rule:evenodd"
     id="path12" />
  <polygon
     points="31.92 51.19 32.49 47.41 29.51 49.23 31.3 41.65 33.18 41.65 31.25 46.86 34.31 44.94 32.8 51.33 33.84 51.11 31.92 53.83 31.09 50.47 31.92 51.19"
     style="fill-rule:evenodd"
     id="polygon14" />
  <path
     d="M32,55.57H22.71c-.72,0-1-.62-.67-1.29s.82-1.48,1.22-2.22q2.74-5,5.48-10c.91-1.66,1.8-3.32,2.7-5,.42-.77,1-.77,1.42,0l5.69,10.82c1.14,2.17,2.28,4.32,3.41,6.49.35.66.06,1.2-.65,1.2ZM40.19,54l-8-15.27L23.83,54Z"
     style="fill-rule:evenodd"
     id="path16" />
</svg>
