<?xml version="1.0" encoding="UTF-8" standalone="no"?>
<svg
   xmlns:dc="http://purl.org/dc/elements/1.1/"
   xmlns:cc="http://creativecommons.org/ns#"
   xmlns:rdf="http://www.w3.org/1999/02/22-rdf-syntax-ns#"
   xmlns:svg="http://www.w3.org/2000/svg"
   xmlns="http://www.w3.org/2000/svg"
   xmlns:sodipodi="http://sodipodi.sourceforge.net/DTD/sodipodi-0.dtd"
   xmlns:inkscape="http://www.inkscape.org/namespaces/inkscape"
   id="svg256"
   viewBox="0 0 64 96"
   version="1.1"
   sodipodi:docname="sc_c-g-01.svg"
   height="96"
   width="64"
   inkscape:version="1.0.1 (3bc2e813f5, 2020-09-07)">
  <metadata
     id="metadata31">
    <rdf:RDF>
      <cc:Work
         rdf:about="">
        <dc:format>image/svg+xml</dc:format>
        <dc:type
           rdf:resource="http://purl.org/dc/dcmitype/StillImage" />
      </cc:Work>
    </rdf:RDF>
  </metadata>
  <defs
     id="defs29" />
  <sodipodi:namedview
     pagecolor="#ffffff"
     bordercolor="#666666"
     borderopacity="1"
     objecttolerance="10"
     gridtolerance="10"
     guidetolerance="10"
     inkscape:pageopacity="0"
     inkscape:pageshadow="2"
     inkscape:window-width="1920"
     inkscape:window-height="1017"
     id="namedview27"
     showgrid="false"
     inkscape:zoom="8.8541667"
     inkscape:cx="32"
     inkscape:cy="48"
     inkscape:window-x="-8"
     inkscape:window-y="-8"
     inkscape:window-maximized="1"
     inkscape:current-layer="svg256" />
  <title
     id="title2">sc_c-g</title>
  <line
     x1="0.07"
     y1="15.97"
     x2="63.93"
     y2="16.02"
     style="fill:none;stroke:#000;stroke-miterlimit:10"
     id="line4" />
  <line
     x1="0.07"
     y1="47.96"
     x2="63.93"
     y2="48.1"
     style="fill:none;stroke:#000;stroke-miterlimit:10"
     id="line6" />
  <line
     x1="0.07"
     y1="79.96"
     x2="63.93"
     y2="80.1"
     style="fill:none;stroke:#000;stroke-miterlimit:10"
     id="line8" />
  <path
     d="M22.69,88a1.3,1.3,0,0,1-1.11-.61,1.38,1.38,0,0,1,.06-1.36l.69-1.26,1.4-2.56Q26,78,28.34,73.82L29.88,71,31,68.84A1.27,1.27,0,0,1,32.15,68a1.25,1.25,0,0,1,1.1.82q1.95,3.68,3.88,7.36l5.23,10a1.33,1.33,0,0,1,0,1.32,1.23,1.23,0,0,1-1.1.55H22.69Z"
     style="fill:#fcef00;fill-rule:evenodd"
     id="path10" />
  <path
     d="M32,87.57h-9c-.11,0-.23,0-.34,0-.73,0-1-.62-.67-1.29s.81-1.48,1.22-2.22q2.73-5,5.48-10c.9-1.66,1.79-3.32,2.7-5,.41-.77,1-.77,1.41,0l5.7,10.82c1.13,2.17,2.27,4.32,3.4,6.49.35.66.06,1.2-.65,1.2ZM40.18,86l-8-15.27L23.82,86Z"
     style="fill-rule:evenodd"
     id="path12" />
  <polygon
     points="31.92 83.19 32.48 79.41 29.5 81.23 31.29 73.65 33.18 73.65 31.24 78.86 34.3 76.94 32.8 83.33 33.83 83.11 31.91 85.83 31.09 82.47 31.92 83.19"
     style="fill-rule:evenodd"
     id="polygon14" />
  <path
     d="M32,87.57h-9c-.11,0-.23,0-.34,0-.73,0-1-.62-.67-1.29s.81-1.48,1.22-2.22q2.73-5,5.48-10c.9-1.66,1.79-3.32,2.7-5,.41-.77,1-.77,1.41,0l5.7,10.82c1.13,2.17,2.27,4.32,3.4,6.49.35.66.06,1.2-.65,1.2ZM40.18,86l-8-15.27L23.82,86Z"
     style="fill-rule:evenodd"
     id="path16" />
  <line
     x1="30.2"
     y1="92.82"
     x2="34.75"
     y2="92.82"
     style="fill:none;stroke:#000;stroke-linecap:round;stroke-miterlimit:10"
     id="line18" />
  <line
     x1="29.48"
     y1="90.83"
     x2="35.5"
     y2="90.82"
     style="fill:none;stroke:#000;stroke-linecap:round;stroke-miterlimit:10"
     id="line20" />
  <line
     x1="32.48"
     y1="90.83"
     x2="32.48"
     y2="87.81"
     style="fill:none;stroke:#000;stroke-miterlimit:10"
     id="line22" />
  <line
     x1="31.08"
     y1="94.81"
     x2="33.9"
     y2="94.81"
     style="fill:none;stroke:#000;stroke-linecap:round;stroke-miterlimit:10"
     id="line24" />
</svg>
