<?xml version="1.0" encoding="UTF-8"?>
<svg id="svg256" xmlns="http://www.w3.org/2000/svg" width="64" height="96" viewBox="0 0 64 96">
  <line y1="16" x2="64" y2="16" style="fill: none; stroke: #000; stroke-miterlimit: 10;"/>
  <line y1="48" x2="64" y2="48" style="fill: none; stroke: #000; stroke-miterlimit: 10;"/>
  <line y1="80" x2="64" y2="80" style="fill: none; stroke: #000; stroke-miterlimit: 10;"/>
  <path d="M46.11,37.65c-.35-.01-.63-.17-.78-.43-.16-.28-.14-.63,.04-.96,.16-.3,.32-.59,.49-.89l.99-1.8c1.08-1.98,2.17-3.96,3.25-5.94,.36-.67,.73-1.34,1.09-2.01,.27-.5,.54-1.01,.82-1.51,.27-.5,.61-.57,.78-.57s.51,.08,.78,.58c.91,1.73,1.82,3.46,2.73,5.19,0,0,3.16,6.01,3.69,7.01,.18,.33,.19,.67,.03,.93-.15,.24-.43,.39-.77,.39h-13.12Z" style="fill: #fcef00; fill-rule: evenodd;"/>
  <path d="M52.69,37.33h-6.33c-.08,0-.16,0-.24,0-.51-.02-.73-.44-.47-.91,.28-.52,.57-1.04,.86-1.56,1.29-2.35,2.58-4.7,3.86-7.06,.64-1.17,1.27-2.34,1.9-3.51,.29-.54,.71-.54,1,0,1.34,2.54,2.68,5.09,4.01,7.63,.8,1.52,1.6,3.05,2.4,4.57,.25,.47,.04,.85-.46,.85-2.18,0-4.36,0-6.54,0Zm5.75-1.08c-1.89-3.59-3.76-7.15-5.67-10.77-1.97,3.61-3.9,7.16-5.86,10.77h11.53Z" style="fill-rule: evenodd;"/>
  <polygon points="52.61 34.24 53.01 31.58 50.91 32.87 52.17 27.52 53.5 27.52 52.14 31.2 54.29 29.84 53.23 34.34 53.96 34.19 52.61 36.11 52.03 33.74 52.61 34.24" style="fill-rule: evenodd;"/>
  <path d="M52.69,37.33h-6.33c-.08,0-.16,0-.24,0-.51-.02-.73-.44-.47-.91,.28-.52,.57-1.04,.86-1.56,1.29-2.35,2.58-4.7,3.86-7.06,.64-1.17,1.27-2.34,1.9-3.51,.29-.54,.71-.54,1,0,1.34,2.54,2.68,5.09,4.01,7.63,.8,1.52,1.6,3.05,2.4,4.57,.25,.47,.04,.85-.46,.85-2.18,0-4.36,0-6.54,0Zm5.75-1.08c-1.89-3.59-3.76-7.15-5.67-10.77-1.97,3.61-3.9,7.16-5.86,10.77h11.53Z" style="fill-rule: evenodd;"/>
  <path id="path304" d="M5,22c0,1.66,1.34,3,3,3s3-1.34,3-3c0-1.66-1.34-3-3-3-1.66,0-3,1.34-3,3" style="fill: blue;"/>
</svg>