<?xml version="1.0" encoding="UTF-8" standalone="no"?>
<svg
   xmlns:dc="http://purl.org/dc/elements/1.1/"
   xmlns:cc="http://creativecommons.org/ns#"
   xmlns:rdf="http://www.w3.org/1999/02/22-rdf-syntax-ns#"
   xmlns:svg="http://www.w3.org/2000/svg"
   xmlns="http://www.w3.org/2000/svg"
   xmlns:sodipodi="http://sodipodi.sourceforge.net/DTD/sodipodi-0.dtd"
   xmlns:inkscape="http://www.inkscape.org/namespaces/inkscape"
   id="svg256"
   viewBox="0 0 64 96"
   version="1.1"
   sodipodi:docname="sc_none.svg"
   height="96"
   width="64"
   inkscape:version="1.0.1 (3bc2e813f5, 2020-09-07)">
  <metadata
     id="metadata23">
    <rdf:RDF>
      <cc:Work
         rdf:about="">
        <dc:format>image/svg+xml</dc:format>
        <dc:type
           rdf:resource="http://purl.org/dc/dcmitype/StillImage" />
      </cc:Work>
    </rdf:RDF>
  </metadata>
  <defs
     id="defs21" />
  <sodipodi:namedview
     pagecolor="#ffffff"
     bordercolor="#666666"
     borderopacity="1"
     objecttolerance="10"
     gridtolerance="10"
     guidetolerance="10"
     inkscape:pageopacity="0"
     inkscape:pageshadow="2"
     inkscape:window-width="1920"
     inkscape:window-height="1017"
     id="namedview19"
     showgrid="false"
     inkscape:zoom="21.78125"
     inkscape:cx="32"
     inkscape:cy="48"
     inkscape:window-x="-8"
     inkscape:window-y="-8"
     inkscape:window-maximized="1"
     inkscape:current-layer="svg256" />
  <title
     id="title2">sc_none</title>
  <line
     x1="0.07"
     y1="15.97"
     x2="63.93"
     y2="16.02"
     style="fill:none;stroke:#000;stroke-miterlimit:10"
     id="line4" />
  <line
     x1="0.07"
     y1="47.96"
     x2="63.93"
     y2="48.1"
     style="fill:none;stroke:#000;stroke-miterlimit:10"
     id="line6" />
  <line
     x1="0.07"
     y1="79.96"
     x2="63.93"
     y2="80.1"
     style="fill:none;stroke:#000;stroke-miterlimit:10"
     id="line8" />
  <path
     d="M44.69,38.44a.94.94,0,0,1-.82-.45,1,1,0,0,1,0-1l.51-.93,1-1.9,3.42-6.24L50,25.8c.29-.53.58-1.06.86-1.59a1,1,0,0,1,.83-.6,1,1,0,0,1,.82.61Q54,27,55.4,29.68s3.33,6.32,3.88,7.38a1,1,0,0,1,0,1,.9.9,0,0,1-.81.4H44.69Z"
     style="fill:#fcef00;fill-rule:evenodd"
     id="path10" />
  <path
     d="M51.61,38.11H44.7c-.53,0-.77-.47-.49-1s.6-1.09.9-1.64l4.06-7.43c.68-1.23,1.34-2.47,2-3.7.31-.57.75-.57,1,0q2.12,4,4.22,8c.84,1.61,1.69,3.21,2.53,4.81.26.5,0,.9-.48.9ZM57.67,37l-6-11.33L45.53,37Z"
     style="fill-rule:evenodd"
     id="path12" />
  <polygon
     points="51.53 34.85 51.95 32.05 49.74 33.41 51.07 27.78 52.47 27.78 51.03 31.65 53.3 30.22 52.19 34.96 52.95 34.79 51.53 36.81 50.92 34.32 51.53 34.85"
     style="fill-rule:evenodd"
     id="polygon14" />
  <path
     d="M51.61,38.11H44.7c-.53,0-.77-.47-.49-1s.6-1.09.9-1.64l4.06-7.43c.68-1.23,1.34-2.47,2-3.7.31-.57.75-.57,1,0q2.12,4,4.22,8c.84,1.61,1.69,3.21,2.53,4.81.26.5,0,.9-.48.9ZM57.67,37l-6-11.33L45.53,37Z"
     style="fill-rule:evenodd"
     id="path16" />
</svg>
