<?xml version="1.0" encoding="UTF-8" standalone="no"?>
<svg
   id="svg256"
   width="64"
   height="32"
   viewBox="0 0 64 32"
   version="1.1"
   sodipodi:docname="sc_n_sld.svg"
   inkscape:version="1.1.1 (3bf5ae0d25, 2021-09-20)"
   xmlns:inkscape="http://www.inkscape.org/namespaces/inkscape"
   xmlns:sodipodi="http://sodipodi.sourceforge.net/DTD/sodipodi-0.dtd"
   xmlns="http://www.w3.org/2000/svg"
   xmlns:svg="http://www.w3.org/2000/svg">
  <defs
     id="defs1429" />
  <sodipodi:namedview
     id="namedview1427"
     pagecolor="#ffffff"
     bordercolor="#666666"
     borderopacity="1.0"
     inkscape:pageshadow="2"
     inkscape:pageopacity="0.0"
     inkscape:pagecheckerboard="0"
     showgrid="false"
     inkscape:zoom="9.09375"
     inkscape:cx="31.945017"
     inkscape:cy="48"
     inkscape:window-width="2560"
     inkscape:window-height="1377"
     inkscape:window-x="1912"
     inkscape:window-y="-8"
     inkscape:window-maximized="1"
     inkscape:current-layer="svg256" />
  <line
     x1="0"
     y1="16"
     x2="64"
     y2="16"
     style="fill:none;stroke:#000000;stroke-miterlimit:10"
     id="line1371" />
  <path
     d="m 25.912794,11.703403 c -0.285791,-0.0055 -0.524922,-0.133114 -0.647403,-0.33833 -0.128314,-0.21631 -0.116649,-0.493629 0.02916,-0.75431 0.134147,-0.232948 0.268293,-0.465897 0.40244,-0.6988454 l 0.816544,-1.41433 c 0.898201,-1.558536 1.790567,-3.1115257 2.688766,-4.6700618 0.303288,-0.5269072 0.600743,-1.0538144 0.898199,-1.5807216 0.227466,-0.3937938 0.449099,-0.7931341 0.676565,-1.1869279 0.221634,-0.39379384 0.501592,-0.44925774 0.647403,-0.44925774 0.145812,0 0.42577,0.06101 0.641571,0.45480414 0.752387,1.358866 1.504774,2.7232784 2.257162,4.0821444 0,0 2.618774,4.7310725 3.050376,5.5186599 0.145812,0.260681 0.151644,0.532454 0.02333,0.732124 -0.122482,0.194124 -0.35578,0.305052 -0.641571,0.305052 z"
     style="fill:#fcef00;fill-rule:evenodd;stroke-width:0.568763"
     id="path1377" />
  <path
     d="M 31.354479,11.453815 H 26.11693 c -0.06416,0 -0.134147,0 -0.198304,0 -0.419937,-0.01109 -0.606575,-0.343876 -0.390774,-0.721031 0.233298,-0.410433 0.472429,-0.8208664 0.71156,-1.2312994 1.06734,-1.8524949 2.13468,-3.6994433 3.196187,-5.5519382 0.530754,-0.920701 1.049843,-1.841402 1.574765,-2.7621031 0.244963,-0.42707214 0.589078,-0.42707214 0.822376,0 1.108168,2.0022475 2.216335,4.0044949 3.31867,6.0067423 0.6649,1.198021 1.323968,2.396041 1.988869,3.5940624 0.204136,0.371608 0.03499,0.665567 -0.37911,0.665567 -1.80223,0 -3.610293,0 -5.412523,0 z m 4.759287,-0.848598 C 34.550667,7.7821031 32.999232,4.9756289 31.424468,2.1358763 29.797212,4.9756289 28.199118,7.7710104 26.571862,10.605217 Z"
     style="fill-rule:evenodd;stroke-width:0.568763"
     id="path1379" />
  <polygon
     points="31.3,8.22 33.18,8.22 31.25,13.43 34.31,11.5 32.8,17.89 33.84,17.67 31.92,20.4 31.09,17.03 31.92,17.75 32.49,13.98 29.51,15.8 "
     style="fill-rule:evenodd"
     id="polygon1381"
     transform="matrix(0.58324596,0,0,0.55463918,12.67311,-0.82589694)" />
  <path
     d="M 31.354479,11.453815 H 26.11693 c -0.06416,0 -0.134147,0 -0.198304,0 -0.419937,-0.01109 -0.606575,-0.343876 -0.390774,-0.721031 0.233298,-0.410433 0.472429,-0.8208664 0.71156,-1.2312994 1.06734,-1.8524949 2.13468,-3.6994433 3.196187,-5.5519382 0.530754,-0.920701 1.049843,-1.841402 1.574765,-2.7621031 0.244963,-0.42707214 0.589078,-0.42707214 0.822376,0 1.108168,2.0022475 2.216335,4.0044949 3.31867,6.0067423 0.6649,1.198021 1.323968,2.396041 1.988869,3.5940624 0.204136,0.371608 0.03499,0.665567 -0.37911,0.665567 -1.80223,0 -3.610293,0 -5.412523,0 z m 4.759287,-0.848598 C 34.550667,7.7821031 32.999232,4.9756289 31.424468,2.1358763 29.797212,4.9756289 28.199118,7.7710104 26.571862,10.605217 Z"
     style="fill-rule:evenodd;stroke-width:0.568763"
     id="path1383" />
</svg>
