<?xml version="1.0" encoding="UTF-8"?>
<svg id="svg256" xmlns="http://www.w3.org/2000/svg" width="80" height="96" viewBox="0 0 80 96">
  <defs>
    <style>
      .cls-1, .cls-2, .cls-3, .cls-4, .cls-5, .cls-6 {
        fill: none;
        stroke: #000;
      }

      .cls-1, .cls-2, .cls-5, .cls-6 {
        stroke-miterlimit: 10;
      }

      .cls-2, .cls-3, .cls-4, .cls-6 {
        stroke-linecap: round;
      }

      .cls-7 {
        fill: blue;
      }

      .cls-3, .cls-4 {
        stroke-linejoin: round;
      }

      .cls-4 {
        stroke-dasharray: 0 0 1.85 1.85;
      }

      .cls-5, .cls-6 {
        stroke-width: 1.07px;
      }
    </style>
  </defs>
  <line class="cls-5" x1="18.3" y1="47.99" x2="0" y2="48.01"/>
  <line class="cls-1" x1="62" y1="95.5" x2="18" y2="95.5"/>
  <line class="cls-6" y1="80" x2="18.3" y2="80"/>
  <line class="cls-2" x1="72.54" y1="16.05" x2="72.53" y2="43.94"/>
  <line class="cls-1" x1="72.57" y1="52.06" x2="72.54" y2="79.95"/>
  <line class="cls-6" x1="0" y1="16" x2="18.3" y2="16"/>
  <line class="cls-3" x1="18.3" y1="95.5" x2="18.3" y2=".5"/>
  <line class="cls-3" x1="62" y1="95.5" x2="62" y2=".5"/>
  <line class="cls-3" x1="79.54" y1="43.94" x2="65.54" y2="43.94"/>
  <line class="cls-3" x1="76.66" y1="52.06" x2="68.49" y2="52.06"/>
  <line class="cls-3" x1="79.54" y1="49.36" x2="65.54" y2="49.36"/>
  <line class="cls-3" x1="76.66" y1="46.65" x2="68.49" y2="46.65"/>
  <line class="cls-1" x1="62" y1=".5" x2="18" y2=".5"/>
  <line class="cls-2" x1="62" y1="79.95" x2="72.54" y2="79.95"/>
  <line class="cls-2" x1="62" y1="16.05" x2="72.54" y2="16.05"/>
  <line class="cls-2" x1="62" y1=".5" x2="18.3" y2="95.5"/>
  <g>
    <path class="cls-3" d="M30.34,15.99c1.97-3.94,3.95-3.94,5.92,0"/>
    <path class="cls-3" d="M24.42,15.99c1.97,3.94,3.95,3.94,5.92,0"/>
  </g>
  <line class="cls-3" x1="55.64" y1="78" x2="44.36" y2="78"/>
  <g>
    <line class="cls-3" x1="55.64" y1="81.03" x2="54.64" y2="81.03"/>
    <line class="cls-4" x1="52.78" y1="81.03" x2="46.29" y2="81.03"/>
    <line class="cls-3" x1="45.36" y1="81.03" x2="44.36" y2="81.03"/>
  </g>
  <path id="path304" class="cls-7" d="M8,19c-1.66,0-3,1.34-3,3s1.34,3,3,3c1.66,0,3-1.34,3-3,0-1.66-1.34-3-3-3"/>
</svg>