<?xml version="1.0" encoding="UTF-8"?>
<svg id="svg256" xmlns="http://www.w3.org/2000/svg" width="64" height="96" viewBox="0 0 64 96">
  <line x1="64" y1="15.98" x2="48" y2="16.02" style="fill: none; stroke: #000; stroke-miterlimit: 10;"/>
  <line x1="64" y1="47.98" x2="48" y2="48.02" style="fill: none; stroke: #000; stroke-miterlimit: 10;"/>
  <line x1="64" y1="79.98" x2="48" y2="80.02" style="fill: none; stroke: #000; stroke-miterlimit: 10;"/>
  <circle cx="48" cy="16" r="1.25" style="fill: #fff; stroke: #000; stroke-miterlimit: 10;"/>
  <circle cx="48" cy="47.99" r="1.25" style="fill: #fff; stroke: #000; stroke-miterlimit: 10;"/>
  <circle cx="48" cy="79.99" r="1.25" style="fill: #fff; stroke: #000; stroke-miterlimit: 10;"/>
  <line x1="47.86" y1="5.4" x2="15.97" y2="5.38" style="fill: none; stroke: #000; stroke-linecap: round; stroke-miterlimit: 10; stroke-width: 2px;"/>
  <line x1="47.87" y1="37.4" x2="15.99" y2="37.38" style="fill: none; stroke: #000; stroke-linecap: round; stroke-miterlimit: 10; stroke-width: 2px;"/>
  <line x1="47.89" y1="69.4" x2="16" y2="69.38" style="fill: none; stroke: #000; stroke-linecap: round; stroke-miterlimit: 10; stroke-width: 2px;"/>
  <path d="M32.43,68.39h-1v-4h1v4Zm0-6h-1v-4h1v4Zm0-6h-1v-4h1v4Zm0-6h-1v-4h1v4Zm0-6h-1v-4h1v4Zm0-6h-1v-4h1v4Zm0-6h-1v-4h1v4Zm0-6h-1v-4h1v4Zm0-6h-1v-4h1v4Zm0-6h-1v-4h1v4Zm0-6h-1V4.39h1v4Zm0-6h-1V0h1V2.39Z"/>
  <line x1="0" y1="15.98" x2="16" y2="16.02" style="fill: none; stroke: #000; stroke-miterlimit: 10;"/>
  <line x1="0" y1="47.98" x2="16" y2="48.02" style="fill: none; stroke: #000; stroke-miterlimit: 10;"/>
  <line x1="0" y1="79.98" x2="16" y2="80.02" style="fill: none; stroke: #000; stroke-miterlimit: 10;"/>
  <circle cx="16" cy="16" r="1.25" style="fill: #fff; stroke: #000; stroke-miterlimit: 10;"/>
  <circle cx="16" cy="47.99" r="1.25" style="fill: #fff; stroke: #000; stroke-miterlimit: 10;"/>
  <circle cx="16" cy="79.99" r="1.25" style="fill: #fff; stroke: #000; stroke-miterlimit: 10;"/>
  <path id="path304" d="M5,22c0,1.66,1.34,3,3,3s3-1.34,3-3c0-1.66-1.34-3-3-3-1.66,0-3,1.34-3,3" style="fill: blue;"/>
</svg>