<?xml version="1.0" encoding="UTF-8"?>
<svg id="svg256" xmlns="http://www.w3.org/2000/svg" width="64" height="64" viewBox="0 0 64 64">
  <line x1="64" y1="16.05" x2="48" y2="16.05" style="fill: none; stroke: #000; stroke-miterlimit: 10;"/>
  <line x1="64" y1="48.02" x2="48" y2="48.05" style="fill: none; stroke: #000; stroke-miterlimit: 10;"/>
  <circle cx="48" cy="16.03" r="1.25" style="fill: #fff; stroke: #000; stroke-miterlimit: 10;"/>
  <circle cx="48" cy="48.03" r="1.25" style="fill: #fff; stroke: #000; stroke-miterlimit: 10;"/>
  <line x1="47.86" y1="13.44" x2="15.97" y2="13.42" style="fill: none; stroke: #000; stroke-linecap: round; stroke-miterlimit: 10; stroke-width: 2px;"/>
  <line x1="47.87" y1="45.44" x2="15.99" y2="45.42" style="fill: none; stroke: #000; stroke-linecap: round; stroke-miterlimit: 10; stroke-width: 2px;"/>
  <g>
    <rect x="31.43" y="43.46" width="1" height="2"/>
    <path d="M32.43,41.58h-1v-3.77h1v3.77Zm0-5.65h-1v-3.77h1v3.77Zm0-5.65h-1v-3.77h1v3.77Zm0-5.65h-1v-3.77h1v3.77Zm0-5.65h-1v-3.77h1v3.77Zm0-5.65h-1v-3.77h1v3.77Zm0-5.65h-1V3.92h1v3.77Z"/>
    <rect x="31.43" y=".03" width="1" height="2"/>
  </g>
  <line y1="16.02" x2="16" y2="16.05" style="fill: none; stroke: #000; stroke-miterlimit: 10;"/>
  <line x1="0" y1="48.02" x2="16" y2="48.05" style="fill: none; stroke: #000; stroke-miterlimit: 10;"/>
  <circle cx="16" cy="16.03" r="1.25" style="fill: #fff; stroke: #000; stroke-miterlimit: 10;"/>
  <circle cx="16" cy="48.03" r="1.25" style="fill: #fff; stroke: #000; stroke-miterlimit: 10;"/>
  <path id="path304" d="M5,22.03c0,1.66,1.34,3,3,3s3-1.34,3-3c0-1.66-1.34-3-3-3-1.66,0-3,1.34-3,3" style="fill: blue;"/>
</svg>