<?xml version="1.0" encoding="UTF-8" standalone="no"?>
<!-- Generator: Adobe Illustrator 19.0.0, SVG Export Plug-In . SVG Version: 6.00 Build 0)  -->

<svg
   xmlns:dc="http://purl.org/dc/elements/1.1/"
   xmlns:cc="http://creativecommons.org/ns#"
   xmlns:rdf="http://www.w3.org/1999/02/22-rdf-syntax-ns#"
   xmlns:svg="http://www.w3.org/2000/svg"
   xmlns="http://www.w3.org/2000/svg"
   xmlns:sodipodi="http://sodipodi.sourceforge.net/DTD/sodipodi-0.dtd"
   xmlns:inkscape="http://www.inkscape.org/namespaces/inkscape"
   version="1.1"
   id="svg256"
   inkscape:version="0.92.4 (5da689c313, 2019-01-14)"
   sodipodi:docname="t_2p5w.svg"
   x="0px"
   y="0px"
   viewBox="-281 517.5 64 256"
   xml:space="preserve"
   width="64"
   height="256"><metadata
   id="metadata142"><rdf:RDF><cc:Work
       rdf:about=""><dc:format>image/svg+xml</dc:format><dc:type
         rdf:resource="http://purl.org/dc/dcmitype/StillImage" /></cc:Work></rdf:RDF></metadata><defs
   id="defs140" />
<style
   type="text/css"
   id="style2">
	.st0{fill:none;stroke:#000000;stroke-linecap:round;stroke-miterlimit:10;}
	.st1{stroke:#000000;stroke-linecap:round;stroke-miterlimit:10;}
	.st2{fill:none;stroke:#000000;stroke-linecap:round;stroke-linejoin:round;stroke-miterlimit:22.926;}
</style>
<sodipodi:namedview
   inkscape:cy="17.153471"
   inkscape:cx="11.948193"
   inkscape:zoom="6.82"
   showgrid="true"
   guidetolerance="10"
   gridtolerance="10"
   objecttolerance="10"
   borderopacity="1"
   bordercolor="#666666"
   id="namedview258"
   pagecolor="#ffffff"
   inkscape:current-layer="svg256"
   inkscape:window-maximized="1"
   inkscape:window-y="-8"
   inkscape:window-x="1358"
   inkscape:snap-page="true"
   inkscape:bbox-nodes="false"
   inkscape:snap-global="true"
   inkscape:snap-bbox-midpoints="false"
   inkscape:bbox-paths="false"
   inkscape:snap-bbox="true"
   inkscape:window-height="1017"
   inkscape:pageshadow="2"
   inkscape:window-width="1920"
   inkscape:pageopacity="0">
	</sodipodi:namedview>
<g
   id="g29">
	<g
   id="g19">
		<g
   id="g274_2_"
   transform="translate(36.5867,32.3413)">
			<path
   id="path276_2_"
   inkscape:connector-curvature="0"
   class="st0"
   d="m -272.2,514.2 c -4.2,-0.5 -7.1,-2.3 -7.1,-4.3 0,-2 2.9,-3.7 7.1,-4.3"
   style="fill:none;stroke:#000000;stroke-linecap:round;stroke-miterlimit:10" />
		</g>
		<g
   id="g278_2_"
   transform="translate(36.6293,32.4267)">
			<path
   id="path280_2_"
   inkscape:connector-curvature="0"
   class="st0"
   d="m -272.3,514.1 c 0.1,0 0.3,0 0.4,0 1.3,0 2.4,-0.3 2.4,-0.7 0,-0.4 -1.1,-0.7 -2.4,-0.7 -0.1,0 -0.3,0 -0.4,0"
   style="fill:none;stroke:#000000;stroke-linecap:round;stroke-miterlimit:10" />
		</g>
		<g
   id="g282_2_"
   transform="translate(25.4507,32.4267)">
			<path
   id="path284_2_"
   inkscape:connector-curvature="0"
   class="st0"
   d="m -261.1,521.3 c 0.1,0 0.3,0 0.4,0 1.3,0 2.4,-0.3 2.4,-0.7 0,-0.4 -1.1,-0.7 -2.4,-0.7 -0.1,0 -0.3,0 -0.4,0"
   style="fill:none;stroke:#000000;stroke-linecap:round;stroke-miterlimit:10" />
		</g>
		<g
   id="g286_2_"
   transform="translate(25.408,32.3413)">
			<path
   id="path288_2_"
   inkscape:connector-curvature="0"
   class="st0"
   d="m -261,521.4 c -4.2,-0.5 -7.1,-2.3 -7.1,-4.3 0,-2 2.9,-3.7 7.1,-4.3"
   style="fill:none;stroke:#000000;stroke-linecap:round;stroke-miterlimit:10" />
		</g>
		<g
   id="g290_2_"
   transform="translate(14.2293,32.3413)">
			<path
   id="path292_2_"
   inkscape:connector-curvature="0"
   class="st0"
   d="m -249.8,528.6 c -4.2,-0.5 -7.1,-2.3 -7.1,-4.3 0,-2 2.9,-3.7 7.1,-4.3"
   style="fill:none;stroke:#000000;stroke-linecap:round;stroke-miterlimit:10" />
		</g>
		<g
   id="g294_2_"
   transform="translate(0,32)">
			<path
   id="path296_2_"
   inkscape:connector-curvature="0"
   class="st0"
   d="m -235.3,533.5 v -4.6"
   style="fill:none;stroke:#000000;stroke-linecap:round;stroke-miterlimit:10" />
		</g>
		<g
   id="g298_2_"
   transform="translate(64,32)">
			<path
   id="path300_2_"
   inkscape:connector-curvature="0"
   class="st0"
   d="M -299.3,501.5 V 506"
   style="fill:none;stroke:#000000;stroke-linecap:round;stroke-miterlimit:10" />
		</g>
	</g>
	<g
   id="g302_2_"
   transform="translate(53.7173,40.5333)">
		<path
   id="path304_2_"
   inkscape:connector-curvature="0"
   class="st1"
   d="m -292.8,495 c 0,-0.4 0.4,-0.7 0.8,-0.7 0.4,0 0.8,0.3 0.8,0.7 0,0.4 -0.4,0.7 -0.8,0.7 -0.4,0 -0.8,-0.3 -0.8,-0.7"
   style="stroke:#000000;stroke-linecap:round;stroke-miterlimit:10" />
	</g>
	<g
   id="g306_2_"
   transform="translate(53.7173,40.5333)">
		<path
   id="path308_2_"
   inkscape:connector-curvature="0"
   class="st0"
   d="m -292.8,495 c 0,-0.4 0.4,-0.7 0.8,-0.7 0.4,0 0.8,0.3 0.8,0.7 0,0.4 -0.4,0.7 -0.8,0.7 -0.4,0 -0.8,-0.3 -0.8,-0.7 z"
   style="fill:none;stroke:#000000;stroke-linecap:round;stroke-miterlimit:10" />
	</g>
	<line
   class="st2"
   x1="-235.3"
   y1="533.5"
   x2="-217"
   y2="533.5"
   id="line25"
   style="fill:none;stroke:#000000;stroke-linecap:round;stroke-linejoin:round;stroke-miterlimit:22.9260006" />
	<line
   class="st2"
   x1="-235.3"
   y1="565.5"
   x2="-217"
   y2="565.5"
   id="line27"
   style="fill:none;stroke:#000000;stroke-linecap:round;stroke-linejoin:round;stroke-miterlimit:22.9260006" />
</g>
<line
   class="st0"
   x1="-250.89999"
   y1="538"
   x2="-250.89999"
   y2="752.90002"
   id="line31"
   style="fill:none;stroke:#000000;stroke-linecap:round;stroke-miterlimit:10" />
<line
   class="st0"
   x1="-246.60001"
   y1="538"
   x2="-246.60001"
   y2="752.90002"
   id="line33"
   style="fill:none;stroke:#000000;stroke-linecap:round;stroke-miterlimit:10" />
<g
   id="g59">
	<g
   id="g49">
		<g
   id="g274_3_"
   transform="translate(36.5867,32.3413)">
			<path
   id="path276_3_"
   inkscape:connector-curvature="0"
   class="st0"
   d="m -272.2,578.2 c -4.2,-0.5 -7.1,-2.3 -7.1,-4.3 0,-2 2.9,-3.7 7.1,-4.3"
   style="fill:none;stroke:#000000;stroke-linecap:round;stroke-miterlimit:10" />
		</g>
		<g
   id="g278_3_"
   transform="translate(36.6293,32.4267)">
			<path
   id="path280_3_"
   inkscape:connector-curvature="0"
   class="st0"
   d="m -272.3,578.1 c 0.1,0 0.3,0 0.4,0 1.3,0 2.4,-0.3 2.4,-0.7 0,-0.4 -1.1,-0.7 -2.4,-0.7 -0.1,0 -0.3,0 -0.4,0"
   style="fill:none;stroke:#000000;stroke-linecap:round;stroke-miterlimit:10" />
		</g>
		<g
   id="g282_3_"
   transform="translate(25.4507,32.4267)">
			<path
   id="path284_3_"
   inkscape:connector-curvature="0"
   class="st0"
   d="m -261.1,585.3 c 0.1,0 0.3,0 0.4,0 1.3,0 2.4,-0.3 2.4,-0.7 0,-0.4 -1.1,-0.7 -2.4,-0.7 -0.1,0 -0.3,0 -0.4,0"
   style="fill:none;stroke:#000000;stroke-linecap:round;stroke-miterlimit:10" />
		</g>
		<g
   id="g286_3_"
   transform="translate(25.408,32.3413)">
			<path
   id="path288_3_"
   inkscape:connector-curvature="0"
   class="st0"
   d="m -261,585.4 c -4.2,-0.5 -7.1,-2.3 -7.1,-4.3 0,-2 2.9,-3.7 7.1,-4.3"
   style="fill:none;stroke:#000000;stroke-linecap:round;stroke-miterlimit:10" />
		</g>
		<g
   id="g290_3_"
   transform="translate(14.2293,32.3413)">
			<path
   id="path292_3_"
   inkscape:connector-curvature="0"
   class="st0"
   d="m -249.8,592.6 c -4.2,-0.5 -7.1,-2.3 -7.1,-4.3 0,-2 2.9,-3.7 7.1,-4.3"
   style="fill:none;stroke:#000000;stroke-linecap:round;stroke-miterlimit:10" />
		</g>
		<g
   id="g294_3_"
   transform="translate(0,32)">
			<path
   id="path296_3_"
   inkscape:connector-curvature="0"
   class="st0"
   d="m -235.3,597.5 v -4.6"
   style="fill:none;stroke:#000000;stroke-linecap:round;stroke-miterlimit:10" />
		</g>
		<g
   id="g298_3_"
   transform="translate(64,32)">
			<path
   id="path300_3_"
   inkscape:connector-curvature="0"
   class="st0"
   d="M -299.3,565.5 V 570"
   style="fill:none;stroke:#000000;stroke-linecap:round;stroke-miterlimit:10" />
		</g>
	</g>
	<g
   id="g302_3_"
   transform="translate(53.7173,40.5333)">
		<path
   id="path304_3_"
   inkscape:connector-curvature="0"
   class="st1"
   d="m -292.8,559 c 0,-0.4 0.4,-0.7 0.8,-0.7 0.4,0 0.8,0.3 0.8,0.7 0,0.4 -0.4,0.7 -0.8,0.7 -0.4,0 -0.8,-0.3 -0.8,-0.7"
   style="stroke:#000000;stroke-linecap:round;stroke-miterlimit:10" />
	</g>
	<g
   id="g306_3_"
   transform="translate(53.7173,40.5333)">
		<path
   id="path308_3_"
   inkscape:connector-curvature="0"
   class="st0"
   d="m -292.8,559 c 0,-0.4 0.4,-0.7 0.8,-0.7 0.4,0 0.8,0.3 0.8,0.7 0,0.4 -0.4,0.7 -0.8,0.7 -0.4,0 -0.8,-0.3 -0.8,-0.7 z"
   style="fill:none;stroke:#000000;stroke-linecap:round;stroke-miterlimit:10" />
	</g>
	<line
   class="st2"
   x1="-235.3"
   y1="597.5"
   x2="-217"
   y2="597.5"
   id="line55"
   style="fill:none;stroke:#000000;stroke-linecap:round;stroke-linejoin:round;stroke-miterlimit:22.9260006" />
	<line
   class="st2"
   x1="-235.3"
   y1="629.5"
   x2="-217"
   y2="629.5"
   id="line57"
   style="fill:none;stroke:#000000;stroke-linecap:round;stroke-linejoin:round;stroke-miterlimit:22.9260006" />
</g>
<g
   id="g85">
	<g
   id="g75">
		<g
   id="g274_5_"
   transform="translate(36.5867,32.3413)">
			<path
   id="path276_5_"
   inkscape:connector-curvature="0"
   class="st0"
   d="m -272.2,642.2 c -4.2,-0.5 -7.1,-2.3 -7.1,-4.3 0,-2 2.9,-3.7 7.1,-4.3"
   style="fill:none;stroke:#000000;stroke-linecap:round;stroke-miterlimit:10" />
		</g>
		<g
   id="g278_5_"
   transform="translate(36.6293,32.4267)">
			<path
   id="path280_5_"
   inkscape:connector-curvature="0"
   class="st0"
   d="m -272.3,642.1 c 0.1,0 0.3,0 0.4,0 1.3,0 2.4,-0.3 2.4,-0.7 0,-0.4 -1.1,-0.7 -2.4,-0.7 -0.1,0 -0.3,0 -0.4,0"
   style="fill:none;stroke:#000000;stroke-linecap:round;stroke-miterlimit:10" />
		</g>
		<g
   id="g282_5_"
   transform="translate(25.4507,32.4267)">
			<path
   id="path284_5_"
   inkscape:connector-curvature="0"
   class="st0"
   d="m -261.1,649.3 c 0.1,0 0.3,0 0.4,0 1.3,0 2.4,-0.3 2.4,-0.7 0,-0.4 -1.1,-0.7 -2.4,-0.7 -0.1,0 -0.3,0 -0.4,0"
   style="fill:none;stroke:#000000;stroke-linecap:round;stroke-miterlimit:10" />
		</g>
		<g
   id="g286_5_"
   transform="translate(25.408,32.3413)">
			<path
   id="path288_5_"
   inkscape:connector-curvature="0"
   class="st0"
   d="m -261,649.4 c -4.2,-0.5 -7.1,-2.3 -7.1,-4.3 0,-2 2.9,-3.7 7.1,-4.3"
   style="fill:none;stroke:#000000;stroke-linecap:round;stroke-miterlimit:10" />
		</g>
		<g
   id="g290_5_"
   transform="translate(14.2293,32.3413)">
			<path
   id="path292_5_"
   inkscape:connector-curvature="0"
   class="st0"
   d="m -249.8,656.6 c -4.2,-0.5 -7.1,-2.3 -7.1,-4.3 0,-2 2.9,-3.7 7.1,-4.3"
   style="fill:none;stroke:#000000;stroke-linecap:round;stroke-miterlimit:10" />
		</g>
		<g
   id="g294_5_"
   transform="translate(0,32)">
			<path
   id="path296_5_"
   inkscape:connector-curvature="0"
   class="st0"
   d="m -235.3,661.5 v -4.6"
   style="fill:none;stroke:#000000;stroke-linecap:round;stroke-miterlimit:10" />
		</g>
		<g
   id="g298_5_"
   transform="translate(64,32)">
			<path
   id="path300_5_"
   inkscape:connector-curvature="0"
   class="st0"
   d="M -299.3,629.5 V 634"
   style="fill:none;stroke:#000000;stroke-linecap:round;stroke-miterlimit:10" />
		</g>
	</g>
	<g
   id="g302_5_"
   transform="translate(53.7173,40.5333)">
		<path
   id="path304_5_"
   inkscape:connector-curvature="0"
   class="st1"
   d="m -292.8,623 c 0,-0.4 0.4,-0.7 0.8,-0.7 0.4,0 0.8,0.3 0.8,0.7 0,0.4 -0.4,0.7 -0.8,0.7 -0.4,0 -0.8,-0.3 -0.8,-0.7"
   style="stroke:#000000;stroke-linecap:round;stroke-miterlimit:10" />
	</g>
	<g
   id="g306_5_"
   transform="translate(53.7173,40.5333)">
		<path
   id="path308_5_"
   inkscape:connector-curvature="0"
   class="st0"
   d="m -292.8,623 c 0,-0.4 0.4,-0.7 0.8,-0.7 0.4,0 0.8,0.3 0.8,0.7 0,0.4 -0.4,0.7 -0.8,0.7 -0.4,0 -0.8,-0.3 -0.8,-0.7 z"
   style="fill:none;stroke:#000000;stroke-linecap:round;stroke-miterlimit:10" />
	</g>
	<line
   class="st2"
   x1="-235.3"
   y1="661.5"
   x2="-217"
   y2="661.5"
   id="line81"
   style="fill:none;stroke:#000000;stroke-linecap:round;stroke-linejoin:round;stroke-miterlimit:22.9260006" />
	<line
   class="st2"
   x1="-235.3"
   y1="693.5"
   x2="-217"
   y2="693.5"
   id="line83"
   style="fill:none;stroke:#000000;stroke-linecap:round;stroke-linejoin:round;stroke-miterlimit:22.9260006" />
</g>
<g
   id="g111">
	<g
   id="g101">
		<g
   id="g274_7_"
   transform="translate(36.5867,32.3413)">
			<path
   id="path276_7_"
   inkscape:connector-curvature="0"
   class="st0"
   d="m -272.2,706.2 c -4.2,-0.5 -7.1,-2.3 -7.1,-4.3 0,-2 2.9,-3.7 7.1,-4.3"
   style="fill:none;stroke:#000000;stroke-linecap:round;stroke-miterlimit:10" />
		</g>
		<g
   id="g278_7_"
   transform="translate(36.6293,32.4267)">
			<path
   id="path280_7_"
   inkscape:connector-curvature="0"
   class="st0"
   d="m -272.3,706.1 c 0.1,0 0.3,0 0.4,0 1.3,0 2.4,-0.3 2.4,-0.7 0,-0.4 -1.1,-0.7 -2.4,-0.7 -0.1,0 -0.3,0 -0.4,0"
   style="fill:none;stroke:#000000;stroke-linecap:round;stroke-miterlimit:10" />
		</g>
		<g
   id="g282_7_"
   transform="translate(25.4507,32.4267)">
			<path
   id="path284_7_"
   inkscape:connector-curvature="0"
   class="st0"
   d="m -261.1,713.3 c 0.1,0 0.3,0 0.4,0 1.3,0 2.4,-0.3 2.4,-0.7 0,-0.4 -1.1,-0.7 -2.4,-0.7 -0.1,0 -0.3,0 -0.4,0"
   style="fill:none;stroke:#000000;stroke-linecap:round;stroke-miterlimit:10" />
		</g>
		<g
   id="g286_7_"
   transform="translate(25.408,32.3413)">
			<path
   id="path288_7_"
   inkscape:connector-curvature="0"
   class="st0"
   d="m -261,713.4 c -4.2,-0.5 -7.1,-2.3 -7.1,-4.3 0,-2 2.9,-3.7 7.1,-4.3"
   style="fill:none;stroke:#000000;stroke-linecap:round;stroke-miterlimit:10" />
		</g>
		<g
   id="g290_7_"
   transform="translate(14.2293,32.3413)">
			<path
   id="path292_7_"
   inkscape:connector-curvature="0"
   class="st0"
   d="m -249.8,720.6 c -4.2,-0.5 -7.1,-2.3 -7.1,-4.3 0,-2 2.9,-3.7 7.1,-4.3"
   style="fill:none;stroke:#000000;stroke-linecap:round;stroke-miterlimit:10" />
		</g>
		<g
   id="g294_7_"
   transform="translate(0,32)">
			<path
   id="path296_7_"
   inkscape:connector-curvature="0"
   class="st0"
   d="m -235.3,725.5 v -4.6"
   style="fill:none;stroke:#000000;stroke-linecap:round;stroke-miterlimit:10" />
		</g>
		<g
   id="g298_7_"
   transform="translate(64,32)">
			<path
   id="path300_7_"
   inkscape:connector-curvature="0"
   class="st0"
   d="M -299.3,693.5 V 698"
   style="fill:none;stroke:#000000;stroke-linecap:round;stroke-miterlimit:10" />
		</g>
	</g>
	<g
   id="g302_7_"
   transform="translate(53.7173,40.5333)">
		<path
   id="path304_7_"
   inkscape:connector-curvature="0"
   class="st1"
   d="m -292.8,687 c 0,-0.4 0.4,-0.7 0.8,-0.7 0.4,0 0.8,0.3 0.8,0.7 0,0.4 -0.4,0.7 -0.8,0.7 -0.4,0 -0.8,-0.3 -0.8,-0.7"
   style="stroke:#000000;stroke-linecap:round;stroke-miterlimit:10" />
	</g>
	<g
   id="g306_7_"
   transform="translate(53.7173,40.5333)">
		<path
   id="path308_7_"
   inkscape:connector-curvature="0"
   class="st0"
   d="m -292.8,687 c 0,-0.4 0.4,-0.7 0.8,-0.7 0.4,0 0.8,0.3 0.8,0.7 0,0.4 -0.4,0.7 -0.8,0.7 -0.4,0 -0.8,-0.3 -0.8,-0.7 z"
   style="fill:none;stroke:#000000;stroke-linecap:round;stroke-miterlimit:10" />
	</g>
	<line
   class="st2"
   x1="-235.3"
   y1="725.5"
   x2="-217"
   y2="725.5"
   id="line107"
   style="fill:none;stroke:#000000;stroke-linecap:round;stroke-linejoin:round;stroke-miterlimit:22.9260006" />
	<line
   class="st2"
   x1="-235.3"
   y1="757.5"
   x2="-217"
   y2="757.5"
   id="line109"
   style="fill:none;stroke:#000000;stroke-linecap:round;stroke-linejoin:round;stroke-miterlimit:22.9260006" />
</g>
<g
   id="g137">
	<g
   id="g127">
		<g
   id="g274_12_"
   transform="translate(36.5867,32.3413)">
			<path
   id="path276_12_"
   inkscape:connector-curvature="0"
   class="st0"
   d="m -299.1,601.7 c 4.2,0.5 7.1,2.3 7.1,4.3 0,2 -2.9,3.7 -7.1,4.3"
   style="fill:none;stroke:#000000;stroke-linecap:round;stroke-miterlimit:10" />
		</g>
		<g
   id="g278_12_"
   transform="translate(36.6293,32.4267)">
			<path
   id="path280_12_"
   inkscape:connector-curvature="0"
   class="st0"
   d="m -299.1,608.8 c -0.1,0 -0.3,0 -0.4,0 -1.3,0 -2.4,0.3 -2.4,0.7 0,0.4 1.1,0.7 2.4,0.7 0.1,0 0.3,0 0.4,0"
   style="fill:none;stroke:#000000;stroke-linecap:round;stroke-miterlimit:10" />
		</g>
		<g
   id="g282_12_"
   transform="translate(25.4507,32.4267)">
			<path
   id="path284_12_"
   inkscape:connector-curvature="0"
   class="st0"
   d="m -287.9,616 c -0.1,0 -0.3,0 -0.4,0 -1.3,0 -2.4,0.3 -2.4,0.7 0,0.4 1.1,0.7 2.4,0.7 0.1,0 0.3,0 0.4,0"
   style="fill:none;stroke:#000000;stroke-linecap:round;stroke-miterlimit:10" />
		</g>
		<g
   id="g286_12_"
   transform="translate(25.408,32.3413)">
			<path
   id="path288_12_"
   inkscape:connector-curvature="0"
   class="st0"
   d="m -287.9,608.9 c 4.2,0.5 7.1,2.3 7.1,4.3 0,2 -2.9,3.7 -7.1,4.3"
   style="fill:none;stroke:#000000;stroke-linecap:round;stroke-miterlimit:10" />
		</g>
		<g
   id="g290_12_"
   transform="translate(14.2293,32.3413)">
			<path
   id="path292_12_"
   inkscape:connector-curvature="0"
   class="st0"
   d="m -276.7,616.1 c 4.2,0.5 7.1,2.3 7.1,4.3 0,2 -2.9,3.7 -7.1,4.3"
   style="fill:none;stroke:#000000;stroke-linecap:round;stroke-miterlimit:10" />
		</g>
		<g
   id="g294_12_"
   transform="translate(0,32)">
			<path
   id="path296_12_"
   inkscape:connector-curvature="0"
   class="st0"
   d="m -262.8,624.9 v 4.6"
   style="fill:none;stroke:#000000;stroke-linecap:round;stroke-miterlimit:10" />
		</g>
		<g
   id="g298_12_"
   transform="translate(64,32)">
			<path
   id="path300_12_"
   inkscape:connector-curvature="0"
   class="st0"
   d="m -326.8,602 v -4.5"
   style="fill:none;stroke:#000000;stroke-linecap:round;stroke-miterlimit:10" />
		</g>
	</g>
	<g
   id="g302_12_"
   transform="translate(53.7173,40.5333)">
		<path
   id="path304_12_"
   inkscape:connector-curvature="0"
   class="st1"
   d="m -312.6,591 c 0,0.4 -0.4,0.7 -0.8,0.7 -0.5,0 -0.8,-0.3 -0.8,-0.7 0,-0.4 0.4,-0.7 0.8,-0.7 0.4,0 0.8,0.3 0.8,0.7"
   style="stroke:#000000;stroke-linecap:round;stroke-miterlimit:10" />
	</g>
	<g
   id="g306_12_"
   transform="translate(53.7173,40.5333)">
		<path
   id="path308_12_"
   inkscape:connector-curvature="0"
   class="st0"
   d="m -313.5,591.7 c -0.5,0 -0.8,-0.3 -0.8,-0.7 0,-0.4 0.4,-0.7 0.8,-0.7 0.5,0 0.8,0.3 0.8,0.7 0,0.4 -0.3,0.7 -0.8,0.7 z"
   style="fill:none;stroke:#000000;stroke-linecap:round;stroke-miterlimit:10" />
	</g>
	<line
   class="st2"
   x1="-262.79999"
   y1="629.5"
   x2="-281"
   y2="629.5"
   id="line133"
   style="fill:none;stroke:#000000;stroke-linecap:round;stroke-linejoin:round;stroke-miterlimit:22.9260006" />
	<line
   class="st2"
   x1="-262.79999"
   y1="661.5"
   x2="-281"
   y2="661.5"
   id="line135"
   style="fill:none;stroke:#000000;stroke-linecap:round;stroke-linejoin:round;stroke-miterlimit:22.9260006" />
</g>
</svg>