<?xml version="1.0" encoding="UTF-8"?>
<svg id="svg256" xmlns="http://www.w3.org/2000/svg" width="64" height="544" viewBox="0 0 64 544">
  <defs>
    <style>
      .cls-1 {
        stroke-miterlimit: 10;
      }

      .cls-1, .cls-2 {
        fill: none;
        stroke: #000;
        stroke-linecap: round;
      }

      .cls-3 {
        fill: blue;
      }

      .cls-2 {
        stroke-linejoin: round;
      }
    </style>
  </defs>
  <line class="cls-1" x1="30.15" y1="20.54" x2="30.15" y2="507.43"/>
  <line class="cls-1" x1="34.36" y1="20.54" x2="34.36" y2="507.43"/>
  <path id="path276" class="cls-1" d="M18.52,260.54c4.2,.52,7.12,2.26,7.12,4.25s-2.92,3.73-7.12,4.25"/>
  <path id="path280" class="cls-1" d="M18.58,267.73c-.13,0-.28-.01-.41-.01-1.31,0-2.38,.3-2.38,.66s1.07,.66,2.38,.66c.13,0,.28-.01,.41-.01"/>
  <path id="path284" class="cls-1" d="M18.58,274.92c-.13,0-.28-.01-.41-.01-1.31,0-2.38,.3-2.38,.66s1.07,.66,2.38,.66c.13,0,.28-.01,.41-.01"/>
  <path id="path288" class="cls-1" d="M18.52,267.73c4.2,.51,7.12,2.26,7.12,4.25,0,1.99-2.92,3.73-7.12,4.25"/>
  <path id="path292" class="cls-1" d="M18.52,274.92c4.2,.52,7.12,2.26,7.12,4.25,0,1.99-2.92,3.73-7.12,4.25"/>
  <path id="path296" class="cls-1" d="M18.26,283.43v4.57"/>
  <path id="path300" class="cls-1" d="M18.26,260.54v-4.54"/>
  <line class="cls-2" x1="18.26" y1="256" y2="256"/>
  <line class="cls-2" x1="18.26" y1="288" x2=".01" y2="288"/>
  <path id="path304" class="cls-3" d="M5,262c0,1.66,1.34,3,3,3s3-1.34,3-3c0-1.66-1.34-3-3-3-1.66,0-3,1.34-3,3"/>
  <path id="path276-2" data-name="path276" class="cls-1" d="M45.41,29.05c-4.16-.52-7.05-2.26-7.05-4.25s2.89-3.73,7.05-4.25"/>
  <path id="path280-2" data-name="path280" class="cls-1" d="M45.34,29.02c.13,0,.28,.01,.41,.01,1.3,0,2.36-.29,2.36-.66,0-.36-1.06-.66-2.36-.66-.13,0-.28,.01-.41,.01"/>
  <path id="path284-2" data-name="path284" class="cls-1" d="M45.34,36.21c.13,0,.28,.01,.41,.01,1.3,0,2.36-.29,2.36-.66,0-.36-1.06-.66-2.36-.66-.13,0-.28,.01-.41,.01"/>
  <path id="path288-2" data-name="path288" class="cls-1" d="M45.41,36.24c-4.16-.52-7.05-2.26-7.05-4.25s2.89-3.75,7.05-4.25"/>
  <path id="path292-2" data-name="path292" class="cls-1" d="M45.41,43.43c-4.16-.52-7.05-2.26-7.05-4.25s2.89-3.73,7.05-4.25"/>
  <path id="path296-2" data-name="path296" class="cls-1" d="M45.67,48v-4.57"/>
  <path id="path300-2" data-name="path300" class="cls-1" d="M45.67,16v4.54"/>
  <line class="cls-2" x1="45.67" y1="16" x2="63.99" y2="16"/>
  <line class="cls-2" x1="45.67" y1="48" x2="63.98" y2="48"/>
  <path id="path276-3" data-name="path276" class="cls-1" d="M45.41,125.05c-4.16-.52-7.05-2.26-7.05-4.25s2.89-3.73,7.05-4.25"/>
  <path id="path280-3" data-name="path280" class="cls-1" d="M45.34,125.02c.13,0,.28,.01,.41,.01,1.3,0,2.36-.29,2.36-.66,0-.36-1.06-.66-2.36-.66-.13,0-.28,.01-.41,.01"/>
  <path id="path284-3" data-name="path284" class="cls-1" d="M45.34,132.21c.13,0,.28,.01,.41,.01,1.3,0,2.36-.29,2.36-.66,0-.36-1.06-.66-2.36-.66-.13,0-.28,.01-.41,.01"/>
  <path id="path288-3" data-name="path288" class="cls-1" d="M45.41,132.24c-4.16-.52-7.05-2.26-7.05-4.25s2.89-3.75,7.05-4.25"/>
  <path id="path292-3" data-name="path292" class="cls-1" d="M45.41,139.43c-4.16-.52-7.05-2.26-7.05-4.25s2.89-3.73,7.05-4.25"/>
  <path id="path296-3" data-name="path296" class="cls-1" d="M45.67,144v-4.57"/>
  <path id="path300-3" data-name="path300" class="cls-1" d="M45.67,112v4.54"/>
  <line class="cls-2" x1="45.67" y1="112" x2="63.99" y2="112"/>
  <line class="cls-2" x1="45.67" y1="144" x2="63.98" y2="144"/>
  <path id="path276-4" data-name="path276" class="cls-1" d="M45.39,221.05c-4.16-.52-7.05-2.26-7.05-4.25s2.89-3.73,7.05-4.25"/>
  <path id="path280-4" data-name="path280" class="cls-1" d="M45.33,221.02c.13,0,.28,.01,.41,.01,1.3,0,2.36-.29,2.36-.66,0-.36-1.06-.66-2.36-.66-.13,0-.28,.01-.41,.01"/>
  <path id="path284-4" data-name="path284" class="cls-1" d="M45.33,228.21c.13,0,.28,.01,.41,.01,1.3,0,2.36-.29,2.36-.66,0-.36-1.06-.66-2.36-.66-.13,0-.28,.01-.41,.01"/>
  <path id="path288-4" data-name="path288" class="cls-1" d="M45.39,228.24c-4.16-.52-7.05-2.26-7.05-4.25s2.89-3.75,7.05-4.25"/>
  <path id="path292-4" data-name="path292" class="cls-1" d="M45.39,235.43c-4.16-.52-7.05-2.26-7.05-4.25s2.89-3.73,7.05-4.25"/>
  <path id="path296-4" data-name="path296" class="cls-1" d="M45.65,240v-4.57"/>
  <path id="path300-4" data-name="path300" class="cls-1" d="M45.65,208v4.54"/>
  <line class="cls-2" x1="45.65" y1="208" x2="63.98" y2="208"/>
  <line class="cls-2" x1="45.65" y1="240" x2="63.97" y2="240"/>
  <path id="path304-2" data-name="path304" class="cls-3" d="M53,22c0,1.66,1.34,3,3,3s3-1.34,3-3c0-1.66-1.34-3-3-3-1.66,0-3,1.34-3,3"/>
  <path id="path304-3" data-name="path304" class="cls-3" d="M53,118c0,1.66,1.34,3,3,3s3-1.34,3-3c0-1.66-1.34-3-3-3-1.66,0-3,1.34-3,3"/>
  <path id="path304-4" data-name="path304" class="cls-3" d="M52.99,214c0,1.66,1.34,3,3,3s3-1.34,3-3c0-1.66-1.34-3-3-3-1.66,0-3,1.34-3,3"/>
  <path id="path276-5" data-name="path276" class="cls-1" d="M45.38,317.05c-4.16-.52-7.05-2.26-7.05-4.25s2.89-3.73,7.05-4.25"/>
  <path id="path280-5" data-name="path280" class="cls-1" d="M45.31,317.02c.13,0,.28,.01,.41,.01,1.3,0,2.36-.29,2.36-.66,0-.36-1.06-.66-2.36-.66-.13,0-.28,.01-.41,.01"/>
  <path id="path284-5" data-name="path284" class="cls-1" d="M45.31,324.21c.13,0,.28,.01,.41,.01,1.3,0,2.36-.29,2.36-.66,0-.36-1.06-.66-2.36-.66-.13,0-.28,.01-.41,.01"/>
  <path id="path288-5" data-name="path288" class="cls-1" d="M45.38,324.24c-4.16-.52-7.05-2.26-7.05-4.25s2.89-3.75,7.05-4.25"/>
  <path id="path292-5" data-name="path292" class="cls-1" d="M45.38,331.43c-4.16-.52-7.05-2.26-7.05-4.25s2.89-3.73,7.05-4.25"/>
  <path id="path296-5" data-name="path296" class="cls-1" d="M45.64,336v-4.57"/>
  <path id="path300-5" data-name="path300" class="cls-1" d="M45.64,304v4.54"/>
  <line class="cls-2" x1="45.64" y1="304" x2="63.97" y2="304"/>
  <line class="cls-2" x1="45.64" y1="336" x2="63.95" y2="336"/>
  <path id="path304-5" data-name="path304" class="cls-3" d="M52.97,310c0,1.66,1.34,3,3,3s3-1.34,3-3c0-1.66-1.34-3-3-3-1.66,0-3,1.34-3,3"/>
  <path id="path276-6" data-name="path276" class="cls-1" d="M45.37,413.05c-4.16-.52-7.05-2.26-7.05-4.25s2.89-3.73,7.05-4.25"/>
  <path id="path280-6" data-name="path280" class="cls-1" d="M45.3,413.02c.13,0,.28,.01,.41,.01,1.3,0,2.36-.29,2.36-.66,0-.36-1.06-.66-2.36-.66-.13,0-.28,.01-.41,.01"/>
  <path id="path284-6" data-name="path284" class="cls-1" d="M45.3,420.21c.13,0,.28,.01,.41,.01,1.3,0,2.36-.29,2.36-.66,0-.36-1.06-.66-2.36-.66-.13,0-.28,.01-.41,.01"/>
  <path id="path288-6" data-name="path288" class="cls-1" d="M45.37,420.24c-4.16-.52-7.05-2.26-7.05-4.25s2.89-3.75,7.05-4.25"/>
  <path id="path292-6" data-name="path292" class="cls-1" d="M45.37,427.43c-4.16-.52-7.05-2.26-7.05-4.25s2.89-3.73,7.05-4.25"/>
  <path id="path296-6" data-name="path296" class="cls-1" d="M45.63,432v-4.57"/>
  <path id="path300-6" data-name="path300" class="cls-1" d="M45.63,400v4.54"/>
  <line class="cls-2" x1="45.63" y1="400" x2="63.95" y2="400"/>
  <line class="cls-2" x1="45.63" y1="432" x2="63.94" y2="432"/>
  <path id="path304-6" data-name="path304" class="cls-3" d="M52.96,406c0,1.66,1.34,3,3,3s3-1.34,3-3c0-1.66-1.34-3-3-3-1.66,0-3,1.34-3,3"/>
  <path id="path276-7" data-name="path276" class="cls-1" d="M45.35,493.05c-4.16-.52-7.05-2.26-7.05-4.25s2.89-3.73,7.05-4.25"/>
  <path id="path280-7" data-name="path280" class="cls-1" d="M45.29,493.02c.13,0,.28,.01,.41,.01,1.3,0,2.36-.29,2.36-.66,0-.36-1.06-.66-2.36-.66-.13,0-.28,.01-.41,.01"/>
  <path id="path284-7" data-name="path284" class="cls-1" d="M45.29,500.21c.13,0,.28,.01,.41,.01,1.3,0,2.36-.29,2.36-.66,0-.36-1.06-.66-2.36-.66-.13,0-.28,.01-.41,.01"/>
  <path id="path288-7" data-name="path288" class="cls-1" d="M45.35,500.24c-4.16-.52-7.05-2.26-7.05-4.25s2.89-3.75,7.05-4.25"/>
  <path id="path292-7" data-name="path292" class="cls-1" d="M45.35,507.43c-4.16-.52-7.05-2.26-7.05-4.25s2.89-3.73,7.05-4.25"/>
  <path id="path296-7" data-name="path296" class="cls-1" d="M45.61,512v-4.57"/>
  <path id="path300-7" data-name="path300" class="cls-1" d="M45.61,480v4.54"/>
  <line class="cls-2" x1="45.61" y1="480" x2="63.94" y2="480"/>
  <line class="cls-2" x1="45.61" y1="512" x2="63.93" y2="512"/>
  <path id="path304-7" data-name="path304" class="cls-3" d="M52.95,486c0,1.66,1.34,3,3,3s3-1.34,3-3c0-1.66-1.34-3-3-3-1.66,0-3,1.34-3,3"/>
</svg>