<?xml version="1.0" encoding="UTF-8"?>
<svg id="svg256" xmlns="http://www.w3.org/2000/svg" width="64" height="160" viewBox="0 0 64 160">
  <defs>
    <style>
      .cls-1 {
        stroke-miterlimit: 10;
      }

      .cls-1, .cls-2 {
        fill: none;
        stroke: #000;
        stroke-linecap: round;
      }

      .cls-3 {
        fill: blue;
      }

      .cls-2 {
        stroke-linejoin: round;
      }
    </style>
  </defs>
  <line class="cls-1" x1="30.15" y1="20.54" x2="30.15" y2="139.43"/>
  <line class="cls-1" x1="34.36" y1="20.54" x2="34.36" y2="139.43"/>
  <path id="path276" class="cls-1" d="M45.41,29.05c-4.16-.52-7.05-2.26-7.05-4.25s2.89-3.73,7.05-4.25"/>
  <path id="path280" class="cls-1" d="M45.34,29.02c.13,0,.28,.01,.41,.01,1.3,0,2.36-.29,2.36-.66,0-.36-1.06-.66-2.36-.66-.13,0-.28,.01-.41,.01"/>
  <path id="path284" class="cls-1" d="M45.34,36.21c.13,0,.28,.01,.41,.01,1.3,0,2.36-.29,2.36-.66,0-.36-1.06-.66-2.36-.66-.13,0-.28,.01-.41,.01"/>
  <path id="path288" class="cls-1" d="M45.41,36.24c-4.16-.52-7.05-2.26-7.05-4.25s2.89-3.75,7.05-4.25"/>
  <path id="path292" class="cls-1" d="M45.41,43.43c-4.16-.52-7.05-2.26-7.05-4.25s2.89-3.73,7.05-4.25"/>
  <path id="path296" class="cls-1" d="M45.67,48v-4.57"/>
  <path id="path300" class="cls-1" d="M45.67,16v4.54"/>
  <line class="cls-2" x1="45.67" y1="16" x2="63.99" y2="16"/>
  <line class="cls-2" x1="45.67" y1="48" x2="63.98" y2="48"/>
  <path id="path276-2" data-name="path276" class="cls-1" d="M18.52,68.54c4.2,.52,7.12,2.26,7.12,4.25s-2.92,3.73-7.12,4.25"/>
  <path id="path280-2" data-name="path280" class="cls-1" d="M18.58,75.73c-.13,0-.28-.01-.41-.01-1.31,0-2.38,.3-2.38,.66s1.07,.66,2.38,.66c.13,0,.28-.01,.41-.01"/>
  <path id="path284-2" data-name="path284" class="cls-1" d="M18.58,82.92c-.13,0-.28-.01-.41-.01-1.31,0-2.38,.3-2.38,.66s1.07,.66,2.38,.66c.13,0,.28-.01,.41-.01"/>
  <path id="path288-2" data-name="path288" class="cls-1" d="M18.52,75.73c4.2,.51,7.12,2.26,7.12,4.25,0,1.99-2.92,3.73-7.12,4.25"/>
  <path id="path292-2" data-name="path292" class="cls-1" d="M18.52,82.92c4.2,.52,7.12,2.26,7.12,4.25,0,1.99-2.92,3.73-7.12,4.25"/>
  <path id="path296-2" data-name="path296" class="cls-1" d="M18.26,91.43v4.57"/>
  <path id="path300-2" data-name="path300" class="cls-1" d="M18.26,68.54v-4.54"/>
  <line class="cls-2" x1="18.26" y1="64" y2="64"/>
  <line class="cls-2" x1="18.26" y1="96" x2=".01" y2="96"/>
  <path id="path276-3" data-name="path276" class="cls-1" d="M45.41,125.05c-4.16-.52-7.05-2.26-7.05-4.25s2.89-3.73,7.05-4.25"/>
  <path id="path280-3" data-name="path280" class="cls-1" d="M45.34,125.02c.13,0,.28,.01,.41,.01,1.3,0,2.36-.29,2.36-.66,0-.36-1.06-.66-2.36-.66-.13,0-.28,.01-.41,.01"/>
  <path id="path284-3" data-name="path284" class="cls-1" d="M45.34,132.21c.13,0,.28,.01,.41,.01,1.3,0,2.36-.29,2.36-.66,0-.36-1.06-.66-2.36-.66-.13,0-.28,.01-.41,.01"/>
  <path id="path288-3" data-name="path288" class="cls-1" d="M45.41,132.24c-4.16-.52-7.05-2.26-7.05-4.25s2.89-3.75,7.05-4.25"/>
  <path id="path292-3" data-name="path292" class="cls-1" d="M45.41,139.43c-4.16-.52-7.05-2.26-7.05-4.25s2.89-3.73,7.05-4.25"/>
  <path id="path296-3" data-name="path296" class="cls-1" d="M45.67,144v-4.57"/>
  <path id="path300-3" data-name="path300" class="cls-1" d="M45.67,112v4.54"/>
  <line class="cls-2" x1="45.67" y1="112" x2="63.99" y2="112"/>
  <line class="cls-2" x1="45.67" y1="144" x2="63.98" y2="144"/>
  <path id="path304" class="cls-3" d="M53,22c0,1.66,1.34,3,3,3s3-1.34,3-3c0-1.66-1.34-3-3-3-1.66,0-3,1.34-3,3"/>
  <path id="path304-2" data-name="path304" class="cls-3" d="M53,118c0,1.66,1.34,3,3,3s3-1.34,3-3c0-1.66-1.34-3-3-3-1.66,0-3,1.34-3,3"/>
  <path id="path304-3" data-name="path304" class="cls-3" d="M5,70c0,1.66,1.34,3,3,3s3-1.34,3-3c0-1.66-1.34-3-3-3-1.66,0-3,1.34-3,3"/>
</svg>