<?xml version="1.0" encoding="UTF-8" standalone="no"?>
<!-- Generator: Adobe Illustrator 19.0.0, SVG Export Plug-In . SVG Version: 6.00 Build 0)  -->

<svg
   xmlns:dc="http://purl.org/dc/elements/1.1/"
   xmlns:cc="http://creativecommons.org/ns#"
   xmlns:rdf="http://www.w3.org/1999/02/22-rdf-syntax-ns#"
   xmlns:svg="http://www.w3.org/2000/svg"
   xmlns="http://www.w3.org/2000/svg"
   xmlns:sodipodi="http://sodipodi.sourceforge.net/DTD/sodipodi-0.dtd"
   xmlns:inkscape="http://www.inkscape.org/namespaces/inkscape"
   version="1.1"
   id="svg256"
   inkscape:version="0.92.4 (5da689c313, 2019-01-14)"
   sodipodi:docname="t_2p10w.svg"
   x="0px"
   y="0px"
   viewBox="-281 357.5 64 576"
   xml:space="preserve"
   width="64"
   height="576"><metadata
   id="metadata272"><rdf:RDF><cc:Work
       rdf:about=""><dc:format>image/svg+xml</dc:format><dc:type
         rdf:resource="http://purl.org/dc/dcmitype/StillImage" /></cc:Work></rdf:RDF></metadata><defs
   id="defs270" />
<style
   type="text/css"
   id="style2">
	.st0{fill:none;stroke:#000000;stroke-linecap:round;stroke-miterlimit:10;}
	.st1{stroke:#000000;stroke-linecap:round;stroke-miterlimit:10;}
	.st2{fill:none;stroke:#000000;stroke-linecap:round;stroke-linejoin:round;stroke-miterlimit:22.926;}
</style>
<sodipodi:namedview
   inkscape:cy="17.153471"
   inkscape:cx="11.948193"
   inkscape:zoom="6.82"
   showgrid="true"
   guidetolerance="10"
   gridtolerance="10"
   objecttolerance="10"
   borderopacity="1"
   bordercolor="#666666"
   id="namedview258"
   pagecolor="#ffffff"
   inkscape:current-layer="svg256"
   inkscape:window-maximized="1"
   inkscape:window-y="-8"
   inkscape:window-x="1358"
   inkscape:snap-page="true"
   inkscape:bbox-nodes="false"
   inkscape:snap-global="true"
   inkscape:snap-bbox-midpoints="false"
   inkscape:bbox-paths="false"
   inkscape:snap-bbox="true"
   inkscape:window-height="1017"
   inkscape:pageshadow="2"
   inkscape:window-width="1920"
   inkscape:pageopacity="0">
	</sodipodi:namedview>
<g
   id="g29">
	<g
   id="g19">
		<g
   id="g274_2_"
   transform="translate(36.5867,32.3413)">
			<path
   id="path276_2_"
   inkscape:connector-curvature="0"
   class="st0"
   d="m -272.2,354.2 c -4.2,-0.5 -7.1,-2.3 -7.1,-4.3 0,-2 2.9,-3.7 7.1,-4.3"
   style="fill:none;stroke:#000000;stroke-linecap:round;stroke-miterlimit:10" />
		</g>
		<g
   id="g278_2_"
   transform="translate(36.6293,32.4267)">
			<path
   id="path280_2_"
   inkscape:connector-curvature="0"
   class="st0"
   d="m -272.3,354.1 c 0.1,0 0.3,0 0.4,0 1.3,0 2.4,-0.3 2.4,-0.7 0,-0.4 -1.1,-0.7 -2.4,-0.7 -0.1,0 -0.3,0 -0.4,0"
   style="fill:none;stroke:#000000;stroke-linecap:round;stroke-miterlimit:10" />
		</g>
		<g
   id="g282_2_"
   transform="translate(25.4507,32.4267)">
			<path
   id="path284_2_"
   inkscape:connector-curvature="0"
   class="st0"
   d="m -261.1,361.3 c 0.1,0 0.3,0 0.4,0 1.3,0 2.4,-0.3 2.4,-0.7 0,-0.4 -1.1,-0.7 -2.4,-0.7 -0.1,0 -0.3,0 -0.4,0"
   style="fill:none;stroke:#000000;stroke-linecap:round;stroke-miterlimit:10" />
		</g>
		<g
   id="g286_2_"
   transform="translate(25.408,32.3413)">
			<path
   id="path288_2_"
   inkscape:connector-curvature="0"
   class="st0"
   d="m -261,361.4 c -4.2,-0.5 -7.1,-2.3 -7.1,-4.3 0,-2 2.9,-3.7 7.1,-4.3"
   style="fill:none;stroke:#000000;stroke-linecap:round;stroke-miterlimit:10" />
		</g>
		<g
   id="g290_2_"
   transform="translate(14.2293,32.3413)">
			<path
   id="path292_2_"
   inkscape:connector-curvature="0"
   class="st0"
   d="m -249.8,368.6 c -4.2,-0.5 -7.1,-2.3 -7.1,-4.3 0,-2 2.9,-3.7 7.1,-4.3"
   style="fill:none;stroke:#000000;stroke-linecap:round;stroke-miterlimit:10" />
		</g>
		<g
   id="g294_2_"
   transform="translate(0,32)">
			<path
   id="path296_2_"
   inkscape:connector-curvature="0"
   class="st0"
   d="m -235.3,373.5 v -4.6"
   style="fill:none;stroke:#000000;stroke-linecap:round;stroke-miterlimit:10" />
		</g>
		<g
   id="g298_2_"
   transform="translate(64,32)">
			<path
   id="path300_2_"
   inkscape:connector-curvature="0"
   class="st0"
   d="M -299.3,341.5 V 346"
   style="fill:none;stroke:#000000;stroke-linecap:round;stroke-miterlimit:10" />
		</g>
	</g>
	<g
   id="g302_2_"
   transform="translate(53.7173,40.5333)">
		<path
   id="path304_2_"
   inkscape:connector-curvature="0"
   class="st1"
   d="m -292.8,335 c 0,-0.4 0.4,-0.7 0.8,-0.7 0.4,0 0.8,0.3 0.8,0.7 0,0.4 -0.4,0.7 -0.8,0.7 -0.4,0 -0.8,-0.3 -0.8,-0.7"
   style="stroke:#000000;stroke-linecap:round;stroke-miterlimit:10" />
	</g>
	<g
   id="g306_2_"
   transform="translate(53.7173,40.5333)">
		<path
   id="path308_2_"
   inkscape:connector-curvature="0"
   class="st0"
   d="m -292.8,335 c 0,-0.4 0.4,-0.7 0.8,-0.7 0.4,0 0.8,0.3 0.8,0.7 0,0.4 -0.4,0.7 -0.8,0.7 -0.4,0 -0.8,-0.3 -0.8,-0.7 z"
   style="fill:none;stroke:#000000;stroke-linecap:round;stroke-miterlimit:10" />
	</g>
	<line
   class="st2"
   x1="-235.3"
   y1="373.5"
   x2="-217"
   y2="373.5"
   id="line25"
   style="fill:none;stroke:#000000;stroke-linecap:round;stroke-linejoin:round;stroke-miterlimit:22.9260006" />
	<line
   class="st2"
   x1="-235.3"
   y1="405.5"
   x2="-217"
   y2="405.5"
   id="line27"
   style="fill:none;stroke:#000000;stroke-linecap:round;stroke-linejoin:round;stroke-miterlimit:22.9260006" />
</g>
<line
   class="st0"
   x1="-250.89999"
   y1="378"
   x2="-250.89999"
   y2="912.90002"
   id="line31"
   style="fill:none;stroke:#000000;stroke-linecap:round;stroke-miterlimit:10" />
<line
   class="st0"
   x1="-246.60001"
   y1="378"
   x2="-246.60001"
   y2="912.90002"
   id="line33"
   style="fill:none;stroke:#000000;stroke-linecap:round;stroke-miterlimit:10" />
<g
   id="g59">
	<g
   id="g49">
		<g
   id="g274_3_"
   transform="translate(36.5867,32.3413)">
			<path
   id="path276_3_"
   inkscape:connector-curvature="0"
   class="st0"
   d="m -272.2,418.2 c -4.2,-0.5 -7.1,-2.3 -7.1,-4.3 0,-2 2.9,-3.7 7.1,-4.3"
   style="fill:none;stroke:#000000;stroke-linecap:round;stroke-miterlimit:10" />
		</g>
		<g
   id="g278_3_"
   transform="translate(36.6293,32.4267)">
			<path
   id="path280_3_"
   inkscape:connector-curvature="0"
   class="st0"
   d="m -272.3,418.1 c 0.1,0 0.3,0 0.4,0 1.3,0 2.4,-0.3 2.4,-0.7 0,-0.4 -1.1,-0.7 -2.4,-0.7 -0.1,0 -0.3,0 -0.4,0"
   style="fill:none;stroke:#000000;stroke-linecap:round;stroke-miterlimit:10" />
		</g>
		<g
   id="g282_3_"
   transform="translate(25.4507,32.4267)">
			<path
   id="path284_3_"
   inkscape:connector-curvature="0"
   class="st0"
   d="m -261.1,425.3 c 0.1,0 0.3,0 0.4,0 1.3,0 2.4,-0.3 2.4,-0.7 0,-0.4 -1.1,-0.7 -2.4,-0.7 -0.1,0 -0.3,0 -0.4,0"
   style="fill:none;stroke:#000000;stroke-linecap:round;stroke-miterlimit:10" />
		</g>
		<g
   id="g286_3_"
   transform="translate(25.408,32.3413)">
			<path
   id="path288_3_"
   inkscape:connector-curvature="0"
   class="st0"
   d="m -261,425.4 c -4.2,-0.5 -7.1,-2.3 -7.1,-4.3 0,-2 2.9,-3.7 7.1,-4.3"
   style="fill:none;stroke:#000000;stroke-linecap:round;stroke-miterlimit:10" />
		</g>
		<g
   id="g290_3_"
   transform="translate(14.2293,32.3413)">
			<path
   id="path292_3_"
   inkscape:connector-curvature="0"
   class="st0"
   d="m -249.8,432.6 c -4.2,-0.5 -7.1,-2.3 -7.1,-4.3 0,-2 2.9,-3.7 7.1,-4.3"
   style="fill:none;stroke:#000000;stroke-linecap:round;stroke-miterlimit:10" />
		</g>
		<g
   id="g294_3_"
   transform="translate(0,32)">
			<path
   id="path296_3_"
   inkscape:connector-curvature="0"
   class="st0"
   d="m -235.3,437.5 v -4.6"
   style="fill:none;stroke:#000000;stroke-linecap:round;stroke-miterlimit:10" />
		</g>
		<g
   id="g298_3_"
   transform="translate(64,32)">
			<path
   id="path300_3_"
   inkscape:connector-curvature="0"
   class="st0"
   d="M -299.3,405.5 V 410"
   style="fill:none;stroke:#000000;stroke-linecap:round;stroke-miterlimit:10" />
		</g>
	</g>
	<g
   id="g302_3_"
   transform="translate(53.7173,40.5333)">
		<path
   id="path304_3_"
   inkscape:connector-curvature="0"
   class="st1"
   d="m -292.8,399 c 0,-0.4 0.4,-0.7 0.8,-0.7 0.4,0 0.8,0.3 0.8,0.7 0,0.4 -0.4,0.7 -0.8,0.7 -0.4,0 -0.8,-0.3 -0.8,-0.7"
   style="stroke:#000000;stroke-linecap:round;stroke-miterlimit:10" />
	</g>
	<g
   id="g306_3_"
   transform="translate(53.7173,40.5333)">
		<path
   id="path308_3_"
   inkscape:connector-curvature="0"
   class="st0"
   d="m -292.8,399 c 0,-0.4 0.4,-0.7 0.8,-0.7 0.4,0 0.8,0.3 0.8,0.7 0,0.4 -0.4,0.7 -0.8,0.7 -0.4,0 -0.8,-0.3 -0.8,-0.7 z"
   style="fill:none;stroke:#000000;stroke-linecap:round;stroke-miterlimit:10" />
	</g>
	<line
   class="st2"
   x1="-235.3"
   y1="437.5"
   x2="-217"
   y2="437.5"
   id="line55"
   style="fill:none;stroke:#000000;stroke-linecap:round;stroke-linejoin:round;stroke-miterlimit:22.9260006" />
	<line
   class="st2"
   x1="-235.3"
   y1="469.5"
   x2="-217"
   y2="469.5"
   id="line57"
   style="fill:none;stroke:#000000;stroke-linecap:round;stroke-linejoin:round;stroke-miterlimit:22.9260006" />
</g>
<g
   id="g85">
	<g
   id="g75">
		<g
   id="g274_5_"
   transform="translate(36.5867,32.3413)">
			<path
   id="path276_5_"
   inkscape:connector-curvature="0"
   class="st0"
   d="m -272.2,482.2 c -4.2,-0.5 -7.1,-2.3 -7.1,-4.3 0,-2 2.9,-3.7 7.1,-4.3"
   style="fill:none;stroke:#000000;stroke-linecap:round;stroke-miterlimit:10" />
		</g>
		<g
   id="g278_5_"
   transform="translate(36.6293,32.4267)">
			<path
   id="path280_5_"
   inkscape:connector-curvature="0"
   class="st0"
   d="m -272.3,482.1 c 0.1,0 0.3,0 0.4,0 1.3,0 2.4,-0.3 2.4,-0.7 0,-0.4 -1.1,-0.7 -2.4,-0.7 -0.1,0 -0.3,0 -0.4,0"
   style="fill:none;stroke:#000000;stroke-linecap:round;stroke-miterlimit:10" />
		</g>
		<g
   id="g282_5_"
   transform="translate(25.4507,32.4267)">
			<path
   id="path284_5_"
   inkscape:connector-curvature="0"
   class="st0"
   d="m -261.1,489.3 c 0.1,0 0.3,0 0.4,0 1.3,0 2.4,-0.3 2.4,-0.7 0,-0.4 -1.1,-0.7 -2.4,-0.7 -0.1,0 -0.3,0 -0.4,0"
   style="fill:none;stroke:#000000;stroke-linecap:round;stroke-miterlimit:10" />
		</g>
		<g
   id="g286_5_"
   transform="translate(25.408,32.3413)">
			<path
   id="path288_5_"
   inkscape:connector-curvature="0"
   class="st0"
   d="m -261,489.4 c -4.2,-0.5 -7.1,-2.3 -7.1,-4.3 0,-2 2.9,-3.7 7.1,-4.3"
   style="fill:none;stroke:#000000;stroke-linecap:round;stroke-miterlimit:10" />
		</g>
		<g
   id="g290_5_"
   transform="translate(14.2293,32.3413)">
			<path
   id="path292_5_"
   inkscape:connector-curvature="0"
   class="st0"
   d="m -249.8,496.6 c -4.2,-0.5 -7.1,-2.3 -7.1,-4.3 0,-2 2.9,-3.7 7.1,-4.3"
   style="fill:none;stroke:#000000;stroke-linecap:round;stroke-miterlimit:10" />
		</g>
		<g
   id="g294_5_"
   transform="translate(0,32)">
			<path
   id="path296_5_"
   inkscape:connector-curvature="0"
   class="st0"
   d="m -235.3,501.5 v -4.6"
   style="fill:none;stroke:#000000;stroke-linecap:round;stroke-miterlimit:10" />
		</g>
		<g
   id="g298_5_"
   transform="translate(64,32)">
			<path
   id="path300_5_"
   inkscape:connector-curvature="0"
   class="st0"
   d="M -299.3,469.5 V 474"
   style="fill:none;stroke:#000000;stroke-linecap:round;stroke-miterlimit:10" />
		</g>
	</g>
	<g
   id="g302_5_"
   transform="translate(53.7173,40.5333)">
		<path
   id="path304_5_"
   inkscape:connector-curvature="0"
   class="st1"
   d="m -292.8,463 c 0,-0.4 0.4,-0.7 0.8,-0.7 0.4,0 0.8,0.3 0.8,0.7 0,0.4 -0.4,0.7 -0.8,0.7 -0.4,0 -0.8,-0.3 -0.8,-0.7"
   style="stroke:#000000;stroke-linecap:round;stroke-miterlimit:10" />
	</g>
	<g
   id="g306_5_"
   transform="translate(53.7173,40.5333)">
		<path
   id="path308_5_"
   inkscape:connector-curvature="0"
   class="st0"
   d="m -292.8,463 c 0,-0.4 0.4,-0.7 0.8,-0.7 0.4,0 0.8,0.3 0.8,0.7 0,0.4 -0.4,0.7 -0.8,0.7 -0.4,0 -0.8,-0.3 -0.8,-0.7 z"
   style="fill:none;stroke:#000000;stroke-linecap:round;stroke-miterlimit:10" />
	</g>
	<line
   class="st2"
   x1="-235.3"
   y1="501.5"
   x2="-217"
   y2="501.5"
   id="line81"
   style="fill:none;stroke:#000000;stroke-linecap:round;stroke-linejoin:round;stroke-miterlimit:22.9260006" />
	<line
   class="st2"
   x1="-235.3"
   y1="533.5"
   x2="-217"
   y2="533.5"
   id="line83"
   style="fill:none;stroke:#000000;stroke-linecap:round;stroke-linejoin:round;stroke-miterlimit:22.9260006" />
</g>
<g
   id="g111">
	<g
   id="g101">
		<g
   id="g274_7_"
   transform="translate(36.5867,32.3413)">
			<path
   id="path276_7_"
   inkscape:connector-curvature="0"
   class="st0"
   d="m -272.2,546.2 c -4.2,-0.5 -7.1,-2.3 -7.1,-4.3 0,-2 2.9,-3.7 7.1,-4.3"
   style="fill:none;stroke:#000000;stroke-linecap:round;stroke-miterlimit:10" />
		</g>
		<g
   id="g278_7_"
   transform="translate(36.6293,32.4267)">
			<path
   id="path280_7_"
   inkscape:connector-curvature="0"
   class="st0"
   d="m -272.3,546.1 c 0.1,0 0.3,0 0.4,0 1.3,0 2.4,-0.3 2.4,-0.7 0,-0.4 -1.1,-0.7 -2.4,-0.7 -0.1,0 -0.3,0 -0.4,0"
   style="fill:none;stroke:#000000;stroke-linecap:round;stroke-miterlimit:10" />
		</g>
		<g
   id="g282_7_"
   transform="translate(25.4507,32.4267)">
			<path
   id="path284_7_"
   inkscape:connector-curvature="0"
   class="st0"
   d="m -261.1,553.3 c 0.1,0 0.3,0 0.4,0 1.3,0 2.4,-0.3 2.4,-0.7 0,-0.4 -1.1,-0.7 -2.4,-0.7 -0.1,0 -0.3,0 -0.4,0"
   style="fill:none;stroke:#000000;stroke-linecap:round;stroke-miterlimit:10" />
		</g>
		<g
   id="g286_7_"
   transform="translate(25.408,32.3413)">
			<path
   id="path288_7_"
   inkscape:connector-curvature="0"
   class="st0"
   d="m -261,553.4 c -4.2,-0.5 -7.1,-2.3 -7.1,-4.3 0,-2 2.9,-3.7 7.1,-4.3"
   style="fill:none;stroke:#000000;stroke-linecap:round;stroke-miterlimit:10" />
		</g>
		<g
   id="g290_7_"
   transform="translate(14.2293,32.3413)">
			<path
   id="path292_7_"
   inkscape:connector-curvature="0"
   class="st0"
   d="m -249.8,560.6 c -4.2,-0.5 -7.1,-2.3 -7.1,-4.3 0,-2 2.9,-3.7 7.1,-4.3"
   style="fill:none;stroke:#000000;stroke-linecap:round;stroke-miterlimit:10" />
		</g>
		<g
   id="g294_7_"
   transform="translate(0,32)">
			<path
   id="path296_7_"
   inkscape:connector-curvature="0"
   class="st0"
   d="m -235.3,565.5 v -4.6"
   style="fill:none;stroke:#000000;stroke-linecap:round;stroke-miterlimit:10" />
		</g>
		<g
   id="g298_7_"
   transform="translate(64,32)">
			<path
   id="path300_7_"
   inkscape:connector-curvature="0"
   class="st0"
   d="M -299.3,533.5 V 538"
   style="fill:none;stroke:#000000;stroke-linecap:round;stroke-miterlimit:10" />
		</g>
	</g>
	<g
   id="g302_7_"
   transform="translate(53.7173,40.5333)">
		<path
   id="path304_7_"
   inkscape:connector-curvature="0"
   class="st1"
   d="m -292.8,527 c 0,-0.4 0.4,-0.7 0.8,-0.7 0.4,0 0.8,0.3 0.8,0.7 0,0.4 -0.4,0.7 -0.8,0.7 -0.4,0 -0.8,-0.3 -0.8,-0.7"
   style="stroke:#000000;stroke-linecap:round;stroke-miterlimit:10" />
	</g>
	<g
   id="g306_7_"
   transform="translate(53.7173,40.5333)">
		<path
   id="path308_7_"
   inkscape:connector-curvature="0"
   class="st0"
   d="m -292.8,527 c 0,-0.4 0.4,-0.7 0.8,-0.7 0.4,0 0.8,0.3 0.8,0.7 0,0.4 -0.4,0.7 -0.8,0.7 -0.4,0 -0.8,-0.3 -0.8,-0.7 z"
   style="fill:none;stroke:#000000;stroke-linecap:round;stroke-miterlimit:10" />
	</g>
	<line
   class="st2"
   x1="-235.3"
   y1="565.5"
   x2="-217"
   y2="565.5"
   id="line107"
   style="fill:none;stroke:#000000;stroke-linecap:round;stroke-linejoin:round;stroke-miterlimit:22.9260006" />
	<line
   class="st2"
   x1="-235.3"
   y1="597.5"
   x2="-217"
   y2="597.5"
   id="line109"
   style="fill:none;stroke:#000000;stroke-linecap:round;stroke-linejoin:round;stroke-miterlimit:22.9260006" />
</g>
<g
   id="g137">
	<g
   id="g127">
		<g
   id="g274_9_"
   transform="translate(36.5867,32.3413)">
			<path
   id="path276_9_"
   inkscape:connector-curvature="0"
   class="st0"
   d="m -272.2,610.2 c -4.2,-0.5 -7.1,-2.3 -7.1,-4.3 0,-2 2.9,-3.7 7.1,-4.3"
   style="fill:none;stroke:#000000;stroke-linecap:round;stroke-miterlimit:10" />
		</g>
		<g
   id="g278_9_"
   transform="translate(36.6293,32.4267)">
			<path
   id="path280_9_"
   inkscape:connector-curvature="0"
   class="st0"
   d="m -272.3,610.1 c 0.1,0 0.3,0 0.4,0 1.3,0 2.4,-0.3 2.4,-0.7 0,-0.4 -1.1,-0.7 -2.4,-0.7 -0.1,0 -0.3,0 -0.4,0"
   style="fill:none;stroke:#000000;stroke-linecap:round;stroke-miterlimit:10" />
		</g>
		<g
   id="g282_9_"
   transform="translate(25.4507,32.4267)">
			<path
   id="path284_9_"
   inkscape:connector-curvature="0"
   class="st0"
   d="m -261.1,617.3 c 0.1,0 0.3,0 0.4,0 1.3,0 2.4,-0.3 2.4,-0.7 0,-0.4 -1.1,-0.7 -2.4,-0.7 -0.1,0 -0.3,0 -0.4,0"
   style="fill:none;stroke:#000000;stroke-linecap:round;stroke-miterlimit:10" />
		</g>
		<g
   id="g286_9_"
   transform="translate(25.408,32.3413)">
			<path
   id="path288_9_"
   inkscape:connector-curvature="0"
   class="st0"
   d="m -261,617.4 c -4.2,-0.5 -7.1,-2.3 -7.1,-4.3 0,-2 2.9,-3.7 7.1,-4.3"
   style="fill:none;stroke:#000000;stroke-linecap:round;stroke-miterlimit:10" />
		</g>
		<g
   id="g290_9_"
   transform="translate(14.2293,32.3413)">
			<path
   id="path292_9_"
   inkscape:connector-curvature="0"
   class="st0"
   d="m -249.8,624.6 c -4.2,-0.5 -7.1,-2.3 -7.1,-4.3 0,-2 2.9,-3.7 7.1,-4.3"
   style="fill:none;stroke:#000000;stroke-linecap:round;stroke-miterlimit:10" />
		</g>
		<g
   id="g294_9_"
   transform="translate(0,32)">
			<path
   id="path296_9_"
   inkscape:connector-curvature="0"
   class="st0"
   d="m -235.3,629.5 v -4.6"
   style="fill:none;stroke:#000000;stroke-linecap:round;stroke-miterlimit:10" />
		</g>
		<g
   id="g298_9_"
   transform="translate(64,32)">
			<path
   id="path300_9_"
   inkscape:connector-curvature="0"
   class="st0"
   d="M -299.3,597.5 V 602"
   style="fill:none;stroke:#000000;stroke-linecap:round;stroke-miterlimit:10" />
		</g>
	</g>
	<g
   id="g302_9_"
   transform="translate(53.7173,40.5333)">
		<path
   id="path304_9_"
   inkscape:connector-curvature="0"
   class="st1"
   d="m -292.8,591 c 0,-0.4 0.4,-0.7 0.8,-0.7 0.4,0 0.8,0.3 0.8,0.7 0,0.4 -0.4,0.7 -0.8,0.7 -0.4,0 -0.8,-0.3 -0.8,-0.7"
   style="stroke:#000000;stroke-linecap:round;stroke-miterlimit:10" />
	</g>
	<g
   id="g306_9_"
   transform="translate(53.7173,40.5333)">
		<path
   id="path308_9_"
   inkscape:connector-curvature="0"
   class="st0"
   d="m -292.8,591 c 0,-0.4 0.4,-0.7 0.8,-0.7 0.4,0 0.8,0.3 0.8,0.7 0,0.4 -0.4,0.7 -0.8,0.7 -0.4,0 -0.8,-0.3 -0.8,-0.7 z"
   style="fill:none;stroke:#000000;stroke-linecap:round;stroke-miterlimit:10" />
	</g>
	<line
   class="st2"
   x1="-235.3"
   y1="629.5"
   x2="-217"
   y2="629.5"
   id="line133"
   style="fill:none;stroke:#000000;stroke-linecap:round;stroke-linejoin:round;stroke-miterlimit:22.9260006" />
	<line
   class="st2"
   x1="-235.3"
   y1="661.5"
   x2="-217"
   y2="661.5"
   id="line135"
   style="fill:none;stroke:#000000;stroke-linecap:round;stroke-linejoin:round;stroke-miterlimit:22.9260006" />
</g>
<g
   id="g163">
	<g
   id="g153">
		<g
   id="g274_12_"
   transform="translate(36.5867,32.3413)">
			<path
   id="path276_12_"
   inkscape:connector-curvature="0"
   class="st0"
   d="m -299.1,601.7 c 4.2,0.5 7.1,2.3 7.1,4.3 0,2 -2.9,3.7 -7.1,4.3"
   style="fill:none;stroke:#000000;stroke-linecap:round;stroke-miterlimit:10" />
		</g>
		<g
   id="g278_12_"
   transform="translate(36.6293,32.4267)">
			<path
   id="path280_12_"
   inkscape:connector-curvature="0"
   class="st0"
   d="m -299.1,608.8 c -0.1,0 -0.3,0 -0.4,0 -1.3,0 -2.4,0.3 -2.4,0.7 0,0.4 1.1,0.7 2.4,0.7 0.1,0 0.3,0 0.4,0"
   style="fill:none;stroke:#000000;stroke-linecap:round;stroke-miterlimit:10" />
		</g>
		<g
   id="g282_12_"
   transform="translate(25.4507,32.4267)">
			<path
   id="path284_12_"
   inkscape:connector-curvature="0"
   class="st0"
   d="m -287.9,616 c -0.1,0 -0.3,0 -0.4,0 -1.3,0 -2.4,0.3 -2.4,0.7 0,0.4 1.1,0.7 2.4,0.7 0.1,0 0.3,0 0.4,0"
   style="fill:none;stroke:#000000;stroke-linecap:round;stroke-miterlimit:10" />
		</g>
		<g
   id="g286_12_"
   transform="translate(25.408,32.3413)">
			<path
   id="path288_12_"
   inkscape:connector-curvature="0"
   class="st0"
   d="m -287.9,608.9 c 4.2,0.5 7.1,2.3 7.1,4.3 0,2 -2.9,3.7 -7.1,4.3"
   style="fill:none;stroke:#000000;stroke-linecap:round;stroke-miterlimit:10" />
		</g>
		<g
   id="g290_12_"
   transform="translate(14.2293,32.3413)">
			<path
   id="path292_12_"
   inkscape:connector-curvature="0"
   class="st0"
   d="m -276.7,616.1 c 4.2,0.5 7.1,2.3 7.1,4.3 0,2 -2.9,3.7 -7.1,4.3"
   style="fill:none;stroke:#000000;stroke-linecap:round;stroke-miterlimit:10" />
		</g>
		<g
   id="g294_12_"
   transform="translate(0,32)">
			<path
   id="path296_12_"
   inkscape:connector-curvature="0"
   class="st0"
   d="m -262.8,624.9 v 4.6"
   style="fill:none;stroke:#000000;stroke-linecap:round;stroke-miterlimit:10" />
		</g>
		<g
   id="g298_12_"
   transform="translate(64,32)">
			<path
   id="path300_12_"
   inkscape:connector-curvature="0"
   class="st0"
   d="m -326.8,602 v -4.5"
   style="fill:none;stroke:#000000;stroke-linecap:round;stroke-miterlimit:10" />
		</g>
	</g>
	<g
   id="g302_12_"
   transform="translate(53.7173,40.5333)">
		<path
   id="path304_12_"
   inkscape:connector-curvature="0"
   class="st1"
   d="m -312.6,591 c 0,0.4 -0.4,0.7 -0.8,0.7 -0.5,0 -0.8,-0.3 -0.8,-0.7 0,-0.4 0.4,-0.7 0.8,-0.7 0.4,0 0.8,0.3 0.8,0.7"
   style="stroke:#000000;stroke-linecap:round;stroke-miterlimit:10" />
	</g>
	<g
   id="g306_12_"
   transform="translate(53.7173,40.5333)">
		<path
   id="path308_12_"
   inkscape:connector-curvature="0"
   class="st0"
   d="m -313.5,591.7 c -0.5,0 -0.8,-0.3 -0.8,-0.7 0,-0.4 0.4,-0.7 0.8,-0.7 0.5,0 0.8,0.3 0.8,0.7 0,0.4 -0.3,0.7 -0.8,0.7 z"
   style="fill:none;stroke:#000000;stroke-linecap:round;stroke-miterlimit:10" />
	</g>
	<line
   class="st2"
   x1="-262.79999"
   y1="629.5"
   x2="-281"
   y2="629.5"
   id="line159"
   style="fill:none;stroke:#000000;stroke-linecap:round;stroke-linejoin:round;stroke-miterlimit:22.9260006" />
	<line
   class="st2"
   x1="-262.79999"
   y1="661.5"
   x2="-281"
   y2="661.5"
   id="line161"
   style="fill:none;stroke:#000000;stroke-linecap:round;stroke-linejoin:round;stroke-miterlimit:22.9260006" />
</g>
<g
   id="g189">
	<g
   id="g179">
		<g
   id="g274_11_"
   transform="translate(36.5867,32.3413)">
			<path
   id="path276_11_"
   inkscape:connector-curvature="0"
   class="st0"
   d="m -272.2,674.2 c -4.2,-0.5 -7.1,-2.3 -7.1,-4.3 0,-2 2.9,-3.7 7.1,-4.3"
   style="fill:none;stroke:#000000;stroke-linecap:round;stroke-miterlimit:10" />
		</g>
		<g
   id="g278_11_"
   transform="translate(36.6293,32.4267)">
			<path
   id="path280_11_"
   inkscape:connector-curvature="0"
   class="st0"
   d="m -272.3,674.1 c 0.1,0 0.3,0 0.4,0 1.3,0 2.4,-0.3 2.4,-0.7 0,-0.4 -1.1,-0.7 -2.4,-0.7 -0.1,0 -0.3,0 -0.4,0"
   style="fill:none;stroke:#000000;stroke-linecap:round;stroke-miterlimit:10" />
		</g>
		<g
   id="g282_11_"
   transform="translate(25.4507,32.4267)">
			<path
   id="path284_11_"
   inkscape:connector-curvature="0"
   class="st0"
   d="m -261.1,681.3 c 0.1,0 0.3,0 0.4,0 1.3,0 2.4,-0.3 2.4,-0.7 0,-0.4 -1.1,-0.7 -2.4,-0.7 -0.1,0 -0.3,0 -0.4,0"
   style="fill:none;stroke:#000000;stroke-linecap:round;stroke-miterlimit:10" />
		</g>
		<g
   id="g286_11_"
   transform="translate(25.408,32.3413)">
			<path
   id="path288_11_"
   inkscape:connector-curvature="0"
   class="st0"
   d="m -261,681.4 c -4.2,-0.5 -7.1,-2.3 -7.1,-4.3 0,-2 2.9,-3.7 7.1,-4.3"
   style="fill:none;stroke:#000000;stroke-linecap:round;stroke-miterlimit:10" />
		</g>
		<g
   id="g290_11_"
   transform="translate(14.2293,32.3413)">
			<path
   id="path292_11_"
   inkscape:connector-curvature="0"
   class="st0"
   d="m -249.8,688.6 c -4.2,-0.5 -7.1,-2.3 -7.1,-4.3 0,-2 2.9,-3.7 7.1,-4.3"
   style="fill:none;stroke:#000000;stroke-linecap:round;stroke-miterlimit:10" />
		</g>
		<g
   id="g294_11_"
   transform="translate(0,32)">
			<path
   id="path296_11_"
   inkscape:connector-curvature="0"
   class="st0"
   d="m -235.3,693.5 v -4.6"
   style="fill:none;stroke:#000000;stroke-linecap:round;stroke-miterlimit:10" />
		</g>
		<g
   id="g298_11_"
   transform="translate(64,32)">
			<path
   id="path300_11_"
   inkscape:connector-curvature="0"
   class="st0"
   d="M -299.3,661.5 V 666"
   style="fill:none;stroke:#000000;stroke-linecap:round;stroke-miterlimit:10" />
		</g>
	</g>
	<g
   id="g302_11_"
   transform="translate(53.7173,40.5333)">
		<path
   id="path304_11_"
   inkscape:connector-curvature="0"
   class="st1"
   d="m -292.8,655 c 0,-0.4 0.4,-0.7 0.8,-0.7 0.4,0 0.8,0.3 0.8,0.7 0,0.4 -0.4,0.7 -0.8,0.7 -0.4,0 -0.8,-0.3 -0.8,-0.7"
   style="stroke:#000000;stroke-linecap:round;stroke-miterlimit:10" />
	</g>
	<g
   id="g306_11_"
   transform="translate(53.7173,40.5333)">
		<path
   id="path308_11_"
   inkscape:connector-curvature="0"
   class="st0"
   d="m -292.8,655 c 0,-0.4 0.4,-0.7 0.8,-0.7 0.4,0 0.8,0.3 0.8,0.7 0,0.4 -0.4,0.7 -0.8,0.7 -0.4,0 -0.8,-0.3 -0.8,-0.7 z"
   style="fill:none;stroke:#000000;stroke-linecap:round;stroke-miterlimit:10" />
	</g>
	<line
   class="st2"
   x1="-235.3"
   y1="693.5"
   x2="-217"
   y2="693.5"
   id="line185"
   style="fill:none;stroke:#000000;stroke-linecap:round;stroke-linejoin:round;stroke-miterlimit:22.9260006" />
	<line
   class="st2"
   x1="-235.3"
   y1="725.5"
   x2="-217"
   y2="725.5"
   id="line187"
   style="fill:none;stroke:#000000;stroke-linecap:round;stroke-linejoin:round;stroke-miterlimit:22.9260006" />
</g>
<g
   id="g215">
	<g
   id="g205">
		<g
   id="g274_13_"
   transform="translate(36.5867,32.3413)">
			<path
   id="path276_13_"
   inkscape:connector-curvature="0"
   class="st0"
   d="m -272.2,738.2 c -4.2,-0.5 -7.1,-2.3 -7.1,-4.3 0,-2 2.9,-3.7 7.1,-4.3"
   style="fill:none;stroke:#000000;stroke-linecap:round;stroke-miterlimit:10" />
		</g>
		<g
   id="g278_13_"
   transform="translate(36.6293,32.4267)">
			<path
   id="path280_13_"
   inkscape:connector-curvature="0"
   class="st0"
   d="m -272.3,738.1 c 0.1,0 0.3,0 0.4,0 1.3,0 2.4,-0.3 2.4,-0.7 0,-0.4 -1.1,-0.7 -2.4,-0.7 -0.1,0 -0.3,0 -0.4,0"
   style="fill:none;stroke:#000000;stroke-linecap:round;stroke-miterlimit:10" />
		</g>
		<g
   id="g282_13_"
   transform="translate(25.4507,32.4267)">
			<path
   id="path284_13_"
   inkscape:connector-curvature="0"
   class="st0"
   d="m -261.1,745.3 c 0.1,0 0.3,0 0.4,0 1.3,0 2.4,-0.3 2.4,-0.7 0,-0.4 -1.1,-0.7 -2.4,-0.7 -0.1,0 -0.3,0 -0.4,0"
   style="fill:none;stroke:#000000;stroke-linecap:round;stroke-miterlimit:10" />
		</g>
		<g
   id="g286_13_"
   transform="translate(25.408,32.3413)">
			<path
   id="path288_13_"
   inkscape:connector-curvature="0"
   class="st0"
   d="m -261,745.4 c -4.2,-0.5 -7.1,-2.3 -7.1,-4.3 0,-2 2.9,-3.7 7.1,-4.3"
   style="fill:none;stroke:#000000;stroke-linecap:round;stroke-miterlimit:10" />
		</g>
		<g
   id="g290_13_"
   transform="translate(14.2293,32.3413)">
			<path
   id="path292_13_"
   inkscape:connector-curvature="0"
   class="st0"
   d="m -249.8,752.6 c -4.2,-0.5 -7.1,-2.3 -7.1,-4.3 0,-2 2.9,-3.7 7.1,-4.3"
   style="fill:none;stroke:#000000;stroke-linecap:round;stroke-miterlimit:10" />
		</g>
		<g
   id="g294_13_"
   transform="translate(0,32)">
			<path
   id="path296_13_"
   inkscape:connector-curvature="0"
   class="st0"
   d="m -235.3,757.5 v -4.6"
   style="fill:none;stroke:#000000;stroke-linecap:round;stroke-miterlimit:10" />
		</g>
		<g
   id="g298_13_"
   transform="translate(64,32)">
			<path
   id="path300_13_"
   inkscape:connector-curvature="0"
   class="st0"
   d="M -299.3,725.5 V 730"
   style="fill:none;stroke:#000000;stroke-linecap:round;stroke-miterlimit:10" />
		</g>
	</g>
	<g
   id="g302_13_"
   transform="translate(53.7173,40.5333)">
		<path
   id="path304_13_"
   inkscape:connector-curvature="0"
   class="st1"
   d="m -292.8,719 c 0,-0.4 0.4,-0.7 0.8,-0.7 0.4,0 0.8,0.3 0.8,0.7 0,0.4 -0.4,0.7 -0.8,0.7 -0.4,0 -0.8,-0.3 -0.8,-0.7"
   style="stroke:#000000;stroke-linecap:round;stroke-miterlimit:10" />
	</g>
	<g
   id="g306_13_"
   transform="translate(53.7173,40.5333)">
		<path
   id="path308_13_"
   inkscape:connector-curvature="0"
   class="st0"
   d="m -292.8,719 c 0,-0.4 0.4,-0.7 0.8,-0.7 0.4,0 0.8,0.3 0.8,0.7 0,0.4 -0.4,0.7 -0.8,0.7 -0.4,0 -0.8,-0.3 -0.8,-0.7 z"
   style="fill:none;stroke:#000000;stroke-linecap:round;stroke-miterlimit:10" />
	</g>
	<line
   class="st2"
   x1="-235.3"
   y1="757.5"
   x2="-217"
   y2="757.5"
   id="line211"
   style="fill:none;stroke:#000000;stroke-linecap:round;stroke-linejoin:round;stroke-miterlimit:22.9260006" />
	<line
   class="st2"
   x1="-235.3"
   y1="789.5"
   x2="-217"
   y2="789.5"
   id="line213"
   style="fill:none;stroke:#000000;stroke-linecap:round;stroke-linejoin:round;stroke-miterlimit:22.9260006" />
</g>
<g
   id="g241">
	<g
   id="g231">
		<g
   id="g274_15_"
   transform="translate(36.5867,32.3413)">
			<path
   id="path276_15_"
   inkscape:connector-curvature="0"
   class="st0"
   d="m -272.2,802.2 c -4.2,-0.5 -7.1,-2.3 -7.1,-4.3 0,-2 2.9,-3.7 7.1,-4.3"
   style="fill:none;stroke:#000000;stroke-linecap:round;stroke-miterlimit:10" />
		</g>
		<g
   id="g278_15_"
   transform="translate(36.6293,32.4267)">
			<path
   id="path280_15_"
   inkscape:connector-curvature="0"
   class="st0"
   d="m -272.3,802.1 c 0.1,0 0.3,0 0.4,0 1.3,0 2.4,-0.3 2.4,-0.7 0,-0.4 -1.1,-0.7 -2.4,-0.7 -0.1,0 -0.3,0 -0.4,0"
   style="fill:none;stroke:#000000;stroke-linecap:round;stroke-miterlimit:10" />
		</g>
		<g
   id="g282_15_"
   transform="translate(25.4507,32.4267)">
			<path
   id="path284_15_"
   inkscape:connector-curvature="0"
   class="st0"
   d="m -261.1,809.3 c 0.1,0 0.3,0 0.4,0 1.3,0 2.4,-0.3 2.4,-0.7 0,-0.4 -1.1,-0.7 -2.4,-0.7 -0.1,0 -0.3,0 -0.4,0"
   style="fill:none;stroke:#000000;stroke-linecap:round;stroke-miterlimit:10" />
		</g>
		<g
   id="g286_15_"
   transform="translate(25.408,32.3413)">
			<path
   id="path288_15_"
   inkscape:connector-curvature="0"
   class="st0"
   d="m -261,809.4 c -4.2,-0.5 -7.1,-2.3 -7.1,-4.3 0,-2 2.9,-3.7 7.1,-4.3"
   style="fill:none;stroke:#000000;stroke-linecap:round;stroke-miterlimit:10" />
		</g>
		<g
   id="g290_15_"
   transform="translate(14.2293,32.3413)">
			<path
   id="path292_15_"
   inkscape:connector-curvature="0"
   class="st0"
   d="m -249.8,816.6 c -4.2,-0.5 -7.1,-2.3 -7.1,-4.3 0,-2 2.9,-3.7 7.1,-4.3"
   style="fill:none;stroke:#000000;stroke-linecap:round;stroke-miterlimit:10" />
		</g>
		<g
   id="g294_15_"
   transform="translate(0,32)">
			<path
   id="path296_15_"
   inkscape:connector-curvature="0"
   class="st0"
   d="m -235.3,821.5 v -4.6"
   style="fill:none;stroke:#000000;stroke-linecap:round;stroke-miterlimit:10" />
		</g>
		<g
   id="g298_15_"
   transform="translate(64,32)">
			<path
   id="path300_15_"
   inkscape:connector-curvature="0"
   class="st0"
   d="M -299.3,789.5 V 794"
   style="fill:none;stroke:#000000;stroke-linecap:round;stroke-miterlimit:10" />
		</g>
	</g>
	<g
   id="g302_15_"
   transform="translate(53.7173,40.5333)">
		<path
   id="path304_15_"
   inkscape:connector-curvature="0"
   class="st1"
   d="m -292.8,783 c 0,-0.4 0.4,-0.7 0.8,-0.7 0.4,0 0.8,0.3 0.8,0.7 0,0.4 -0.4,0.7 -0.8,0.7 -0.4,0 -0.8,-0.3 -0.8,-0.7"
   style="stroke:#000000;stroke-linecap:round;stroke-miterlimit:10" />
	</g>
	<g
   id="g306_15_"
   transform="translate(53.7173,40.5333)">
		<path
   id="path308_15_"
   inkscape:connector-curvature="0"
   class="st0"
   d="m -292.8,783 c 0,-0.4 0.4,-0.7 0.8,-0.7 0.4,0 0.8,0.3 0.8,0.7 0,0.4 -0.4,0.7 -0.8,0.7 -0.4,0 -0.8,-0.3 -0.8,-0.7 z"
   style="fill:none;stroke:#000000;stroke-linecap:round;stroke-miterlimit:10" />
	</g>
	<line
   class="st2"
   x1="-235.3"
   y1="821.5"
   x2="-217"
   y2="821.5"
   id="line237"
   style="fill:none;stroke:#000000;stroke-linecap:round;stroke-linejoin:round;stroke-miterlimit:22.9260006" />
	<line
   class="st2"
   x1="-235.3"
   y1="853.5"
   x2="-217"
   y2="853.5"
   id="line239"
   style="fill:none;stroke:#000000;stroke-linecap:round;stroke-linejoin:round;stroke-miterlimit:22.9260006" />
</g>
<g
   id="g267">
	<g
   id="g257">
		<g
   id="g274_17_"
   transform="translate(36.5867,32.3413)">
			<path
   id="path276_17_"
   inkscape:connector-curvature="0"
   class="st0"
   d="m -272.2,866.2 c -4.2,-0.5 -7.1,-2.3 -7.1,-4.3 0,-2 2.9,-3.7 7.1,-4.3"
   style="fill:none;stroke:#000000;stroke-linecap:round;stroke-miterlimit:10" />
		</g>
		<g
   id="g278_17_"
   transform="translate(36.6293,32.4267)">
			<path
   id="path280_17_"
   inkscape:connector-curvature="0"
   class="st0"
   d="m -272.3,866.1 c 0.1,0 0.3,0 0.4,0 1.3,0 2.4,-0.3 2.4,-0.7 0,-0.4 -1.1,-0.7 -2.4,-0.7 -0.1,0 -0.3,0 -0.4,0"
   style="fill:none;stroke:#000000;stroke-linecap:round;stroke-miterlimit:10" />
		</g>
		<g
   id="g282_17_"
   transform="translate(25.4507,32.4267)">
			<path
   id="path284_17_"
   inkscape:connector-curvature="0"
   class="st0"
   d="m -261.1,873.3 c 0.1,0 0.3,0 0.4,0 1.3,0 2.4,-0.3 2.4,-0.7 0,-0.4 -1.1,-0.7 -2.4,-0.7 -0.1,0 -0.3,0 -0.4,0"
   style="fill:none;stroke:#000000;stroke-linecap:round;stroke-miterlimit:10" />
		</g>
		<g
   id="g286_17_"
   transform="translate(25.408,32.3413)">
			<path
   id="path288_17_"
   inkscape:connector-curvature="0"
   class="st0"
   d="m -261,873.4 c -4.2,-0.5 -7.1,-2.3 -7.1,-4.3 0,-2 2.9,-3.7 7.1,-4.3"
   style="fill:none;stroke:#000000;stroke-linecap:round;stroke-miterlimit:10" />
		</g>
		<g
   id="g290_17_"
   transform="translate(14.2293,32.3413)">
			<path
   id="path292_17_"
   inkscape:connector-curvature="0"
   class="st0"
   d="m -249.8,880.6 c -4.2,-0.5 -7.1,-2.3 -7.1,-4.3 0,-2 2.9,-3.7 7.1,-4.3"
   style="fill:none;stroke:#000000;stroke-linecap:round;stroke-miterlimit:10" />
		</g>
		<g
   id="g294_17_"
   transform="translate(0,32)">
			<path
   id="path296_17_"
   inkscape:connector-curvature="0"
   class="st0"
   d="m -235.3,885.5 v -4.6"
   style="fill:none;stroke:#000000;stroke-linecap:round;stroke-miterlimit:10" />
		</g>
		<g
   id="g298_17_"
   transform="translate(64,32)">
			<path
   id="path300_17_"
   inkscape:connector-curvature="0"
   class="st0"
   d="M -299.3,853.5 V 858"
   style="fill:none;stroke:#000000;stroke-linecap:round;stroke-miterlimit:10" />
		</g>
	</g>
	<g
   id="g302_17_"
   transform="translate(53.7173,40.5333)">
		<path
   id="path304_17_"
   inkscape:connector-curvature="0"
   class="st1"
   d="m -292.8,847 c 0,-0.4 0.4,-0.7 0.8,-0.7 0.4,0 0.8,0.3 0.8,0.7 0,0.4 -0.4,0.7 -0.8,0.7 -0.4,0 -0.8,-0.3 -0.8,-0.7"
   style="stroke:#000000;stroke-linecap:round;stroke-miterlimit:10" />
	</g>
	<g
   id="g306_17_"
   transform="translate(53.7173,40.5333)">
		<path
   id="path308_17_"
   inkscape:connector-curvature="0"
   class="st0"
   d="m -292.8,847 c 0,-0.4 0.4,-0.7 0.8,-0.7 0.4,0 0.8,0.3 0.8,0.7 0,0.4 -0.4,0.7 -0.8,0.7 -0.4,0 -0.8,-0.3 -0.8,-0.7 z"
   style="fill:none;stroke:#000000;stroke-linecap:round;stroke-miterlimit:10" />
	</g>
	<line
   class="st2"
   x1="-235.3"
   y1="885.5"
   x2="-217"
   y2="885.5"
   id="line263"
   style="fill:none;stroke:#000000;stroke-linecap:round;stroke-linejoin:round;stroke-miterlimit:22.9260006" />
	<line
   class="st2"
   x1="-235.3"
   y1="917.5"
   x2="-217"
   y2="917.5"
   id="line265"
   style="fill:none;stroke:#000000;stroke-linecap:round;stroke-linejoin:round;stroke-miterlimit:22.9260006" />
</g>
</svg>