<?xml version="1.0" encoding="UTF-8" standalone="no"?>
<svg
   id="svg256"
   width="64"
   height="90"
   viewBox="0 0 64 90"
   version="1.1"
   sodipodi:docname="t_2p3w_sld.svg"
   inkscape:version="1.1.1 (3bf5ae0d25, 2021-09-20)"
   xmlns:inkscape="http://www.inkscape.org/namespaces/inkscape"
   xmlns:sodipodi="http://sodipodi.sourceforge.net/DTD/sodipodi-0.dtd"
   xmlns="http://www.w3.org/2000/svg"
   xmlns:svg="http://www.w3.org/2000/svg">
  <sodipodi:namedview
     id="namedview12976"
     pagecolor="#ffffff"
     bordercolor="#666666"
     borderopacity="1.0"
     inkscape:pageshadow="2"
     inkscape:pageopacity="0.0"
     inkscape:pagecheckerboard="0"
     showgrid="false"
     inkscape:zoom="18.978261"
     inkscape:cx="26.056128"
     inkscape:cy="41.969072"
     inkscape:window-width="2560"
     inkscape:window-height="1377"
     inkscape:window-x="1912"
     inkscape:window-y="-8"
     inkscape:window-maximized="1"
     inkscape:current-layer="svg256" />
  <defs
     id="defs12858">
    <style
       id="style12856">
      .cls-1 {
        stroke-miterlimit: 10;
      }

      .cls-1, .cls-2 {
        fill: none;
        stroke: #000;
        stroke-linecap: round;
      }

      .cls-3 {
        fill: blue;
      }

      .cls-2 {
        stroke-linejoin: round;
      }
    </style>
  </defs>
  <path
     id="path276"
     class="cls-1"
     d="m 18.52,36.775626 c 4.2,0.52 7.12,2.26 7.12,4.25 0,1.99 -2.92,3.73 -7.12,4.25" />
  <path
     id="path280"
     class="cls-1"
     d="m 18.58,43.965626 c -0.13,0 -0.28,-0.01 -0.41,-0.01 -1.31,0 -2.38,0.3 -2.38,0.66 0,0.36 1.07,0.66 2.38,0.66 0.13,0 0.28,-0.01 0.41,-0.01" />
  <path
     id="path292"
     class="cls-1"
     d="m 18.52,43.945976 c 4.2,0.52 7.12,2.26 7.12,4.25 0,1.99 -2.92,3.73001 -7.12,4.25001" />
  <path
     id="path296"
     class="cls-1"
     d="m 18.26,52.455986 v 4.57" />
  <path
     id="path300"
     class="cls-1"
     d="m 18.26,36.775626 v -4.54" />
  <path
     id="path276-2-2"
     data-name="path276"
     class="cls-1"
     d="m 45.311327,29.062225 c -4.16,-0.52 -7.05,-2.26 -7.05,-4.25 0,-1.99 2.89,-3.73 7.05,-4.25"
     style="fill:none;stroke:#000000;stroke-linecap:round;stroke-miterlimit:10" />
  <path
     id="path280-2-8"
     data-name="path280"
     class="cls-1"
     d="m 45.251327,29.032225 c 0.13,0 0.28,0.01 0.41,0.01 1.3,0 2.36,-0.29 2.36,-0.66 0,-0.36 -1.06,-0.66 -2.36,-0.66 -0.13,0 -0.28,0.01 -0.41,0.01"
     style="fill:none;stroke:#000000;stroke-linecap:round;stroke-miterlimit:10" />
  <path
     id="path292-2-5"
     data-name="path292"
     class="cls-1"
     d="m 45.311327,36.216569 c -4.16,-0.52 -7.05,-2.26 -7.05,-4.249999 0,-1.99 2.89,-3.729995 7.05,-4.249995"
     style="fill:none;stroke:#000000;stroke-linecap:round;stroke-miterlimit:10" />
  <path
     id="path296-2-80"
     data-name="path296"
     class="cls-1"
     d="m 45.571327,40.786569 v -4.57"
     style="fill:none;stroke:#000000;stroke-linecap:round;stroke-miterlimit:10" />
  <path
     id="path300-2-45"
     data-name="path300"
     class="cls-1"
     d="m 45.571327,16.012225 v 4.54"
     style="fill:none;stroke:#000000;stroke-linecap:round;stroke-miterlimit:10" />
  <line
     class="cls-2"
     x1="47.834259"
     y1="28.369612"
     x2="63.90136"
     y2="28.369612"
     id="line10369"
     style="fill:none;stroke:#000000;stroke-width:1;stroke-linecap:round;stroke-linejoin:round;stroke-miterlimit:4;stroke-dasharray:none" />
  <path
     id="path276-2-4"
     data-name="path276"
     class="cls-1"
     d="m 45.311327,61.29657 c -4.16,-0.519999 -7.05,-2.26 -7.05,-4.25 0,-1.989999 2.89,-3.73 7.05,-4.250001"
     style="fill:none;stroke:#000000;stroke-linecap:round;stroke-miterlimit:10" />
  <path
     id="path280-2-7"
     data-name="path280"
     class="cls-1"
     d="m 45.251327,61.26657 c 0.13,0 0.28,0.01 0.41,0.01 1.3,0 2.36,-0.29 2.36,-0.660001 0,-0.36 -1.06,-0.659999 -2.36,-0.659999 -0.13,0 -0.28,0.01 -0.41,0.01"
     style="fill:none;stroke:#000000;stroke-linecap:round;stroke-miterlimit:10" />
  <path
     id="path292-2-0"
     data-name="path292"
     class="cls-1"
     d="m 45.311327,68.450916 c -4.16,-0.52 -7.05,-2.26 -7.05,-4.25 0,-1.99 2.89,-3.730001 7.05,-4.25"
     style="fill:none;stroke:#000000;stroke-linecap:round;stroke-miterlimit:10" />
  <path
     id="path296-2-1"
     data-name="path296"
     class="cls-1"
     d="m 45.571327,73.020915 v -4.57"
     style="fill:none;stroke:#000000;stroke-linecap:round;stroke-miterlimit:10" />
  <path
     id="path300-2-6"
     data-name="path300"
     class="cls-1"
     d="m 45.571327,48.246569 v 4.54"
     style="fill:none;stroke:#000000;stroke-linecap:round;stroke-miterlimit:10" />
  <line
     class="cls-2"
     x1="47.834259"
     y1="60.603958"
     x2="63.901344"
     y2="60.603958"
     id="line10369-2"
     style="fill:none;stroke:#000000;stroke-width:1;stroke-linecap:round;stroke-linejoin:round;stroke-miterlimit:4;stroke-dasharray:none" />
  <path
     id="path304-2"
     data-name="path304"
     class="cls-3"
     d="m 38.655312,17.437109 c 0,0.959038 0.774163,1.733201 1.733202,1.733201 0.959038,0 1.733201,-0.774163 1.733201,-1.733201 0,-0.959039 -0.774163,-1.733202 -1.733201,-1.733202 -0.959039,0 -1.733202,0.774163 -1.733202,1.733202"
     style="fill:#0000ff;stroke-width:0.577734;stroke-miterlimit:9;stroke-dasharray:none" />
  <path
     id="path304-2-0"
     data-name="path304"
     class="cls-3"
     d="m 38.655312,49.437109 c 0,0.959038 0.774163,1.733201 1.733202,1.733201 0.959038,0 1.733201,-0.774163 1.733201,-1.733201 0,-0.959039 -0.774163,-1.733202 -1.733201,-1.733202 -0.959039,0 -1.733202,0.774163 -1.733202,1.733202"
     style="fill:#0000ff;stroke-width:0.577734;stroke-miterlimit:9;stroke-dasharray:none" />
  <path
     id="path304-2-5"
     data-name="path304"
     class="cls-3"
     d="m 21.590795,33.226893 c 0,0.95904 0.774163,1.7332 1.733202,1.7332 0.959038,0 1.733201,-0.77416 1.733201,-1.7332 0,-0.95904 -0.774163,-1.7332 -1.733201,-1.7332 -0.959039,0 -1.733202,0.77416 -1.733202,1.7332"
     style="fill:#0000ff;stroke-width:0.577734;stroke-miterlimit:9;stroke-dasharray:none" />
  <path
     style="fill:none;stroke:#000000;stroke-width:1px;stroke-linecap:round;stroke-linejoin:miter;stroke-opacity:1"
     d="M 34.038946,19.337915 V 69.395189"
     id="path1890" />
  <path
     style="fill:none;stroke:#000000;stroke-width:1px;stroke-linecap:round;stroke-linejoin:miter;stroke-opacity:1"
     d="M 29.92898,19.337915 V 69.395189"
     id="path1890-1" />
  <path
     style="fill:none;stroke:#000000;stroke-width:1px;stroke-linecap:round;stroke-linejoin:miter;stroke-opacity:1"
     d="M 15.912944,44.577319 H 0.3161512"
     id="path2220" />
</svg>
