<?xml version="1.0" encoding="UTF-8"?>
<svg id="svg256" xmlns="http://www.w3.org/2000/svg" width="64" height="832" viewBox="0 0 64 832">
  <defs>
    <style>
      .cls-1 {
        stroke-miterlimit: 10;
      }

      .cls-1, .cls-2 {
        fill: none;
        stroke: #000;
        stroke-linecap: round;
      }

      .cls-3 {
        fill: blue;
      }

      .cls-2 {
        stroke-linejoin: round;
      }
    </style>
  </defs>
  <path id="path276" class="cls-1" d="M18.52,404.54c4.2,.52,7.12,2.26,7.12,4.25s-2.92,3.73-7.12,4.25"/>
  <path id="path280" class="cls-1" d="M18.58,411.73c-.13,0-.28-.01-.41-.01-1.31,0-2.38,.3-2.38,.66s1.07,.66,2.38,.66c.13,0,.28-.01,.41-.01"/>
  <path id="path284" class="cls-1" d="M18.58,418.92c-.13,0-.28-.01-.41-.01-1.31,0-2.38,.3-2.38,.66s1.07,.66,2.38,.66c.13,0,.28-.01,.41-.01"/>
  <path id="path288" class="cls-1" d="M18.52,411.73c4.2,.51,7.12,2.26,7.12,4.25,0,1.99-2.92,3.73-7.12,4.25"/>
  <path id="path292" class="cls-1" d="M18.52,418.92c4.2,.52,7.12,2.26,7.12,4.25,0,1.99-2.92,3.73-7.12,4.25"/>
  <path id="path296" class="cls-1" d="M18.26,427.43v4.57"/>
  <path id="path300" class="cls-1" d="M18.26,404.54v-4.54"/>
  <line class="cls-2" x1="18.26" y1="400" y2="400"/>
  <line class="cls-2" x1="18.26" y1="432" x2=".01" y2="432"/>
  <path id="path304" class="cls-3" d="M5,406c0,1.66,1.34,3,3,3s3-1.34,3-3c0-1.66-1.34-3-3-3-1.66,0-3,1.34-3,3"/>
  <line class="cls-1" x1="30.15" y1="20.54" x2="30.15" y2="813.43"/>
  <line class="cls-1" x1="34.36" y1="20.54" x2="34.36" y2="813.43"/>
  <path id="path276-2" data-name="path276" class="cls-1" d="M45.39,29.05c-4.16-.52-7.05-2.26-7.05-4.25s2.89-3.73,7.05-4.25"/>
  <path id="path280-2" data-name="path280" class="cls-1" d="M45.33,29.02c.13,0,.28,.01,.41,.01,1.3,0,2.36-.29,2.36-.66,0-.36-1.06-.66-2.36-.66-.13,0-.28,.01-.41,.01"/>
  <path id="path284-2" data-name="path284" class="cls-1" d="M45.33,36.21c.13,0,.28,.01,.41,.01,1.3,0,2.36-.29,2.36-.66,0-.36-1.06-.66-2.36-.66-.13,0-.28,.01-.41,.01"/>
  <path id="path288-2" data-name="path288" class="cls-1" d="M45.39,36.24c-4.16-.52-7.05-2.26-7.05-4.25s2.89-3.75,7.05-4.25"/>
  <path id="path292-2" data-name="path292" class="cls-1" d="M45.39,43.43c-4.16-.52-7.05-2.26-7.05-4.25s2.89-3.73,7.05-4.25"/>
  <path id="path296-2" data-name="path296" class="cls-1" d="M45.65,48v-4.57"/>
  <path id="path300-2" data-name="path300" class="cls-1" d="M45.65,16v4.54"/>
  <line class="cls-2" x1="45.65" y1="16" x2="63.98" y2="16"/>
  <line class="cls-2" x1="45.65" y1="48" x2="63.97" y2="48"/>
  <path id="path276-3" data-name="path276" class="cls-1" d="M45.39,125.05c-4.16-.52-7.05-2.26-7.05-4.25s2.89-3.73,7.05-4.25"/>
  <path id="path280-3" data-name="path280" class="cls-1" d="M45.33,125.02c.13,0,.28,.01,.41,.01,1.3,0,2.36-.29,2.36-.66,0-.36-1.06-.66-2.36-.66-.13,0-.28,.01-.41,.01"/>
  <path id="path284-3" data-name="path284" class="cls-1" d="M45.33,132.21c.13,0,.28,.01,.41,.01,1.3,0,2.36-.29,2.36-.66,0-.36-1.06-.66-2.36-.66-.13,0-.28,.01-.41,.01"/>
  <path id="path288-3" data-name="path288" class="cls-1" d="M45.39,132.24c-4.16-.52-7.05-2.26-7.05-4.25s2.89-3.75,7.05-4.25"/>
  <path id="path292-3" data-name="path292" class="cls-1" d="M45.39,139.43c-4.16-.52-7.05-2.26-7.05-4.25s2.89-3.73,7.05-4.25"/>
  <path id="path296-3" data-name="path296" class="cls-1" d="M45.65,144v-4.57"/>
  <path id="path300-3" data-name="path300" class="cls-1" d="M45.65,112v4.54"/>
  <line class="cls-2" x1="45.65" y1="112" x2="63.98" y2="112"/>
  <line class="cls-2" x1="45.65" y1="144" x2="63.97" y2="144"/>
  <path id="path276-4" data-name="path276" class="cls-1" d="M45.38,221.05c-4.16-.52-7.05-2.26-7.05-4.25s2.89-3.73,7.05-4.25"/>
  <path id="path280-4" data-name="path280" class="cls-1" d="M45.31,221.02c.13,0,.28,.01,.41,.01,1.3,0,2.36-.29,2.36-.66,0-.36-1.06-.66-2.36-.66-.13,0-.28,.01-.41,.01"/>
  <path id="path284-4" data-name="path284" class="cls-1" d="M45.31,228.21c.13,0,.28,.01,.41,.01,1.3,0,2.36-.29,2.36-.66,0-.36-1.06-.66-2.36-.66-.13,0-.28,.01-.41,.01"/>
  <path id="path288-4" data-name="path288" class="cls-1" d="M45.38,228.24c-4.16-.52-7.05-2.26-7.05-4.25s2.89-3.75,7.05-4.25"/>
  <path id="path292-4" data-name="path292" class="cls-1" d="M45.38,235.43c-4.16-.52-7.05-2.26-7.05-4.25s2.89-3.73,7.05-4.25"/>
  <path id="path296-4" data-name="path296" class="cls-1" d="M45.64,240v-4.57"/>
  <path id="path300-4" data-name="path300" class="cls-1" d="M45.64,208v4.54"/>
  <line class="cls-2" x1="45.64" y1="208" x2="63.97" y2="208"/>
  <line class="cls-2" x1="45.64" y1="240" x2="63.95" y2="240"/>
  <path id="path304-2" data-name="path304" class="cls-3" d="M52.99,22c0,1.66,1.34,3,3,3s3-1.34,3-3c0-1.66-1.34-3-3-3-1.66,0-3,1.34-3,3"/>
  <path id="path304-3" data-name="path304" class="cls-3" d="M52.99,118c0,1.66,1.34,3,3,3s3-1.34,3-3c0-1.66-1.34-3-3-3-1.66,0-3,1.34-3,3"/>
  <path id="path304-4" data-name="path304" class="cls-3" d="M52.97,214c0,1.66,1.34,3,3,3s3-1.34,3-3c0-1.66-1.34-3-3-3-1.66,0-3,1.34-3,3"/>
  <path id="path276-5" data-name="path276" class="cls-1" d="M45.37,317.05c-4.16-.52-7.05-2.26-7.05-4.25s2.89-3.73,7.05-4.25"/>
  <path id="path280-5" data-name="path280" class="cls-1" d="M45.3,317.02c.13,0,.28,.01,.41,.01,1.3,0,2.36-.29,2.36-.66,0-.36-1.06-.66-2.36-.66-.13,0-.28,.01-.41,.01"/>
  <path id="path284-5" data-name="path284" class="cls-1" d="M45.3,324.21c.13,0,.28,.01,.41,.01,1.3,0,2.36-.29,2.36-.66,0-.36-1.06-.66-2.36-.66-.13,0-.28,.01-.41,.01"/>
  <path id="path288-5" data-name="path288" class="cls-1" d="M45.37,324.24c-4.16-.52-7.05-2.26-7.05-4.25s2.89-3.75,7.05-4.25"/>
  <path id="path292-5" data-name="path292" class="cls-1" d="M45.37,331.43c-4.16-.52-7.05-2.26-7.05-4.25s2.89-3.73,7.05-4.25"/>
  <path id="path296-5" data-name="path296" class="cls-1" d="M45.63,336v-4.57"/>
  <path id="path300-5" data-name="path300" class="cls-1" d="M45.63,304v4.54"/>
  <line class="cls-2" x1="45.63" y1="304" x2="63.95" y2="304"/>
  <line class="cls-2" x1="45.63" y1="336" x2="63.94" y2="336"/>
  <path id="path304-5" data-name="path304" class="cls-3" d="M52.96,310c0,1.66,1.34,3,3,3s3-1.34,3-3c0-1.66-1.34-3-3-3-1.66,0-3,1.34-3,3"/>
  <path id="path276-6" data-name="path276" class="cls-1" d="M45.35,413.05c-4.16-.52-7.05-2.26-7.05-4.25s2.89-3.73,7.05-4.25"/>
  <path id="path280-6" data-name="path280" class="cls-1" d="M45.29,413.02c.13,0,.28,.01,.41,.01,1.3,0,2.36-.29,2.36-.66,0-.36-1.06-.66-2.36-.66-.13,0-.28,.01-.41,.01"/>
  <path id="path284-6" data-name="path284" class="cls-1" d="M45.29,420.21c.13,0,.28,.01,.41,.01,1.3,0,2.36-.29,2.36-.66,0-.36-1.06-.66-2.36-.66-.13,0-.28,.01-.41,.01"/>
  <path id="path288-6" data-name="path288" class="cls-1" d="M45.35,420.24c-4.16-.52-7.05-2.26-7.05-4.25s2.89-3.75,7.05-4.25"/>
  <path id="path292-6" data-name="path292" class="cls-1" d="M45.35,427.43c-4.16-.52-7.05-2.26-7.05-4.25s2.89-3.73,7.05-4.25"/>
  <path id="path296-6" data-name="path296" class="cls-1" d="M45.61,432v-4.57"/>
  <path id="path300-6" data-name="path300" class="cls-1" d="M45.61,400v4.54"/>
  <line class="cls-2" x1="45.61" y1="400" x2="63.94" y2="400"/>
  <line class="cls-2" x1="45.61" y1="432" x2="63.93" y2="432"/>
  <path id="path304-6" data-name="path304" class="cls-3" d="M52.95,406c0,1.66,1.34,3,3,3s3-1.34,3-3c0-1.66-1.34-3-3-3-1.66,0-3,1.34-3,3"/>
  <path id="path276-7" data-name="path276" class="cls-1" d="M45.34,509.05c-4.16-.52-7.05-2.26-7.05-4.25s2.89-3.73,7.05-4.25"/>
  <path id="path280-7" data-name="path280" class="cls-1" d="M45.27,509.02c.13,0,.28,.01,.41,.01,1.3,0,2.36-.29,2.36-.66,0-.36-1.06-.66-2.36-.66-.13,0-.28,.01-.41,.01"/>
  <path id="path284-7" data-name="path284" class="cls-1" d="M45.27,516.21c.13,0,.28,.01,.41,.01,1.3,0,2.36-.29,2.36-.66,0-.36-1.06-.66-2.36-.66-.13,0-.28,.01-.41,.01"/>
  <path id="path288-7" data-name="path288" class="cls-1" d="M45.34,516.24c-4.16-.52-7.05-2.26-7.05-4.25s2.89-3.75,7.05-4.25"/>
  <path id="path292-7" data-name="path292" class="cls-1" d="M45.34,523.43c-4.16-.52-7.05-2.26-7.05-4.25s2.89-3.73,7.05-4.25"/>
  <path id="path296-7" data-name="path296" class="cls-1" d="M45.6,528v-4.57"/>
  <path id="path300-7" data-name="path300" class="cls-1" d="M45.6,496v4.54"/>
  <line class="cls-2" x1="45.6" y1="496" x2="63.93" y2="496"/>
  <line class="cls-2" x1="45.6" y1="528" x2="63.91" y2="528"/>
  <path id="path304-7" data-name="path304" class="cls-3" d="M52.93,502c0,1.66,1.34,3,3,3s3-1.34,3-3c0-1.66-1.34-3-3-3-1.66,0-3,1.34-3,3"/>
  <path id="path276-8" data-name="path276" class="cls-1" d="M45.33,605.05c-4.16-.52-7.05-2.26-7.05-4.25s2.89-3.73,7.05-4.25"/>
  <path id="path280-8" data-name="path280" class="cls-1" d="M45.26,605.02c.13,0,.28,.01,.41,.01,1.3,0,2.36-.29,2.36-.66,0-.36-1.06-.66-2.36-.66-.13,0-.28,.01-.41,.01"/>
  <path id="path284-8" data-name="path284" class="cls-1" d="M45.26,612.21c.13,0,.28,.01,.41,.01,1.3,0,2.36-.29,2.36-.66,0-.36-1.06-.66-2.36-.66-.13,0-.28,.01-.41,.01"/>
  <path id="path288-8" data-name="path288" class="cls-1" d="M45.33,612.24c-4.16-.52-7.05-2.26-7.05-4.25s2.89-3.75,7.05-4.25"/>
  <path id="path292-8" data-name="path292" class="cls-1" d="M45.33,619.43c-4.16-.52-7.05-2.26-7.05-4.25s2.89-3.73,7.05-4.25"/>
  <path id="path296-8" data-name="path296" class="cls-1" d="M45.59,624v-4.57"/>
  <path id="path300-8" data-name="path300" class="cls-1" d="M45.59,592v4.54"/>
  <line class="cls-2" x1="45.59" y1="592" x2="63.91" y2="592"/>
  <line class="cls-2" x1="45.59" y1="624" x2="63.9" y2="624"/>
  <path id="path304-8" data-name="path304" class="cls-3" d="M52.92,598c0,1.66,1.34,3,3,3s3-1.34,3-3c0-1.66-1.34-3-3-3-1.66,0-3,1.34-3,3"/>
  <path id="path276-9" data-name="path276" class="cls-1" d="M38.26,696.8c0-1.99,2.89-3.73,7.05-4.25"/>
  <path id="path276-10" data-name="path276" class="cls-1" d="M45.31,701.05c-4.16-.52-7.05-2.26-7.05-4.25"/>
  <path id="path280-9" data-name="path280" class="cls-1" d="M45.25,701.02c.13,0,.28,.01,.41,.01,1.3,0,2.36-.29,2.36-.66,0-.36-1.06-.66-2.36-.66-.13,0-.28,.01-.41,.01"/>
  <path id="path284-9" data-name="path284" class="cls-1" d="M45.25,708.21c.13,0,.28,.01,.41,.01,1.3,0,2.36-.29,2.36-.66,0-.36-1.06-.66-2.36-.66-.13,0-.28,.01-.41,.01"/>
  <path id="path288-9" data-name="path288" class="cls-1" d="M38.26,703.99c0-1.99,2.89-3.75,7.05-4.25"/>
  <path id="path288-10" data-name="path288" class="cls-1" d="M45.31,708.24c-4.16-.52-7.05-2.26-7.05-4.25"/>
  <path id="path292-9" data-name="path292" class="cls-1" d="M38.26,711.18c0-1.99,2.89-3.73,7.05-4.25"/>
  <path id="path292-10" data-name="path292" class="cls-1" d="M45.31,715.43c-4.16-.52-7.05-2.26-7.05-4.25"/>
  <path id="path296-9" data-name="path296" class="cls-1" d="M45.57,720v-4.57"/>
  <path id="path300-9" data-name="path300" class="cls-1" d="M45.57,688v4.54"/>
  <line class="cls-2" x1="45.57" y1="688" x2="63.9" y2="688"/>
  <line class="cls-2" x1="45.57" y1="720" x2="63.89" y2="720"/>
  <path id="path304-9" data-name="path304" class="cls-3" d="M52.91,694c0,1.66,1.34,3,3,3s3-1.34,3-3c0-1.66-1.34-3-3-3-1.66,0-3,1.34-3,3"/>
  <path id="path276-11" data-name="path276" class="cls-1" d="M38.25,794.8c0-1.99,2.89-3.73,7.05-4.25"/>
  <path id="path276-12" data-name="path276" class="cls-1" d="M45.3,799.05c-4.16-.52-7.05-2.26-7.05-4.25"/>
  <path id="path280-10" data-name="path280" class="cls-1" d="M45.23,799.02c.13,0,.28,.01,.41,.01,1.3,0,2.36-.29,2.36-.66,0-.36-1.06-.66-2.36-.66-.13,0-.28,.01-.41,.01"/>
  <path id="path284-10" data-name="path284" class="cls-1" d="M45.23,806.21c.13,0,.28,.01,.41,.01,1.3,0,2.36-.29,2.36-.66,0-.36-1.06-.66-2.36-.66-.13,0-.28,.01-.41,.01"/>
  <path id="path288-11" data-name="path288" class="cls-1" d="M38.25,801.99c0-1.99,2.89-3.75,7.05-4.25"/>
  <path id="path288-12" data-name="path288" class="cls-1" d="M45.3,806.24c-4.16-.52-7.05-2.26-7.05-4.25"/>
  <path id="path292-11" data-name="path292" class="cls-1" d="M38.25,809.18c0-1.99,2.89-3.73,7.05-4.25"/>
  <path id="path292-12" data-name="path292" class="cls-1" d="M45.3,813.43c-4.16-.52-7.05-2.26-7.05-4.25"/>
  <path id="path296-10" data-name="path296" class="cls-1" d="M45.56,818v-4.57"/>
  <path id="path300-10" data-name="path300" class="cls-1" d="M45.56,786v4.54"/>
  <line class="cls-2" x1="45.56" y1="786" x2="63.89" y2="786"/>
  <line class="cls-2" x1="45.56" y1="818" x2="63.88" y2="818"/>
  <path id="path304-10" data-name="path304" class="cls-3" d="M52.89,792c0,1.66,1.34,3,3,3s3-1.34,3-3c0-1.66-1.34-3-3-3-1.66,0-3,1.34-3,3"/>
</svg>