<?xml version="1.0" encoding="UTF-8" standalone="no"?>
<!-- Generator: Adobe Illustrator 19.0.0, SVG Export Plug-In . SVG Version: 6.00 Build 0)  -->

<svg
   xmlns:dc="http://purl.org/dc/elements/1.1/"
   xmlns:cc="http://creativecommons.org/ns#"
   xmlns:rdf="http://www.w3.org/1999/02/22-rdf-syntax-ns#"
   xmlns:svg="http://www.w3.org/2000/svg"
   xmlns="http://www.w3.org/2000/svg"
   xmlns:sodipodi="http://sodipodi.sourceforge.net/DTD/sodipodi-0.dtd"
   xmlns:inkscape="http://www.inkscape.org/namespaces/inkscape"
   version="1.1"
   id="svg256"
   inkscape:version="0.92.4 (5da689c313, 2019-01-14)"
   sodipodi:docname="t_3p4w.svg"
   x="0px"
   y="0px"
   viewBox="-281 501.5 64 288"
   xml:space="preserve"
   width="64"
   height="288"><metadata
   id="metadata204"><rdf:RDF><cc:Work
       rdf:about=""><dc:format>image/svg+xml</dc:format><dc:type
         rdf:resource="http://purl.org/dc/dcmitype/StillImage" /></cc:Work></rdf:RDF></metadata><defs
   id="defs202" />
<style
   type="text/css"
   id="style2">
	.st0{fill:none;stroke:#000000;stroke-linecap:round;stroke-miterlimit:10;}
	.st1{stroke:#000000;stroke-linecap:round;stroke-miterlimit:10;}
	.st2{fill:none;stroke:#000000;stroke-linecap:round;stroke-linejoin:round;stroke-miterlimit:22.926;}
</style>
<sodipodi:namedview
   inkscape:cy="39.700726"
   inkscape:cx="-344.97104"
   inkscape:zoom="1.2056171"
   showgrid="true"
   guidetolerance="10"
   gridtolerance="10"
   objecttolerance="10"
   borderopacity="1"
   bordercolor="#666666"
   id="namedview258"
   pagecolor="#ffffff"
   inkscape:current-layer="svg256"
   inkscape:window-maximized="1"
   inkscape:window-y="-8"
   inkscape:window-x="1358"
   inkscape:snap-page="true"
   inkscape:bbox-nodes="false"
   inkscape:snap-global="true"
   inkscape:snap-bbox-midpoints="false"
   inkscape:bbox-paths="false"
   inkscape:snap-bbox="true"
   inkscape:window-height="1017"
   inkscape:pageshadow="2"
   inkscape:window-width="1920"
   inkscape:pageopacity="0">
	</sodipodi:namedview>
<line
   class="st0"
   x1="-250.89999"
   y1="519.8999"
   x2="-250.89999"
   y2="770.09985"
   id="line5"
   style="fill:none;stroke:#000000;stroke-linecap:round;stroke-miterlimit:10" />
<line
   class="st0"
   x1="-246.60001"
   y1="519.8999"
   x2="-246.60001"
   y2="770.09985"
   id="line7"
   style="fill:none;stroke:#000000;stroke-linecap:round;stroke-miterlimit:10" />
<g
   id="g55"
   transform="translate(0,-0.50012124)">
	<g
   id="g302_12_"
   transform="translate(53.7173,40.5333)">
		<path
   id="path304_12_"
   inkscape:connector-curvature="0"
   class="st1"
   d="m -310.7,573.5 c 0,0.6 -0.4,1 -1,1 -0.6,0 -1,-0.4 -1,-1 0,-0.6 0.4,-1 1,-1 0.5,0 1,0.4 1,1"
   style="stroke:#000000;stroke-linecap:round;stroke-miterlimit:10" />
	</g>
	<g
   id="g306_12_"
   transform="translate(53.7173,40.5333)">
		<path
   id="path308_12_"
   inkscape:connector-curvature="0"
   class="st0"
   d="m -311.7,574.5 c -0.6,0 -1,-0.4 -1,-1 0,-0.6 0.4,-1 1,-1 0.6,0 1,0.4 1,1 0,0.5 -0.5,1 -1,1 z"
   style="fill:none;stroke:#000000;stroke-linecap:round;stroke-miterlimit:10" />
	</g>
	<line
   class="st2"
   x1="-263"
   y1="678"
   x2="-281"
   y2="678"
   id="line13"
   style="fill:none;stroke:#000000;stroke-linecap:round;stroke-linejoin:round;stroke-miterlimit:22.9260006" />
	<line
   class="st2"
   x1="-263"
   y1="614"
   x2="-281"
   y2="614"
   id="line15"
   style="fill:none;stroke:#000000;stroke-linecap:round;stroke-linejoin:round;stroke-miterlimit:22.9260006" />
	<line
   class="st2"
   x1="-265.79999"
   y1="646"
   x2="-281"
   y2="646"
   id="line17"
   style="fill:none;stroke:#000000;stroke-linecap:round;stroke-linejoin:round;stroke-miterlimit:22.9260006" />
	<g
   id="g49">
		<g
   id="g274_12_"
   transform="translate(36.5867,32.3413)">
			<path
   id="path276_12_"
   inkscape:connector-curvature="0"
   class="st0"
   d="m -299.6,584.2 c 4.2,0.5 7.1,2.3 7.1,4.3 0,2 -2.9,3.7 -7.1,4.3"
   style="fill:none;stroke:#000000;stroke-linecap:round;stroke-miterlimit:10" />
		</g>
		<g
   id="g278_12_"
   transform="translate(36.6293,32.4267)">
			<path
   id="path280_12_"
   inkscape:connector-curvature="0"
   class="st0"
   d="m -299.6,591.3 c -0.1,0 -0.3,0 -0.4,0 -1.3,0 -2.4,0.3 -2.4,0.7 0,0.4 1.1,0.7 2.4,0.7 0.1,0 0.3,0 0.4,0"
   style="fill:none;stroke:#000000;stroke-linecap:round;stroke-miterlimit:10" />
		</g>
		<g
   id="g274_1_"
   transform="translate(36.5867,32.3413)">
			<path
   id="path276_1_"
   inkscape:connector-curvature="0"
   class="st0"
   d="m -299.6,591.4 c 4.2,0.5 7.1,2.3 7.1,4.3 0,2 -2.9,3.7 -7.1,4.3"
   style="fill:none;stroke:#000000;stroke-linecap:round;stroke-miterlimit:10" />
		</g>
		<g
   id="g278_1_"
   transform="translate(36.6293,32.4267)">
			<path
   id="path280_1_"
   inkscape:connector-curvature="0"
   class="st0"
   d="m -299.6,598.6 c -0.1,0 -0.3,0 -0.4,0 -1.3,0 -2.4,0.3 -2.4,0.7 0,0.4 1.1,0.7 2.4,0.7 0.1,0 0.3,0 0.4,0"
   style="fill:none;stroke:#000000;stroke-linecap:round;stroke-miterlimit:10" />
		</g>
		<g
   id="g274_4_"
   transform="translate(36.5867,32.3413)">
			<path
   id="path276_4_"
   inkscape:connector-curvature="0"
   class="st0"
   d="m -299.6,598.6 c 4.2,0.5 7.1,2.3 7.1,4.3 0,2 -2.9,3.7 -7.1,4.3"
   style="fill:none;stroke:#000000;stroke-linecap:round;stroke-miterlimit:10" />
		</g>
		<g
   id="g278_4_"
   transform="translate(36.6293,32.4267)">
			<path
   id="path280_4_"
   inkscape:connector-curvature="0"
   class="st0"
   d="m -299.6,605.8 c -0.1,0 -0.3,0 -0.4,0 -1.3,0 -2.4,0.3 -2.4,0.7 0,0.4 1.1,0.7 2.4,0.7 0.1,0 0.3,0 0.4,0"
   style="fill:none;stroke:#000000;stroke-linecap:round;stroke-miterlimit:10" />
		</g>
		<g
   id="g274_6_"
   transform="translate(36.5867,32.3413)">
			<path
   id="path276_6_"
   inkscape:connector-curvature="0"
   class="st0"
   d="m -299.6,605.9 c 4.2,0.5 7.1,2.3 7.1,4.3 0,2 -2.9,3.7 -7.1,4.3"
   style="fill:none;stroke:#000000;stroke-linecap:round;stroke-miterlimit:10" />
		</g>
		<g
   id="g278_6_"
   transform="translate(36.6293,32.4267)">
			<path
   id="path280_6_"
   inkscape:connector-curvature="0"
   class="st0"
   d="m -299.6,613 c -0.1,0 -0.3,0 -0.4,0 -1.3,0 -2.4,0.3 -2.4,0.7 0,0.4 1.1,0.7 2.4,0.7 0.1,0 0.3,0 0.4,0"
   style="fill:none;stroke:#000000;stroke-linecap:round;stroke-miterlimit:10" />
		</g>
		<g
   id="g274_8_"
   transform="translate(36.5867,32.3413)">
			<path
   id="path276_8_"
   inkscape:connector-curvature="0"
   class="st0"
   d="m -299.6,613.1 c 4.2,0.5 7.1,2.3 7.1,4.3 0,2 -2.9,3.7 -7.1,4.3"
   style="fill:none;stroke:#000000;stroke-linecap:round;stroke-miterlimit:10" />
		</g>
		<g
   id="g278_8_"
   transform="translate(36.6293,32.4267)">
			<path
   id="path280_8_"
   inkscape:connector-curvature="0"
   class="st0"
   d="m -299.6,620.2 c -0.1,0 -0.3,0 -0.4,0 -1.3,0 -2.4,0.3 -2.4,0.7 0,0.4 1.1,0.7 2.4,0.7 0.1,0 0.3,0 0.4,0"
   style="fill:none;stroke:#000000;stroke-linecap:round;stroke-miterlimit:10" />
		</g>
		<g
   id="g274_10_"
   transform="translate(36.5867,32.3413)">
			<path
   id="path276_10_"
   inkscape:connector-curvature="0"
   class="st0"
   d="m -299.6,620.3 c 4.2,0.5 7.1,2.3 7.1,4.3 0,2 -2.9,3.7 -7.1,4.3"
   style="fill:none;stroke:#000000;stroke-linecap:round;stroke-miterlimit:10" />
		</g>
		<g
   id="g278_10_"
   transform="translate(36.6293,32.4267)">
			<path
   id="path280_10_"
   inkscape:connector-curvature="0"
   class="st0"
   d="m -299.6,627.4 c -0.1,0 -0.3,0 -0.4,0 -1.3,0 -2.4,0.3 -2.4,0.7 0,0.4 1.1,0.7 2.4,0.7 0.1,0 0.3,0 0.4,0"
   style="fill:none;stroke:#000000;stroke-linecap:round;stroke-miterlimit:10" />
		</g>
		<g
   id="g274_14_"
   transform="translate(36.5867,32.3413)">
			<path
   id="path276_14_"
   inkscape:connector-curvature="0"
   class="st0"
   d="m -299.6,627.5 c 4.2,0.5 7.1,2.3 7.1,4.3 0,2 -2.9,3.7 -7.1,4.3"
   style="fill:none;stroke:#000000;stroke-linecap:round;stroke-miterlimit:10" />
		</g>
		<g
   id="g278_14_"
   transform="translate(36.6293,32.4267)">
			<path
   id="path280_14_"
   inkscape:connector-curvature="0"
   class="st0"
   d="m -299.6,634.7 c -0.1,0 -0.3,0 -0.4,0 -1.3,0 -2.4,0.3 -2.4,0.7 0,0.4 1.1,0.7 2.4,0.7 0.1,0 0.3,0 0.4,0"
   style="fill:none;stroke:#000000;stroke-linecap:round;stroke-miterlimit:10" />
		</g>
		<g
   id="g274_16_"
   transform="translate(36.5867,32.3413)">
			<path
   id="path276_16_"
   inkscape:connector-curvature="0"
   class="st0"
   d="m -299.6,634.7 c 4.2,0.5 7.1,2.3 7.1,4.3 0,2 -2.9,3.7 -7.1,4.3"
   style="fill:none;stroke:#000000;stroke-linecap:round;stroke-miterlimit:10" />
		</g>
	</g>
	<line
   class="st0"
   x1="-263"
   y1="678"
   x2="-263"
   y2="675.59998"
   id="line51"
   style="fill:none;stroke:#000000;stroke-linecap:round;stroke-miterlimit:10" />
	<line
   class="st0"
   x1="-263"
   y1="616.40002"
   x2="-263"
   y2="614"
   id="line53"
   style="fill:none;stroke:#000000;stroke-linecap:round;stroke-miterlimit:10" />
</g>
<g
   id="g103"
   transform="translate(0,-0.50012124)">
	<g
   id="g302_1_"
   transform="translate(53.7173,40.5333)">
		<path
   id="path304_1_"
   inkscape:connector-curvature="0"
   class="st1"
   d="m -294.7,573.5 c 0,0.6 0.4,1 1,1 0.6,0 1,-0.4 1,-1 0,-0.6 -0.4,-1 -1,-1 -0.6,0 -1,0.4 -1,1"
   style="stroke:#000000;stroke-linecap:round;stroke-miterlimit:10" />
	</g>
	<g
   id="g306_1_"
   transform="translate(53.7173,40.5333)">
		<path
   id="path308_1_"
   inkscape:connector-curvature="0"
   class="st0"
   d="m -293.7,574.5 c 0.6,0 1,-0.4 1,-1 0,-0.6 -0.4,-1 -1,-1 -0.6,0 -1,0.4 -1,1 0,0.5 0.4,1 1,1 z"
   style="fill:none;stroke:#000000;stroke-linecap:round;stroke-miterlimit:10" />
	</g>
	<line
   class="st2"
   x1="-235"
   y1="678"
   x2="-217"
   y2="678"
   id="line61"
   style="fill:none;stroke:#000000;stroke-linecap:round;stroke-linejoin:round;stroke-miterlimit:22.9260006" />
	<line
   class="st2"
   x1="-235"
   y1="614"
   x2="-217"
   y2="614"
   id="line63"
   style="fill:none;stroke:#000000;stroke-linecap:round;stroke-linejoin:round;stroke-miterlimit:22.9260006" />
	<line
   class="st2"
   x1="-232.2"
   y1="646"
   x2="-217"
   y2="646"
   id="line65"
   style="fill:none;stroke:#000000;stroke-linecap:round;stroke-linejoin:round;stroke-miterlimit:22.9260006" />
	<g
   id="g97">
		<g
   id="g274_15_"
   transform="translate(36.5867,32.3413)">
			<path
   id="path276_15_"
   inkscape:connector-curvature="0"
   class="st0"
   d="m -271.6,584.2 c -4.2,0.5 -7.1,2.3 -7.1,4.3 0,2 2.9,3.7 7.1,4.3"
   style="fill:none;stroke:#000000;stroke-linecap:round;stroke-miterlimit:10" />
		</g>
		<g
   id="g278_13_"
   transform="translate(36.6293,32.4267)">
			<path
   id="path280_13_"
   inkscape:connector-curvature="0"
   class="st0"
   d="m -271.6,591.3 c 0.1,0 0.3,0 0.4,0 1.3,0 2.4,0.3 2.4,0.7 0,0.4 -1.1,0.7 -2.4,0.7 -0.1,0 -0.3,0 -0.4,0"
   style="fill:none;stroke:#000000;stroke-linecap:round;stroke-miterlimit:10" />
		</g>
		<g
   id="g274_13_"
   transform="translate(36.5867,32.3413)">
			<path
   id="path276_13_"
   inkscape:connector-curvature="0"
   class="st0"
   d="m -271.6,591.4 c -4.2,0.5 -7.1,2.3 -7.1,4.3 0,2 2.9,3.7 7.1,4.3"
   style="fill:none;stroke:#000000;stroke-linecap:round;stroke-miterlimit:10" />
		</g>
		<g
   id="g278_11_"
   transform="translate(36.6293,32.4267)">
			<path
   id="path280_11_"
   inkscape:connector-curvature="0"
   class="st0"
   d="m -271.6,598.6 c 0.1,0 0.3,0 0.4,0 1.3,0 2.4,0.3 2.4,0.7 0,0.4 -1.1,0.7 -2.4,0.7 -0.1,0 -0.3,0 -0.4,0"
   style="fill:none;stroke:#000000;stroke-linecap:round;stroke-miterlimit:10" />
		</g>
		<g
   id="g274_11_"
   transform="translate(36.5867,32.3413)">
			<path
   id="path276_11_"
   inkscape:connector-curvature="0"
   class="st0"
   d="m -271.6,598.6 c -4.2,0.5 -7.1,2.3 -7.1,4.3 0,2 2.9,3.7 7.1,4.3"
   style="fill:none;stroke:#000000;stroke-linecap:round;stroke-miterlimit:10" />
		</g>
		<g
   id="g278_9_"
   transform="translate(36.6293,32.4267)">
			<path
   id="path280_9_"
   inkscape:connector-curvature="0"
   class="st0"
   d="m -271.6,605.8 c 0.1,0 0.3,0 0.4,0 1.3,0 2.4,0.3 2.4,0.7 0,0.4 -1.1,0.7 -2.4,0.7 -0.1,0 -0.3,0 -0.4,0"
   style="fill:none;stroke:#000000;stroke-linecap:round;stroke-miterlimit:10" />
		</g>
		<g
   id="g274_9_"
   transform="translate(36.5867,32.3413)">
			<path
   id="path276_9_"
   inkscape:connector-curvature="0"
   class="st0"
   d="m -271.6,605.9 c -4.2,0.5 -7.1,2.3 -7.1,4.3 0,2 2.9,3.7 7.1,4.3"
   style="fill:none;stroke:#000000;stroke-linecap:round;stroke-miterlimit:10" />
		</g>
		<g
   id="g278_7_"
   transform="translate(36.6293,32.4267)">
			<path
   id="path280_7_"
   inkscape:connector-curvature="0"
   class="st0"
   d="m -271.6,613 c 0.1,0 0.3,0 0.4,0 1.3,0 2.4,0.3 2.4,0.7 0,0.4 -1.1,0.7 -2.4,0.7 -0.1,0 -0.3,0 -0.4,0"
   style="fill:none;stroke:#000000;stroke-linecap:round;stroke-miterlimit:10" />
		</g>
		<g
   id="g274_7_"
   transform="translate(36.5867,32.3413)">
			<path
   id="path276_7_"
   inkscape:connector-curvature="0"
   class="st0"
   d="m -271.6,613.1 c -4.2,0.5 -7.1,2.3 -7.1,4.3 0,2 2.9,3.7 7.1,4.3"
   style="fill:none;stroke:#000000;stroke-linecap:round;stroke-miterlimit:10" />
		</g>
		<g
   id="g278_5_"
   transform="translate(36.6293,32.4267)">
			<path
   id="path280_5_"
   inkscape:connector-curvature="0"
   class="st0"
   d="m -271.6,620.2 c 0.1,0 0.3,0 0.4,0 1.3,0 2.4,0.3 2.4,0.7 0,0.4 -1.1,0.7 -2.4,0.7 -0.1,0 -0.3,0 -0.4,0"
   style="fill:none;stroke:#000000;stroke-linecap:round;stroke-miterlimit:10" />
		</g>
		<g
   id="g274_5_"
   transform="translate(36.5867,32.3413)">
			<path
   id="path276_5_"
   inkscape:connector-curvature="0"
   class="st0"
   d="m -271.6,620.3 c -4.2,0.5 -7.1,2.3 -7.1,4.3 0,2 2.9,3.7 7.1,4.3"
   style="fill:none;stroke:#000000;stroke-linecap:round;stroke-miterlimit:10" />
		</g>
		<g
   id="g278_3_"
   transform="translate(36.6293,32.4267)">
			<path
   id="path280_3_"
   inkscape:connector-curvature="0"
   class="st0"
   d="m -271.6,627.4 c 0.1,0 0.3,0 0.4,0 1.3,0 2.4,0.3 2.4,0.7 0,0.4 -1.1,0.7 -2.4,0.7 -0.1,0 -0.3,0 -0.4,0"
   style="fill:none;stroke:#000000;stroke-linecap:round;stroke-miterlimit:10" />
		</g>
		<g
   id="g274_3_"
   transform="translate(36.5867,32.3413)">
			<path
   id="path276_3_"
   inkscape:connector-curvature="0"
   class="st0"
   d="m -271.6,627.5 c -4.2,0.5 -7.1,2.3 -7.1,4.3 0,2 2.9,3.7 7.1,4.3"
   style="fill:none;stroke:#000000;stroke-linecap:round;stroke-miterlimit:10" />
		</g>
		<g
   id="g278_2_"
   transform="translate(36.6293,32.4267)">
			<path
   id="path280_2_"
   inkscape:connector-curvature="0"
   class="st0"
   d="m -271.6,634.7 c 0.1,0 0.3,0 0.4,0 1.3,0 2.4,0.3 2.4,0.7 0,0.4 -1.1,0.7 -2.4,0.7 -0.1,0 -0.3,0 -0.4,0"
   style="fill:none;stroke:#000000;stroke-linecap:round;stroke-miterlimit:10" />
		</g>
		<g
   id="g274_2_"
   transform="translate(36.5867,32.3413)">
			<path
   id="path276_2_"
   inkscape:connector-curvature="0"
   class="st0"
   d="m -271.6,634.7 c -4.2,0.5 -7.1,2.3 -7.1,4.3 0,2 2.9,3.7 7.1,4.3"
   style="fill:none;stroke:#000000;stroke-linecap:round;stroke-miterlimit:10" />
		</g>
	</g>
	<line
   class="st0"
   x1="-235"
   y1="678"
   x2="-235"
   y2="675.59998"
   id="line99"
   style="fill:none;stroke:#000000;stroke-linecap:round;stroke-miterlimit:10" />
	<line
   class="st0"
   x1="-235"
   y1="616.40002"
   x2="-235"
   y2="614"
   id="line101"
   style="fill:none;stroke:#000000;stroke-linecap:round;stroke-miterlimit:10" />
</g>
<g
   id="g151"
   transform="translate(0,-0.50012124)">
	<g
   id="g302_3_"
   transform="translate(53.7173,40.5333)">
		<path
   id="path304_3_"
   inkscape:connector-curvature="0"
   class="st1"
   d="m -294.7,669.5 c 0,0.6 0.4,1 1,1 0.6,0 1,-0.4 1,-1 0,-0.6 -0.4,-1 -1,-1 -0.6,0 -1,0.4 -1,1"
   style="stroke:#000000;stroke-linecap:round;stroke-miterlimit:10" />
	</g>
	<g
   id="g306_3_"
   transform="translate(53.7173,40.5333)">
		<path
   id="path308_3_"
   inkscape:connector-curvature="0"
   class="st0"
   d="m -293.7,670.5 c 0.6,0 1,-0.4 1,-1 0,-0.6 -0.4,-1 -1,-1 -0.6,0 -1,0.4 -1,1 0,0.5 0.4,1 1,1 z"
   style="fill:none;stroke:#000000;stroke-linecap:round;stroke-miterlimit:10" />
	</g>
	<line
   class="st2"
   x1="-235"
   y1="774"
   x2="-217"
   y2="774"
   id="line109"
   style="fill:none;stroke:#000000;stroke-linecap:round;stroke-linejoin:round;stroke-miterlimit:22.9260006" />
	<line
   class="st2"
   x1="-235"
   y1="710"
   x2="-217"
   y2="710"
   id="line111"
   style="fill:none;stroke:#000000;stroke-linecap:round;stroke-linejoin:round;stroke-miterlimit:22.9260006" />
	<line
   class="st2"
   x1="-232.2"
   y1="742"
   x2="-217"
   y2="742"
   id="line113"
   style="fill:none;stroke:#000000;stroke-linecap:round;stroke-linejoin:round;stroke-miterlimit:22.9260006" />
	<g
   id="g145">
		<g
   id="g274_32_"
   transform="translate(36.5867,32.3413)">
			<path
   id="path276_32_"
   inkscape:connector-curvature="0"
   class="st0"
   d="m -271.6,680.2 c -4.2,0.5 -7.1,2.3 -7.1,4.3 0,2 2.9,3.7 7.1,4.3"
   style="fill:none;stroke:#000000;stroke-linecap:round;stroke-miterlimit:10" />
		</g>
		<g
   id="g278_28_"
   transform="translate(36.6293,32.4267)">
			<path
   id="path280_28_"
   inkscape:connector-curvature="0"
   class="st0"
   d="m -271.6,687.3 c 0.1,0 0.3,0 0.4,0 1.3,0 2.4,0.3 2.4,0.7 0,0.4 -1.1,0.7 -2.4,0.7 -0.1,0 -0.3,0 -0.4,0"
   style="fill:none;stroke:#000000;stroke-linecap:round;stroke-miterlimit:10" />
		</g>
		<g
   id="g274_31_"
   transform="translate(36.5867,32.3413)">
			<path
   id="path276_31_"
   inkscape:connector-curvature="0"
   class="st0"
   d="m -271.6,687.4 c -4.2,0.5 -7.1,2.3 -7.1,4.3 0,2 2.9,3.7 7.1,4.3"
   style="fill:none;stroke:#000000;stroke-linecap:round;stroke-miterlimit:10" />
		</g>
		<g
   id="g278_27_"
   transform="translate(36.6293,32.4267)">
			<path
   id="path280_27_"
   inkscape:connector-curvature="0"
   class="st0"
   d="m -271.6,694.6 c 0.1,0 0.3,0 0.4,0 1.3,0 2.4,0.3 2.4,0.7 0,0.4 -1.1,0.7 -2.4,0.7 -0.1,0 -0.3,0 -0.4,0"
   style="fill:none;stroke:#000000;stroke-linecap:round;stroke-miterlimit:10" />
		</g>
		<g
   id="g274_30_"
   transform="translate(36.5867,32.3413)">
			<path
   id="path276_30_"
   inkscape:connector-curvature="0"
   class="st0"
   d="m -271.6,694.6 c -4.2,0.5 -7.1,2.3 -7.1,4.3 0,2 2.9,3.7 7.1,4.3"
   style="fill:none;stroke:#000000;stroke-linecap:round;stroke-miterlimit:10" />
		</g>
		<g
   id="g278_26_"
   transform="translate(36.6293,32.4267)">
			<path
   id="path280_26_"
   inkscape:connector-curvature="0"
   class="st0"
   d="m -271.6,701.8 c 0.1,0 0.3,0 0.4,0 1.3,0 2.4,0.3 2.4,0.7 0,0.4 -1.1,0.7 -2.4,0.7 -0.1,0 -0.3,0 -0.4,0"
   style="fill:none;stroke:#000000;stroke-linecap:round;stroke-miterlimit:10" />
		</g>
		<g
   id="g274_29_"
   transform="translate(36.5867,32.3413)">
			<path
   id="path276_29_"
   inkscape:connector-curvature="0"
   class="st0"
   d="m -271.6,701.9 c -4.2,0.5 -7.1,2.3 -7.1,4.3 0,2 2.9,3.7 7.1,4.3"
   style="fill:none;stroke:#000000;stroke-linecap:round;stroke-miterlimit:10" />
		</g>
		<g
   id="g278_25_"
   transform="translate(36.6293,32.4267)">
			<path
   id="path280_25_"
   inkscape:connector-curvature="0"
   class="st0"
   d="m -271.6,709 c 0.1,0 0.3,0 0.4,0 1.3,0 2.4,0.3 2.4,0.7 0,0.4 -1.1,0.7 -2.4,0.7 -0.1,0 -0.3,0 -0.4,0"
   style="fill:none;stroke:#000000;stroke-linecap:round;stroke-miterlimit:10" />
		</g>
		<g
   id="g274_28_"
   transform="translate(36.5867,32.3413)">
			<path
   id="path276_28_"
   inkscape:connector-curvature="0"
   class="st0"
   d="m -271.6,709.1 c -4.2,0.5 -7.1,2.3 -7.1,4.3 0,2 2.9,3.7 7.1,4.3"
   style="fill:none;stroke:#000000;stroke-linecap:round;stroke-miterlimit:10" />
		</g>
		<g
   id="g278_24_"
   transform="translate(36.6293,32.4267)">
			<path
   id="path280_24_"
   inkscape:connector-curvature="0"
   class="st0"
   d="m -271.6,716.2 c 0.1,0 0.3,0 0.4,0 1.3,0 2.4,0.3 2.4,0.7 0,0.4 -1.1,0.7 -2.4,0.7 -0.1,0 -0.3,0 -0.4,0"
   style="fill:none;stroke:#000000;stroke-linecap:round;stroke-miterlimit:10" />
		</g>
		<g
   id="g274_27_"
   transform="translate(36.5867,32.3413)">
			<path
   id="path276_27_"
   inkscape:connector-curvature="0"
   class="st0"
   d="m -271.6,716.3 c -4.2,0.5 -7.1,2.3 -7.1,4.3 0,2 2.9,3.7 7.1,4.3"
   style="fill:none;stroke:#000000;stroke-linecap:round;stroke-miterlimit:10" />
		</g>
		<g
   id="g278_23_"
   transform="translate(36.6293,32.4267)">
			<path
   id="path280_23_"
   inkscape:connector-curvature="0"
   class="st0"
   d="m -271.6,723.4 c 0.1,0 0.3,0 0.4,0 1.3,0 2.4,0.3 2.4,0.7 0,0.4 -1.1,0.7 -2.4,0.7 -0.1,0 -0.3,0 -0.4,0"
   style="fill:none;stroke:#000000;stroke-linecap:round;stroke-miterlimit:10" />
		</g>
		<g
   id="g274_26_"
   transform="translate(36.5867,32.3413)">
			<path
   id="path276_26_"
   inkscape:connector-curvature="0"
   class="st0"
   d="m -271.6,723.5 c -4.2,0.5 -7.1,2.3 -7.1,4.3 0,2 2.9,3.7 7.1,4.3"
   style="fill:none;stroke:#000000;stroke-linecap:round;stroke-miterlimit:10" />
		</g>
		<g
   id="g278_22_"
   transform="translate(36.6293,32.4267)">
			<path
   id="path280_22_"
   inkscape:connector-curvature="0"
   class="st0"
   d="m -271.6,730.7 c 0.1,0 0.3,0 0.4,0 1.3,0 2.4,0.3 2.4,0.7 0,0.4 -1.1,0.7 -2.4,0.7 -0.1,0 -0.3,0 -0.4,0"
   style="fill:none;stroke:#000000;stroke-linecap:round;stroke-miterlimit:10" />
		</g>
		<g
   id="g274_25_"
   transform="translate(36.5867,32.3413)">
			<path
   id="path276_25_"
   inkscape:connector-curvature="0"
   class="st0"
   d="m -271.6,730.7 c -4.2,0.5 -7.1,2.3 -7.1,4.3 0,2 2.9,3.7 7.1,4.3"
   style="fill:none;stroke:#000000;stroke-linecap:round;stroke-miterlimit:10" />
		</g>
	</g>
	<line
   class="st0"
   x1="-235"
   y1="774"
   x2="-235"
   y2="771.59998"
   id="line147"
   style="fill:none;stroke:#000000;stroke-linecap:round;stroke-miterlimit:10" />
	<line
   class="st0"
   x1="-235"
   y1="712.40002"
   x2="-235"
   y2="710"
   id="line149"
   style="fill:none;stroke:#000000;stroke-linecap:round;stroke-miterlimit:10" />
</g>
<g
   id="g199"
   transform="translate(0,-0.50012124)">
	<g
   id="g302_2_"
   transform="translate(53.7173,40.5333)">
		<path
   id="path304_2_"
   inkscape:connector-curvature="0"
   class="st1"
   d="m -294.7,477.5 c 0,0.6 0.4,1 1,1 0.6,0 1,-0.4 1,-1 0,-0.6 -0.4,-1 -1,-1 -0.6,0 -1,0.4 -1,1"
   style="stroke:#000000;stroke-linecap:round;stroke-miterlimit:10" />
	</g>
	<g
   id="g306_2_"
   transform="translate(53.7173,40.5333)">
		<path
   id="path308_2_"
   inkscape:connector-curvature="0"
   class="st0"
   d="m -293.7,478.5 c 0.6,0 1,-0.4 1,-1 0,-0.6 -0.4,-1 -1,-1 -0.6,0 -1,0.4 -1,1 0,0.5 0.4,1 1,1 z"
   style="fill:none;stroke:#000000;stroke-linecap:round;stroke-miterlimit:10" />
	</g>
	<line
   class="st2"
   x1="-235"
   y1="582"
   x2="-217"
   y2="582"
   id="line157"
   style="fill:none;stroke:#000000;stroke-linecap:round;stroke-linejoin:round;stroke-miterlimit:22.9260006" />
	<line
   class="st2"
   x1="-235"
   y1="518"
   x2="-217"
   y2="518"
   id="line159"
   style="fill:none;stroke:#000000;stroke-linecap:round;stroke-linejoin:round;stroke-miterlimit:22.9260006" />
	<line
   class="st2"
   x1="-232.2"
   y1="550"
   x2="-217"
   y2="550"
   id="line161"
   style="fill:none;stroke:#000000;stroke-linecap:round;stroke-linejoin:round;stroke-miterlimit:22.9260006" />
	<g
   id="g193">
		<g
   id="g274_24_"
   transform="translate(36.5867,32.3413)">
			<path
   id="path276_24_"
   inkscape:connector-curvature="0"
   class="st0"
   d="m -271.6,488.2 c -4.2,0.5 -7.1,2.3 -7.1,4.3 0,2 2.9,3.7 7.1,4.3"
   style="fill:none;stroke:#000000;stroke-linecap:round;stroke-miterlimit:10" />
		</g>
		<g
   id="g278_21_"
   transform="translate(36.6293,32.4267)">
			<path
   id="path280_21_"
   inkscape:connector-curvature="0"
   class="st0"
   d="m -271.6,495.3 c 0.1,0 0.3,0 0.4,0 1.3,0 2.4,0.3 2.4,0.7 0,0.4 -1.1,0.7 -2.4,0.7 -0.1,0 -0.3,0 -0.4,0"
   style="fill:none;stroke:#000000;stroke-linecap:round;stroke-miterlimit:10" />
		</g>
		<g
   id="g274_23_"
   transform="translate(36.5867,32.3413)">
			<path
   id="path276_23_"
   inkscape:connector-curvature="0"
   class="st0"
   d="m -271.6,495.4 c -4.2,0.5 -7.1,2.3 -7.1,4.3 0,2 2.9,3.7 7.1,4.3"
   style="fill:none;stroke:#000000;stroke-linecap:round;stroke-miterlimit:10" />
		</g>
		<g
   id="g278_20_"
   transform="translate(36.6293,32.4267)">
			<path
   id="path280_20_"
   inkscape:connector-curvature="0"
   class="st0"
   d="m -271.6,502.6 c 0.1,0 0.3,0 0.4,0 1.3,0 2.4,0.3 2.4,0.7 0,0.4 -1.1,0.7 -2.4,0.7 -0.1,0 -0.3,0 -0.4,0"
   style="fill:none;stroke:#000000;stroke-linecap:round;stroke-miterlimit:10" />
		</g>
		<g
   id="g274_22_"
   transform="translate(36.5867,32.3413)">
			<path
   id="path276_22_"
   inkscape:connector-curvature="0"
   class="st0"
   d="m -271.6,502.6 c -4.2,0.5 -7.1,2.3 -7.1,4.3 0,2 2.9,3.7 7.1,4.3"
   style="fill:none;stroke:#000000;stroke-linecap:round;stroke-miterlimit:10" />
		</g>
		<g
   id="g278_19_"
   transform="translate(36.6293,32.4267)">
			<path
   id="path280_19_"
   inkscape:connector-curvature="0"
   class="st0"
   d="m -271.6,509.8 c 0.1,0 0.3,0 0.4,0 1.3,0 2.4,0.3 2.4,0.7 0,0.4 -1.1,0.7 -2.4,0.7 -0.1,0 -0.3,0 -0.4,0"
   style="fill:none;stroke:#000000;stroke-linecap:round;stroke-miterlimit:10" />
		</g>
		<g
   id="g274_21_"
   transform="translate(36.5867,32.3413)">
			<path
   id="path276_21_"
   inkscape:connector-curvature="0"
   class="st0"
   d="m -271.6,509.9 c -4.2,0.5 -7.1,2.3 -7.1,4.3 0,2 2.9,3.7 7.1,4.3"
   style="fill:none;stroke:#000000;stroke-linecap:round;stroke-miterlimit:10" />
		</g>
		<g
   id="g278_18_"
   transform="translate(36.6293,32.4267)">
			<path
   id="path280_18_"
   inkscape:connector-curvature="0"
   class="st0"
   d="m -271.6,517 c 0.1,0 0.3,0 0.4,0 1.3,0 2.4,0.3 2.4,0.7 0,0.4 -1.1,0.7 -2.4,0.7 -0.1,0 -0.3,0 -0.4,0"
   style="fill:none;stroke:#000000;stroke-linecap:round;stroke-miterlimit:10" />
		</g>
		<g
   id="g274_20_"
   transform="translate(36.5867,32.3413)">
			<path
   id="path276_20_"
   inkscape:connector-curvature="0"
   class="st0"
   d="m -271.6,517.1 c -4.2,0.5 -7.1,2.3 -7.1,4.3 0,2 2.9,3.7 7.1,4.3"
   style="fill:none;stroke:#000000;stroke-linecap:round;stroke-miterlimit:10" />
		</g>
		<g
   id="g278_17_"
   transform="translate(36.6293,32.4267)">
			<path
   id="path280_17_"
   inkscape:connector-curvature="0"
   class="st0"
   d="m -271.6,524.2 c 0.1,0 0.3,0 0.4,0 1.3,0 2.4,0.3 2.4,0.7 0,0.4 -1.1,0.7 -2.4,0.7 -0.1,0 -0.3,0 -0.4,0"
   style="fill:none;stroke:#000000;stroke-linecap:round;stroke-miterlimit:10" />
		</g>
		<g
   id="g274_19_"
   transform="translate(36.5867,32.3413)">
			<path
   id="path276_19_"
   inkscape:connector-curvature="0"
   class="st0"
   d="m -271.6,524.3 c -4.2,0.5 -7.1,2.3 -7.1,4.3 0,2 2.9,3.7 7.1,4.3"
   style="fill:none;stroke:#000000;stroke-linecap:round;stroke-miterlimit:10" />
		</g>
		<g
   id="g278_16_"
   transform="translate(36.6293,32.4267)">
			<path
   id="path280_16_"
   inkscape:connector-curvature="0"
   class="st0"
   d="m -271.6,531.4 c 0.1,0 0.3,0 0.4,0 1.3,0 2.4,0.3 2.4,0.7 0,0.4 -1.1,0.7 -2.4,0.7 -0.1,0 -0.3,0 -0.4,0"
   style="fill:none;stroke:#000000;stroke-linecap:round;stroke-miterlimit:10" />
		</g>
		<g
   id="g274_18_"
   transform="translate(36.5867,32.3413)">
			<path
   id="path276_18_"
   inkscape:connector-curvature="0"
   class="st0"
   d="m -271.6,531.5 c -4.2,0.5 -7.1,2.3 -7.1,4.3 0,2 2.9,3.7 7.1,4.3"
   style="fill:none;stroke:#000000;stroke-linecap:round;stroke-miterlimit:10" />
		</g>
		<g
   id="g278_15_"
   transform="translate(36.6293,32.4267)">
			<path
   id="path280_15_"
   inkscape:connector-curvature="0"
   class="st0"
   d="m -271.6,538.7 c 0.1,0 0.3,0 0.4,0 1.3,0 2.4,0.3 2.4,0.7 0,0.4 -1.1,0.7 -2.4,0.7 -0.1,0 -0.3,0 -0.4,0"
   style="fill:none;stroke:#000000;stroke-linecap:round;stroke-miterlimit:10" />
		</g>
		<g
   id="g274_17_"
   transform="translate(36.5867,32.3413)">
			<path
   id="path276_17_"
   inkscape:connector-curvature="0"
   class="st0"
   d="m -271.6,538.7 c -4.2,0.5 -7.1,2.3 -7.1,4.3 0,2 2.9,3.7 7.1,4.3"
   style="fill:none;stroke:#000000;stroke-linecap:round;stroke-miterlimit:10" />
		</g>
	</g>
	<line
   class="st0"
   x1="-235"
   y1="582"
   x2="-235"
   y2="579.59998"
   id="line195"
   style="fill:none;stroke:#000000;stroke-linecap:round;stroke-miterlimit:10" />
	<line
   class="st0"
   x1="-235"
   y1="520.40002"
   x2="-235"
   y2="518"
   id="line197"
   style="fill:none;stroke:#000000;stroke-linecap:round;stroke-miterlimit:10" />
</g>
</svg>