<?xml version="1.0" encoding="UTF-8" standalone="no"?>
<svg
   id="svg256"
   width="64"
   height="128"
   viewBox="0 0 64 128"
   version="1.1"
   sodipodi:docname="t_3p3w_nnn_sld.svg"
   inkscape:version="1.1.1 (3bf5ae0d25, 2021-09-20)"
   xmlns:inkscape="http://www.inkscape.org/namespaces/inkscape"
   xmlns:sodipodi="http://sodipodi.sourceforge.net/DTD/sodipodi-0.dtd"
   xmlns="http://www.w3.org/2000/svg"
   xmlns:svg="http://www.w3.org/2000/svg">
  <defs
     id="defs3386" />
  <sodipodi:namedview
     id="namedview3384"
     pagecolor="#ffffff"
     bordercolor="#666666"
     borderopacity="1.0"
     inkscape:pageshadow="2"
     inkscape:pageopacity="0.0"
     inkscape:pagecheckerboard="0"
     showgrid="false"
     inkscape:zoom="8.6944256"
     inkscape:cx="14.31952"
     inkscape:cy="66.99695"
     inkscape:window-width="2560"
     inkscape:window-height="1377"
     inkscape:window-x="1912"
     inkscape:window-y="-8"
     inkscape:window-maximized="1"
     inkscape:current-layer="svg256" />
  <line
     x1="30.15"
     y1="16.111671"
     x2="30.15"
     y2="112.81043"
     style="fill:none;stroke:#000000;stroke-width:1;stroke-linecap:round;stroke-miterlimit:10;stroke-dasharray:none"
     id="line3295" />
  <line
     x1="34.360001"
     y1="16.111671"
     x2="34.360001"
     y2="112.81043"
     style="fill:none;stroke:#000000;stroke-width:1;stroke-linecap:round;stroke-miterlimit:10;stroke-dasharray:none"
     id="line3297" />
  <path
     id="path304"
     d="m 53,20.487974 c 0,1.66 1.34,3 3,3 1.66,0 3,-1.34 3,-3 0,-1.66 -1.34,-3 -3,-3 -1.66,0 -3,1.34 -3,3"
     style="fill:#0000ff" />
  <line
     x1="48.779999"
     y1="32"
     x2="64"
     y2="32"
     style="fill:none;stroke:#000000;stroke-width:1.5;stroke-linecap:round;stroke-linejoin:round;stroke-miterlimit:4;stroke-dasharray:none"
     id="line3304" />
  <path
     id="path276"
     d="m 45.99,17.037974 c -4.2,0.52 -7.12,2.26 -7.12,4.25 0,1.99 2.92,3.73 7.12,4.25"
     style="fill:none;stroke:#000000;stroke-linecap:round;stroke-miterlimit:10" />
  <path
     id="path280-3"
     data-name="path280"
     d="m 45.99,24.21 c 0.13,0 0.28,-0.01 0.41,-0.01 1.31,0 2.38,0.3 2.38,0.66 0,0.36 -1.07,0.66 -2.38,0.66 -0.13,0 -0.28,-0.01 -0.41,-0.01"
     style="fill:none;stroke:#000000;stroke-linecap:round;stroke-miterlimit:10" />
  <path
     id="path276-4"
     data-name="path276"
     d="m 45.99,24.21 c -4.2,0.52 -7.12,2.26 -7.12,4.25 0,1.99 2.92,3.73 7.12,4.25"
     style="fill:none;stroke:#000000;stroke-linecap:round;stroke-miterlimit:10" />
  <path
     id="path280-4"
     data-name="path280"
     d="m 45.99,31.42 c 0.13,0 0.28,-0.01 0.41,-0.01 1.31,0 2.38,0.3 2.38,0.66 0,0.36 -1.07,0.66 -2.38,0.66 -0.13,0 -0.28,-0.01 -0.41,-0.01"
     style="fill:none;stroke:#000000;stroke-linecap:round;stroke-miterlimit:10" />
  <path
     id="path276-5"
     data-name="path276"
     d="m 45.99,31.42 c -4.2,0.52 -7.12,2.26 -7.12,4.25 0,1.99 2.92,3.73 7.12,4.25"
     style="fill:none;stroke:#000000;stroke-linecap:round;stroke-miterlimit:10" />
  <path
     id="path280-5"
     data-name="path280"
     d="m 45.99,38.64 c 0.13,0 0.28,-0.01 0.41,-0.01 1.31,0 2.38,0.3 2.38,0.66 0,0.37 -1.07,0.66 -2.38,0.66 -0.13,0 -0.28,-0.01 -0.41,-0.01"
     style="fill:none;stroke:#000000;stroke-linecap:round;stroke-miterlimit:10" />
  <path
     id="path276-8"
     data-name="path276"
     d="m 45.99,38.67336 c -4.2,0.51999 -7.12,2.26 -7.12,4.25 0,1.98999 2.92,3.73 7.12,4.25"
     style="fill:none;stroke:#000000;stroke-linecap:round;stroke-miterlimit:10" />
  <line
     x1="45.990002"
     y1="49.593353"
     x2="45.990002"
     y2="47.18335"
     style="fill:none;stroke:#000000;stroke-linecap:round;stroke-miterlimit:10"
     id="line3321" />
  <line
     x1="45.990002"
     y1="16.89798"
     x2="45.990002"
     y2="14.487976"
     style="fill:none;stroke:#000000;stroke-linecap:round;stroke-miterlimit:10"
     id="line3323" />
  <path
     id="path304-2"
     data-name="path304"
     d="m 11,53.48798 c 0,1.66 -1.34,3 -3,3 -1.66,0 -3,-1.34 -3,-3 0,-1.66 1.34,-3 3,-3 1.66,0 3,1.34 3,3"
     style="fill:#0000ff" />
  <line
     x1="15.249186"
     y1="64"
     y2="64"
     style="fill:none;stroke:#000000;stroke-width:1.47053;stroke-linecap:round;stroke-linejoin:round;stroke-miterlimit:4;stroke-dasharray:none"
     id="line3330"
     x2="0.62144506" />
  <path
     id="path276-9"
     data-name="path276"
     d="m 18.01,49.03798 c 4.2,0.52 7.12,2.26 7.12,4.25 0,1.99 -2.92,3.73 -7.12,4.25"
     style="fill:none;stroke:#000000;stroke-linecap:round;stroke-miterlimit:10" />
  <path
     id="path280-10"
     data-name="path280"
     d="m 18.01,56.21 c -0.13,0 -0.28,-0.01 -0.41,-0.01 -1.31,0 -2.38,0.3 -2.38,0.66 0,0.36 1.07,0.66 2.38,0.66 0.13,0 0.28,-0.01 0.41,-0.01"
     style="fill:none;stroke:#000000;stroke-linecap:round;stroke-miterlimit:10" />
  <path
     id="path276-12"
     data-name="path276"
     d="m 18.01,56.21 c 4.2,0.52 7.12,2.26 7.12,4.25 0,1.99 -2.92,3.73 -7.12,4.25"
     style="fill:none;stroke:#000000;stroke-linecap:round;stroke-miterlimit:10" />
  <path
     id="path280-11"
     data-name="path280"
     d="m 18.01,63.42 c -0.13,0 -0.28,-0.01 -0.41,-0.01 -1.31,0 -2.38,0.3 -2.38,0.66 0,0.36 1.07,0.66 2.38,0.66 0.13,0 0.28,-0.01 0.41,-0.01"
     style="fill:none;stroke:#000000;stroke-linecap:round;stroke-miterlimit:10" />
  <path
     id="path276-13"
     data-name="path276"
     d="m 18.01,63.42 c 4.2,0.52 7.12,2.26 7.12,4.25 0,1.99 -2.92,3.73 -7.12,4.25"
     style="fill:none;stroke:#000000;stroke-linecap:round;stroke-miterlimit:10" />
  <path
     id="path280-12"
     data-name="path280"
     d="m 18.01,70.64 c -0.13,0 -0.28,-0.01 -0.41,-0.01 -1.31,0 -2.38,0.3 -2.38,0.66 0,0.37 1.07,0.66 2.38,0.66 0.13,0 0.28,-0.01 0.41,-0.01"
     style="fill:none;stroke:#000000;stroke-linecap:round;stroke-miterlimit:10" />
  <path
     id="path276-16"
     data-name="path276"
     d="m 18.01,70.67335 c 4.2,0.52 7.12,2.26 7.12,4.25 0,1.99 -2.92,3.73 -7.12,4.25"
     style="fill:none;stroke:#000000;stroke-linecap:round;stroke-miterlimit:10" />
  <line
     x1="18.01"
     y1="81.593353"
     x2="18.01"
     y2="79.18335"
     style="fill:none;stroke:#000000;stroke-linecap:round;stroke-miterlimit:10"
     id="line3347" />
  <line
     x1="18.01"
     y1="48.89798"
     x2="18.01"
     y2="46.487984"
     style="fill:none;stroke:#000000;stroke-linecap:round;stroke-miterlimit:10"
     id="line3349" />
  <path
     id="path304-3"
     data-name="path304"
     d="m 53,84.48798 c 0,1.66 1.34,3 3,3 1.66,0 3,-1.34 3,-3 0,-1.66 -1.34,-3 -3,-3 -1.66,0 -3,1.34 -3,3"
     style="fill:#0000ff" />
  <line
     x1="48.779999"
     y1="96"
     x2="64"
     y2="96"
     style="fill:none;stroke:#000000;stroke-width:1.5;stroke-linecap:round;stroke-linejoin:round;stroke-miterlimit:4;stroke-dasharray:none"
     id="line3356" />
  <path
     id="path276-17"
     data-name="path276"
     d="m 45.99,81.03798 c -4.2,0.52 -7.12,2.26 -7.12,4.25 0,1.99 2.92,3.73 7.12,4.25"
     style="fill:none;stroke:#000000;stroke-linecap:round;stroke-miterlimit:10" />
  <path
     id="path280-17"
     data-name="path280"
     d="m 45.99,88.21 c 0.13,0 0.28,-0.01 0.41,-0.01 1.31,0 2.38,0.3 2.38,0.66 0,0.36 -1.07,0.66 -2.38,0.66 -0.13,0 -0.28,-0.01 -0.41,-0.01"
     style="fill:none;stroke:#000000;stroke-linecap:round;stroke-miterlimit:10" />
  <path
     id="path276-20"
     data-name="path276"
     d="m 45.99,88.21 c -4.2,0.52 -7.12,2.26 -7.12,4.25 0,1.99 2.92,3.73 7.12,4.25"
     style="fill:none;stroke:#000000;stroke-linecap:round;stroke-miterlimit:10" />
  <path
     id="path280-18"
     data-name="path280"
     d="m 45.99,95.42 c 0.13,0 0.28,-0.01 0.41,-0.01 1.31,0 2.38,0.3 2.38,0.66 0,0.36 -1.07,0.66 -2.38,0.66 -0.13,0 -0.28,-0.01 -0.41,-0.01"
     style="fill:none;stroke:#000000;stroke-linecap:round;stroke-miterlimit:10" />
  <path
     id="path276-21"
     data-name="path276"
     d="m 45.99,95.42 c -4.2,0.52 -7.12,2.26 -7.12,4.25 0,1.99 2.92,3.73 7.12,4.25"
     style="fill:none;stroke:#000000;stroke-linecap:round;stroke-miterlimit:10" />
  <path
     id="path280-19"
     data-name="path280"
     d="m 45.99,102.64 c 0.13,0 0.28,-0.01 0.41,-0.01 1.31,0 2.38,0.3 2.38,0.66 0,0.37 -1.07,0.66 -2.38,0.66 -0.13,0 -0.28,-0.01 -0.41,-0.01"
     style="fill:none;stroke:#000000;stroke-linecap:round;stroke-miterlimit:10" />
  <path
     id="path276-24"
     data-name="path276"
     d="m 45.99,102.67335 c -4.2,0.52 -7.12,2.26 -7.12,4.25 0,1.99 2.92,3.73 7.12,4.25"
     style="fill:none;stroke:#000000;stroke-linecap:round;stroke-miterlimit:10" />
  <line
     x1="45.990002"
     y1="113.59335"
     x2="45.990002"
     y2="111.18335"
     style="fill:none;stroke:#000000;stroke-linecap:round;stroke-miterlimit:10"
     id="line3373" />
  <line
     x1="45.990002"
     y1="80.89798"
     x2="45.990002"
     y2="78.487984"
     style="fill:none;stroke:#000000;stroke-linecap:round;stroke-miterlimit:10"
     id="line3375" />
</svg>
