<?xml version="1.0" encoding="UTF-8" standalone="no"?>
<svg
   id="svg256"
   width="64"
   height="64"
   viewBox="0 0 64 64"
   version="1.1"
   sodipodi:docname="t_3p2w_nn_sld.svg"
   inkscape:version="1.1.1 (3bf5ae0d25, 2021-09-20)"
   xmlns:inkscape="http://www.inkscape.org/namespaces/inkscape"
   xmlns:sodipodi="http://sodipodi.sourceforge.net/DTD/sodipodi-0.dtd"
   xmlns="http://www.w3.org/2000/svg"
   xmlns:svg="http://www.w3.org/2000/svg">
  <defs
     id="defs1499" />
  <sodipodi:namedview
     id="namedview1497"
     pagecolor="#ffffff"
     bordercolor="#666666"
     borderopacity="1.0"
     inkscape:pageshadow="2"
     inkscape:pageopacity="0.0"
     inkscape:pagecheckerboard="0"
     showgrid="false"
     inkscape:zoom="9.4274194"
     inkscape:cx="31.98118"
     inkscape:cy="36.542344"
     inkscape:window-width="2560"
     inkscape:window-height="1377"
     inkscape:window-x="1912"
     inkscape:window-y="-8"
     inkscape:window-maximized="1"
     inkscape:current-layer="svg256" />
  <line
     x1="30.15"
     y1="16.178217"
     x2="30.15"
     y2="47.924431"
     style="fill:none;stroke:#000000;stroke-width:0.732417;stroke-linecap:round;stroke-miterlimit:10"
     id="line1434" />
  <line
     x1="34.483253"
     y1="16.286747"
     x2="34.483253"
     y2="48.028046"
     style="fill:none;stroke:#000000;stroke-width:1.13386;stroke-linecap:round;stroke-miterlimit:10;stroke-dasharray:none"
     id="line1436" />
  <path
     id="path304"
     d="m 11,20 c 0,1.66 -1.34,3 -3,3 -1.66,0 -3,-1.34 -3,-3 0,-1.66 1.34,-3 3,-3 1.66,0 3,1.34 3,3"
     style="fill:#0000ff" />
  <line
     x1="15.266863"
     y1="31.575706"
     y2="31.575706"
     style="fill:none;stroke:#000000;stroke-width:1.8423;stroke-linecap:round;stroke-linejoin:round;stroke-miterlimit:4;stroke-dasharray:none"
     id="line1443"
     x2="0.80172545" />
  <path
     id="path276"
     d="m 18.01,16.55 c 4.2,0.52 7.12,2.26 7.12,4.25 0,1.99 -2.92,3.73 -7.12,4.25"
     style="fill:none;stroke:#000000;stroke-linecap:round;stroke-miterlimit:10" />
  <path
     id="path280"
     d="m 18.01,23.77 c -0.13,0 -0.28,-0.01 -0.41,-0.01 -1.31,0 -2.38,0.3 -2.38,0.66 0,0.36 1.07,0.66 2.38,0.66 0.13,0 0.28,-0.01 0.41,-0.01"
     style="fill:none;stroke:#000000;stroke-linecap:round;stroke-miterlimit:10" />
  <path
     id="path276-2"
     data-name="path276"
     d="m 18.01,23.77 c 4.2,0.52 7.12,2.26 7.12,4.25 0,1.99 -2.92,3.73 -7.12,4.25"
     style="fill:none;stroke:#000000;stroke-linecap:round;stroke-miterlimit:10" />
  <path
     id="path280-2"
     data-name="path280"
     d="m 18.01,30.99 c -0.13,0 -0.28,-0.01 -0.41,-0.01 -1.31,0 -2.38,0.3 -2.38,0.66 0,0.36 1.07,0.66 2.38,0.66 0.13,0 0.28,-0.01 0.41,-0.01"
     style="fill:none;stroke:#000000;stroke-linecap:round;stroke-miterlimit:10" />
  <path
     id="path276-3"
     data-name="path276"
     d="m 18.01,30.99 c 4.2,0.52 7.12,2.26 7.12,4.25 0,1.99 -2.92,3.73 -7.12,4.25"
     style="fill:none;stroke:#000000;stroke-linecap:round;stroke-miterlimit:10" />
  <path
     id="path280-3"
     data-name="path280"
     d="m 18.01,38.21 c -0.13,0 -0.28,-0.01 -0.41,-0.01 -1.31,0 -2.38,0.3 -2.38,0.66 0,0.36 1.07,0.66 2.38,0.66 0.13,0 0.28,-0.01 0.41,-0.01"
     style="fill:none;stroke:#000000;stroke-linecap:round;stroke-miterlimit:10" />
  <path
     id="path276-8"
     data-name="path276"
     d="m 18.01,38.14074 c 4.2,0.52 7.12,2.26 7.12,4.25 0,1.99 -2.92,3.73 -7.12,4.25"
     style="fill:none;stroke:#000000;stroke-linecap:round;stroke-miterlimit:10" />
  <line
     x1="18.01"
     y1="49.060753"
     x2="18.01"
     y2="46.650749"
     style="fill:none;stroke:#000000;stroke-linecap:round;stroke-miterlimit:10"
     id="line1460" />
  <line
     x1="18.01"
     y1="16.41"
     x2="18.01"
     y2="14"
     style="fill:none;stroke:#000000;stroke-linecap:round;stroke-miterlimit:10"
     id="line1462" />
  <path
     id="path304-2"
     data-name="path304"
     d="m 53,20 c 0,1.66 1.34,3 3,3 1.66,0 3,-1.34 3,-3 0,-1.66 -1.34,-3 -3,-3 -1.66,0 -3,1.34 -3,3"
     style="fill:#0000ff" />
  <line
     x1="48.738995"
     y1="31.575706"
     x2="63.298489"
     y2="31.575706"
     style="fill:none;stroke:#000000;stroke-width:1.8483;stroke-linecap:round;stroke-linejoin:round;stroke-miterlimit:4;stroke-dasharray:none"
     id="line1469" />
  <path
     id="path276-9"
     data-name="path276"
     d="m 45.99,16.55 c -4.2,0.52 -7.12,2.26 -7.12,4.25 0,1.99 2.92,3.73 7.12,4.25"
     style="fill:none;stroke:#000000;stroke-linecap:round;stroke-miterlimit:10" />
  <path
     id="path280-8"
     data-name="path280"
     d="m 45.99,23.77 c 0.13,0 0.28,-0.01 0.41,-0.01 1.31,0 2.38,0.3 2.38,0.66 0,0.36 -1.07,0.66 -2.38,0.66 -0.13,0 -0.28,-0.01 -0.41,-0.01"
     style="fill:none;stroke:#000000;stroke-linecap:round;stroke-miterlimit:10" />
  <path
     id="path276-10"
     data-name="path276"
     d="m 45.99,23.77 c -4.2,0.52 -7.12,2.26 -7.12,4.25 0,1.99 2.92,3.73 7.12,4.25"
     style="fill:none;stroke:#000000;stroke-linecap:round;stroke-miterlimit:10" />
  <path
     id="path280-9"
     data-name="path280"
     d="m 45.99,30.99 c 0.13,0 0.28,-0.01 0.41,-0.01 1.31,0 2.38,0.3 2.38,0.66 0,0.36 -1.07,0.66 -2.38,0.66 -0.13,0 -0.28,-0.01 -0.41,-0.01"
     style="fill:none;stroke:#000000;stroke-linecap:round;stroke-miterlimit:10" />
  <path
     id="path276-11"
     data-name="path276"
     d="m 45.99,30.99 c -4.2,0.52 -7.12,2.26 -7.12,4.25 0,1.99 2.92,3.73 7.12,4.25"
     style="fill:none;stroke:#000000;stroke-linecap:round;stroke-miterlimit:10" />
  <path
     id="path280-10"
     data-name="path280"
     d="m 45.99,38.21 c 0.13,0 0.28,-0.01 0.41,-0.01 1.31,0 2.38,0.3 2.38,0.66 0,0.36 -1.07,0.66 -2.38,0.66 -0.13,0 -0.28,-0.01 -0.41,-0.01"
     style="fill:none;stroke:#000000;stroke-linecap:round;stroke-miterlimit:10" />
  <path
     id="path276-16"
     data-name="path276"
     d="m 45.99,38.14074 c -4.2,0.52 -7.12,2.26 -7.12,4.25 0,1.99 2.92,3.73 7.12,4.25"
     style="fill:none;stroke:#000000;stroke-linecap:round;stroke-miterlimit:10" />
  <line
     x1="45.990002"
     y1="49.060753"
     x2="45.990002"
     y2="46.650749"
     style="fill:none;stroke:#000000;stroke-linecap:round;stroke-miterlimit:10"
     id="line1486" />
  <line
     x1="45.990002"
     y1="16.41"
     x2="45.990002"
     y2="14"
     style="fill:none;stroke:#000000;stroke-linecap:round;stroke-miterlimit:10"
     id="line1488" />
  <line
     x1="30.026747"
     y1="16.286747"
     x2="30.026747"
     y2="48.028046"
     style="fill:none;stroke:#000000;stroke-width:1.13386;stroke-linecap:round;stroke-miterlimit:10;stroke-dasharray:none"
     id="line1490" />
</svg>
