<?xml version="1.0" encoding="UTF-8"?>
<svg id="svg256" xmlns="http://www.w3.org/2000/svg" width="64" height="32" viewBox="0 0 64 32">
  <path id="path304" d="M56,19c-1.66,0-3,1.34-3,3,0,1.66,1.34,3,3,3,1.66,0,3-1.34,3-3,0-1.66-1.34-3-3-3" style="fill: blue;"/>
  <line x1="24.52" y1="16" x2="0" y2="15.99" style="fill: none; stroke: #000; stroke-linecap: round; stroke-miterlimit: 10;"/>
  <line x1="64" y1="16.01" x2="39.52" y2="16" style="fill: none; stroke: #000; stroke-linecap: round; stroke-miterlimit: 10;"/>
  <path id="path888" d="M32.02,8.5c4.14,0,7.5,3.36,7.5,7.5s-3.36,7.5-7.5,7.5-7.5-3.36-7.5-7.5,3.36-7.5,7.5-7.5Z" style="fill: none; stroke: #000; stroke-linecap: round; stroke-linejoin: round;"/>
  <path id="path900" d="M32.02,16c-3.34,1.67-3.34,3.34,0,5" style="fill: none; stroke: #000; stroke-linecap: round; stroke-linejoin: round;"/>
  <path id="path904" d="M32.02,11c3.34,1.67,3.34,3.34,0,5" style="fill: none; stroke: #000; stroke-linecap: round; stroke-linejoin: round;"/>
</svg>