<?xml version="1.0" encoding="UTF-8"?>
<svg id="svg256" xmlns="http://www.w3.org/2000/svg" width="64" height="64" viewBox="0 0 64 64">
  <path id="path304" d="M56,19c-1.66,0-3,1.34-3,3,0,1.66,1.34,3,3,3,1.66,0,3-1.34,3-3,0-1.66-1.34-3-3-3" style="fill: blue;"/>
  <line x1="64" y1="16" x2="10.58" y2="16.01" style="fill: none; stroke: #000; stroke-miterlimit: 10;"/>
  <line x1="39.04" y1="48.02" x2="29.04" y2="48.01" style="fill: none; stroke: #000; stroke-linecap: round; stroke-miterlimit: 10;"/>
  <line x1="64" y1="48.02" x2="54.04" y2="48.02" style="fill: none; stroke: #000; stroke-linecap: round; stroke-miterlimit: 10;"/>
  <path id="path888" d="M46.54,40.52c4.14,0,7.5,3.36,7.5,7.5s-3.36,7.5-7.5,7.5-7.5-3.36-7.5-7.5,3.36-7.5,7.5-7.5Z" style="fill: none; stroke: #000; stroke-linecap: round; stroke-linejoin: round;"/>
  <path id="path900" d="M46.54,48.02c-3.34,1.67-3.34,3.34,0,5" style="fill: none; stroke: #000; stroke-linecap: round; stroke-linejoin: round;"/>
  <path id="path904" d="M46.54,43.01c3.34,1.67,3.34,3.34,0,5" style="fill: none; stroke: #000; stroke-linecap: round; stroke-linejoin: round;"/>
  <line x1="24.04" y1="39.35" x2="29.04" y2="48.01" style="fill: none; stroke: #000; stroke-linecap: round; stroke-miterlimit: 10;"/>
  <path id="path888-2" data-name="path888" d="M13.8,36.6c-2.07-3.59-.84-8.17,2.75-10.25s8.17-.84,10.25,2.75,.84,8.17-2.75,10.25-8.17,.84-10.25-2.75Z" style="fill: none; stroke: #000; stroke-linecap: round; stroke-linejoin: round;"/>
  <path id="path900-2" data-name="path900" d="M20.29,32.85c3.11,2.05,4.56,1.22,4.33-2.5" style="fill: none; stroke: #000; stroke-linecap: round; stroke-linejoin: round;"/>
  <path id="path904-2" data-name="path904" d="M15.96,35.35c-.22-3.72,1.22-4.56,4.33-2.5" style="fill: none; stroke: #000; stroke-linecap: round; stroke-linejoin: round;"/>
  <line x1="10.58" y1="16.01" x2="16.54" y2="26.36" style="fill: none; stroke: #000; stroke-linecap: round; stroke-miterlimit: 10;"/>
  <line id="line72-2" x1="20.2" y1="60.35" x2="22.59" y2="61.73" style="fill: none; stroke: #000; stroke-linecap: round; stroke-miterlimit: 10;"/>
  <line id="line74-4" x1="20.38" y1="58.38" x2="24.26" y2="60.62" style="fill: none; stroke: #000; stroke-linecap: round; stroke-miterlimit: 10;"/>
  <line id="line76-7" x1="20.65" y1="56.4" x2="25.84" y2="59.4" style="fill: none; stroke: #000; stroke-linecap: round; stroke-miterlimit: 10;"/>
  <line x1="29.04" y1="48.01" x2="23.22" y2="57.88" style="fill: none; stroke: #000; stroke-linecap: round; stroke-linejoin: round;"/>
</svg>