<?xml version="1.0" encoding="UTF-8" standalone="no"?>
<!-- Created with Inkscape (http://www.inkscape.org/) -->

<svg
   xmlns:dc="http://purl.org/dc/elements/1.1/"
   xmlns:cc="http://creativecommons.org/ns#"
   xmlns:rdf="http://www.w3.org/1999/02/22-rdf-syntax-ns#"
   xmlns:svg="http://www.w3.org/2000/svg"
   xmlns="http://www.w3.org/2000/svg"
   xmlns:sodipodi="http://sodipodi.sourceforge.net/DTD/sodipodi-0.dtd"
   xmlns:inkscape="http://www.inkscape.org/namespaces/inkscape"
   version="1.1"
   id="svg21"
   xml:space="preserve"
   width="175"
   height="175.09381"
   viewBox="0 0 175 175.09381"
   sodipodi:docname="mchn_wrsync_generic1.svg"
   inkscape:version="0.92.3 (2405546, 2018-03-11)"><metadata
     id="metadata27"><rdf:RDF><cc:Work
         rdf:about=""><dc:format>image/svg+xml</dc:format><dc:type
           rdf:resource="http://purl.org/dc/dcmitype/StillImage" /><dc:title /></cc:Work></rdf:RDF></metadata><defs
     id="defs25"><clipPath
       clipPathUnits="userSpaceOnUse"
       id="clipPath37"><path
         d="M 0,176 H 176 V 0 H 0 Z"
         id="path35"
         inkscape:connector-curvature="0" /></clipPath><clipPath
       clipPathUnits="userSpaceOnUse"
       id="clipPath169"><path
         d="m 112.501,176.004 h 63.503 V 132 h -63.503 z"
         id="path167"
         inkscape:connector-curvature="0" /></clipPath></defs><sodipodi:namedview
     pagecolor="#ffffff"
     bordercolor="#666666"
     borderopacity="1"
     objecttolerance="10"
     gridtolerance="10"
     guidetolerance="10"
     inkscape:pageopacity="0"
     inkscape:pageshadow="2"
     inkscape:window-width="2560"
     inkscape:window-height="1377"
     id="namedview23"
     showgrid="false"
     inkscape:zoom="5.6889954"
     inkscape:cx="77.717933"
     inkscape:cy="114.02461"
     inkscape:window-x="1912"
     inkscape:window-y="-8"
     inkscape:window-maximized="1"
     inkscape:current-layer="g33" /><g
     id="g29"
     inkscape:groupmode="layer"
     inkscape:label="mchn_wrsync_generic"
     transform="matrix(1.3333333,0,0,-1.3333333,-0.12573732,175.09382)"><g
       id="g31"
       transform="matrix(-0.74613845,0,0,0.74613845,131.41467,0)"><g
         id="g33"
         clip-path="url(#clipPath37)"><g
           id="g39"
           transform="translate(88,158)"><path
             d="M 0,0 C 38.936,0 70.5,-31.564 70.5,-70.5 70.5,-109.436 38.936,-141 0,-141 c -38.936,0 -70.5,31.564 -70.5,70.5 C -70.5,-31.564 -38.936,0 0,0"
             style="fill:#ffffff;fill-opacity:1;fill-rule:nonzero;stroke:none"
             id="path41"
             inkscape:connector-curvature="0" /></g><g
           id="g43"
           transform="translate(88,158)"><path
             d="M 0,0 C 38.936,0 70.5,-31.564 70.5,-70.5 70.5,-109.436 38.936,-141 0,-141 c -38.936,0 -70.5,31.564 -70.5,70.5 C -70.5,-31.564 -38.936,0 0,0 Z"
             style="fill:none;stroke:#000000;stroke-width:2.4000001;stroke-linecap:round;stroke-linejoin:round;stroke-miterlimit:4;stroke-dasharray:none;stroke-opacity:1"
             id="path45"
             inkscape:connector-curvature="0" /></g><g
           id="g47"
           transform="translate(88,146)"><path
             d="M 0,0 C 32.309,0 58.5,-26.191 58.5,-58.5 58.5,-90.809 32.309,-117 0,-117 c -32.309,0 -58.5,26.191 -58.5,58.5 C -58.5,-26.191 -32.309,0 0,0"
             style="fill:#c9c9c9;fill-opacity:1;fill-rule:nonzero;stroke:none"
             id="path49"
             inkscape:connector-curvature="0" /></g><g
           id="g51"
           transform="translate(88,146)"><path
             d="M 0,0 C 32.309,0 58.5,-26.191 58.5,-58.5 58.5,-90.809 32.309,-117 0,-117 c -32.309,0 -58.5,26.191 -58.5,58.5 C -58.5,-26.191 -32.309,0 0,0 Z"
             style="fill:none;stroke:#000000;stroke-width:2.4000001;stroke-linecap:round;stroke-linejoin:round;stroke-miterlimit:4;stroke-dasharray:none;stroke-opacity:1"
             id="path53"
             inkscape:connector-curvature="0" /></g><g
           id="g55"
           transform="translate(0.5,88)"><path
             d="M 0,0 H 16.541"
             style="fill:none;stroke:#000000;stroke-width:0.80000001;stroke-linecap:round;stroke-linejoin:miter;stroke-miterlimit:4;stroke-dasharray:none;stroke-opacity:1"
             id="path57"
             inkscape:connector-curvature="0" /></g><g
           id="g59"
           transform="translate(0.5,56)"><path
             d="M 0,0 H 15"
             style="fill:none;stroke:#000000;stroke-width:0.80000001;stroke-linecap:round;stroke-linejoin:miter;stroke-miterlimit:4;stroke-dasharray:none;stroke-opacity:1"
             id="path61"
             inkscape:connector-curvature="0" /></g><g
           id="g63"
           transform="translate(0.5,120)"><path
             d="M 0,0 H 15"
             style="fill:none;stroke:#000000;stroke-width:0.80000001;stroke-linecap:round;stroke-linejoin:miter;stroke-miterlimit:4;stroke-dasharray:none;stroke-opacity:1"
             id="path65"
             inkscape:connector-curvature="0" /></g><g
           id="g67"
           transform="translate(15.5,120)"><path
             d="M 0,0 8.599,-3.733"
             style="fill:none;stroke:#000000;stroke-width:0.80000001;stroke-linecap:round;stroke-linejoin:miter;stroke-miterlimit:4;stroke-dasharray:none;stroke-opacity:1"
             id="path69"
             inkscape:connector-curvature="0" /></g><g
           id="g71"
           transform="translate(15.5,56)"><path
             d="M 0,0 8.408,3.43"
             style="fill:none;stroke:#000000;stroke-width:0.80000001;stroke-linecap:round;stroke-linejoin:miter;stroke-miterlimit:4;stroke-dasharray:none;stroke-opacity:1"
             id="path73"
             inkscape:connector-curvature="0" /></g><g
           id="g75"
           transform="translate(106.1795,117.134)"><path
             d="m 0,0 v -59.447 h 12.318 c 0,-7.516 -5.797,-14.107 -15.206,-17.866 -9.409,-3.758 -21,-3.758 -30.409,0 -9.408,3.759 -15.212,10.35 -15.212,17.866 h 11.956 V 0 h -12.131 c 0,7.516 5.796,14.293 15.205,18.05 9.408,3.758 21,3.758 30.409,0 C 6.338,14.292 12.134,7.516 12.134,0 Z"
             style="fill:#ffffff;fill-opacity:1;fill-rule:nonzero;stroke:none"
             id="path77"
             inkscape:connector-curvature="0" /></g><g
           id="g79"
           transform="translate(106.1795,117.134)"><path
             d="m 0,0 v -59.447 h 12.318 c 0,-7.516 -5.797,-14.107 -15.206,-17.866 -9.409,-3.758 -21,-3.758 -30.409,0 -9.408,3.759 -15.212,10.35 -15.212,17.866 h 11.956 V 0 h -12.131 c 0,7.516 5.796,14.293 15.205,18.05 9.408,3.758 21,3.758 30.409,0 C 6.338,14.292 12.134,7.516 12.134,0 Z"
             style="fill:none;stroke:#000000;stroke-width:2.4000001;stroke-linecap:round;stroke-linejoin:round;stroke-miterlimit:3;stroke-dasharray:none;stroke-opacity:1"
             id="path81"
             inkscape:connector-curvature="0" /></g><g
           id="g83"
           transform="translate(107.146,108)"><path
             d="M 0,0 H 16.937"
             style="fill:none;stroke:#2b3990;stroke-width:1.5;stroke-linecap:round;stroke-linejoin:miter;stroke-miterlimit:4;stroke-dasharray:none;stroke-opacity:1"
             id="path85"
             inkscape:connector-curvature="0" /></g><g
           id="g87"
           transform="translate(68.836,100.057)"><path
             d="m 0,0 c -1.052,0 -2.024,0.756 -2.55,1.985 -0.526,1.229 -0.526,2.743 0,3.972 0.526,1.229 1.498,1.986 2.55,1.986"
             style="fill:none;stroke:#2b3990;stroke-width:1.5;stroke-linecap:round;stroke-linejoin:round;stroke-miterlimit:3;stroke-dasharray:none;stroke-opacity:1"
             id="path89"
             inkscape:connector-curvature="0" /></g><g
           id="g91"
           transform="translate(68.836,92.111)"><path
             d="M 0,0 H 38.311"
             style="fill:none;stroke:#2b3990;stroke-width:1.5;stroke-linecap:round;stroke-linejoin:miter;stroke-miterlimit:4;stroke-dasharray:none;stroke-opacity:1"
             id="path93"
             inkscape:connector-curvature="0" /></g><g
           id="g95"
           transform="translate(107.146,100.057)"><path
             d="m 0,0 c 1.053,0 2.024,-0.758 2.551,-1.986 0.525,-1.229 0.525,-2.743 0,-3.973 C 2.026,-7.188 1.053,-7.945 0,-7.945"
             style="fill:none;stroke:#2b3990;stroke-width:1.5;stroke-linecap:round;stroke-linejoin:round;stroke-miterlimit:3;stroke-dasharray:none;stroke-opacity:1"
             id="path97"
             inkscape:connector-curvature="0" /></g><g
           id="g99"
           transform="translate(68.836,84.166)"><path
             d="m 0,0 c -1.052,0 -2.024,0.758 -2.55,1.986 -0.526,1.228 -0.526,2.742 0,3.973 0.526,1.229 1.498,1.986 2.55,1.986"
             style="fill:none;stroke:#2b3990;stroke-width:1.5;stroke-linecap:round;stroke-linejoin:round;stroke-miterlimit:3;stroke-dasharray:none;stroke-opacity:1"
             id="path101"
             inkscape:connector-curvature="0" /></g><g
           id="g103"
           transform="translate(68.836,76.221)"><path
             d="M 0,0 H 38.311"
             style="fill:none;stroke:#2b3990;stroke-width:1.5;stroke-linecap:round;stroke-linejoin:miter;stroke-miterlimit:4;stroke-dasharray:none;stroke-opacity:1"
             id="path105"
             inkscape:connector-curvature="0" /></g><g
           id="g107"
           transform="translate(107.146,84.166)"><path
             d="m 0,0 c 1.053,0 2.024,-0.757 2.551,-1.986 0.525,-1.229 0.525,-2.742 0,-3.973 C 2.026,-7.188 1.053,-7.945 0,-7.945"
             style="fill:none;stroke:#2b3990;stroke-width:1.5;stroke-linecap:round;stroke-linejoin:round;stroke-miterlimit:3;stroke-dasharray:none;stroke-opacity:1"
             id="path109"
             inkscape:connector-curvature="0" /></g><g
           id="g111"
           transform="translate(68.836,68.275)"><path
             d="m 0,0 c -1.052,0 -2.024,0.758 -2.55,1.986 -0.526,1.229 -0.526,2.743 0,3.973 0.526,1.23 1.498,1.985 2.55,1.985"
             style="fill:none;stroke:#2b3990;stroke-width:1.5;stroke-linecap:round;stroke-linejoin:round;stroke-miterlimit:3;stroke-dasharray:none;stroke-opacity:1"
             id="path113"
             inkscape:connector-curvature="0" /></g><g
           id="g115"
           transform="translate(68.836,108)"><path
             d="M 0,0 H 38.311"
             style="fill:none;stroke:#2b3990;stroke-width:1.5;stroke-linecap:round;stroke-linejoin:miter;stroke-miterlimit:4;stroke-dasharray:none;stroke-opacity:1"
             id="path117"
             inkscape:connector-curvature="0" /></g><g
           id="g119"
           transform="translate(124.846,27.161)"><path
             d="M 0,0 14,-26 H -87.692 l 14,26"
             style="fill:none;stroke:#000000;stroke-width:2.4000001;stroke-linecap:round;stroke-linejoin:round;stroke-miterlimit:4;stroke-dasharray:none;stroke-opacity:1"
             id="path121"
             inkscape:connector-curvature="0" /></g><g
           id="g123"
           transform="translate(137.6667,88.5833)"><path
             d="m 0,0 c 0,-7.502 -6.081,-13.583 -13.583,-13.583 -7.502,0 -13.584,6.081 -13.584,13.583 0,7.502 6.082,13.583 13.584,13.583 C -6.081,13.583 0,7.502 0,0"
             style="fill:#ffffff;fill-opacity:1;fill-rule:nonzero;stroke:none"
             id="path125"
             inkscape:connector-curvature="0" /></g><g
           id="g127"
           transform="translate(137.6667,88.5833)"><path
             d="m 0,0 c 0,-7.502 -6.081,-13.583 -13.583,-13.583 -7.502,0 -13.584,6.081 -13.584,13.583 0,7.502 6.082,13.583 13.584,13.583 C -6.081,13.583 0,7.502 0,0 Z"
             style="fill:none;stroke:#2b3990;stroke-width:1.5;stroke-linecap:butt;stroke-linejoin:miter;stroke-miterlimit:10;stroke-dasharray:none;stroke-opacity:1"
             id="path129"
             inkscape:connector-curvature="0" /></g><g
           id="g131"
           transform="translate(107.1184,68.275)"><path
             d="M 0,0 H 16.965"
             style="fill:none;stroke:#2b3990;stroke-width:1.5;stroke-linecap:round;stroke-linejoin:miter;stroke-miterlimit:4;stroke-dasharray:none;stroke-opacity:1"
             id="path133"
             inkscape:connector-curvature="0" /></g><g
           id="g135"
           transform="translate(124.0833,98.6667)"><path
             d="M 0,0 V -5.667"
             style="fill:none;stroke:#2b3990;stroke-width:1.5;stroke-linecap:round;stroke-linejoin:miter;stroke-miterlimit:4;stroke-dasharray:none;stroke-opacity:1"
             id="path137"
             inkscape:connector-curvature="0" /></g><g
           id="g139"
           transform="translate(120.6667,96.0845)"><path
             d="M 0,0 H 6.833"
             style="fill:none;stroke:#2b3990;stroke-width:1.5;stroke-linecap:round;stroke-linejoin:miter;stroke-miterlimit:4;stroke-dasharray:none;stroke-opacity:1"
             id="path141"
             inkscape:connector-curvature="0" /></g><g
           id="g143"
           transform="translate(121.6667,81)"><path
             d="M 0,0 H 5.833"
             style="fill:none;stroke:#2b3990;stroke-width:1.5;stroke-linecap:round;stroke-linejoin:miter;stroke-miterlimit:4;stroke-dasharray:none;stroke-opacity:1"
             id="path145"
             inkscape:connector-curvature="0" /></g><g
           id="g147"
           transform="translate(124.0833,68.275)"><path
             d="M 0,0 V 6.725"
             style="fill:none;stroke:#2b3990;stroke-width:1.5;stroke-linecap:round;stroke-linejoin:miter;stroke-miterlimit:4;stroke-dasharray:none;stroke-opacity:1"
             id="path149"
             inkscape:connector-curvature="0" /></g><g
           id="g151"
           transform="translate(124.0833,108)"><path
             d="M 0,0 V -5.833"
             style="fill:none;stroke:#2b3990;stroke-width:1.5;stroke-linecap:round;stroke-linejoin:miter;stroke-miterlimit:4;stroke-dasharray:none;stroke-opacity:1"
             id="path153"
             inkscape:connector-curvature="0" /></g><g
           id="g155"
           transform="translate(176,88.5833)"><path
             d="M 0,0 H -34.39"
             style="fill:none;stroke:#2b3990;stroke-width:1.5;stroke-linecap:round;stroke-linejoin:miter;stroke-miterlimit:4;stroke-dasharray:none;stroke-opacity:1"
             id="path157"
             inkscape:connector-curvature="0" /></g><g
           id="g159"
           transform="translate(142.2212,84.0277)"><path
             d="M 0,0 V 9.111 L -4.555,4.556 Z"
             style="fill:#2b3990;fill-opacity:1;fill-rule:nonzero;stroke:none"
             id="path161"
             inkscape:connector-curvature="0" /></g><g
           id="g163"
           transform="matrix(1.4564702,0,0,1.386134,-80.338745,-67.961126)"><g
             id="g165" /><g
             id="g181"><g
               clip-path="url(#clipPath169)"
               id="g179"
               style="opacity:0.5"><g
                 transform="translate(112.505,176)"
                 id="g173"><path
                   d="M 0,0 0.02512459,-11.589377 C 27.253822,-10.845214 42.904796,-28.165234 49.075635,-44.086133 L 63.495,-43.996 V 0 Z"
                   style="fill:#2b3990;fill-opacity:1;fill-rule:nonzero;stroke:none"
                   id="path171"
                   inkscape:connector-curvature="0"
                   sodipodi:nodetypes="cccccc" /></g><g
                 transform="translate(112.505,176)"
                 id="g177"><path
                   d="m 0,0 v -17.58 c 14.464,-4.917 27.085,-14.132 36.177,-26.416 H 63.495 V 0 Z"
                   style="fill:none;stroke:#2b3990;stroke-width:0.008;stroke-linecap:round;stroke-linejoin:round;stroke-miterlimit:4;stroke-dasharray:none;stroke-opacity:1"
                   id="path175"
                   inkscape:connector-curvature="0" /></g></g></g></g><path
           style="fill:#000000;fill-opacity:1;stroke-width:0.08788898"
           d="m 33.18558,43.726386 -1.47531,-0.02412 0.627633,-0.766883 c 4.223189,-5.160169 9.541619,-10.041489 14.981406,-13.750115 10.175815,-6.937458 21.64745,-11.050619 33.881202,-12.148123 3.272591,-0.293587 8.244724,-0.3752 10.309865,-0.169226 0.51014,0.05088 0.510239,0.05095 0.483389,0.327334 l -0.02685,0.276443 -1.801725,0.446845 c -0.990948,0.245764 -2.414749,0.609457 -3.164003,0.808206 -1.271256,0.337217 -1.4856,0.367753 -3.207948,0.457015 -15.296881,0.792767 -29.966069,6.741566 -41.548523,16.84918 -2.422008,2.113605 -4.997659,4.701633 -6.980902,7.014447 l -0.602919,0.703112 z"
           id="path4047"
           inkscape:connector-curvature="0"
           transform="matrix(-1.0051754,0,0,-1.0051754,176,176)" /><rect
           style="fill:#ffffff;fill-opacity:1;stroke-width:1.13454545"
           id="rect92"
           width="22.969398"
           height="16.431955"
           x="-171.93619"
           y="-97.17823"
           transform="scale(-1)" /></g></g></g></svg>