<?xml version="1.0" encoding="UTF-8" standalone="no"?>
<svg
   xmlns:dc="http://purl.org/dc/elements/1.1/"
   xmlns:cc="http://creativecommons.org/ns#"
   xmlns:rdf="http://www.w3.org/1999/02/22-rdf-syntax-ns#"
   xmlns:svg="http://www.w3.org/2000/svg"
   xmlns="http://www.w3.org/2000/svg"
   xmlns:sodipodi="http://sodipodi.sourceforge.net/DTD/sodipodi-0.dtd"
   xmlns:inkscape="http://www.inkscape.org/namespaces/inkscape"
   id="svg256"
   viewBox="0 0 64 96"
   version="1.1"
   sodipodi:docname="sc_a-g-01.svg"
   height="96"
   width="64"
   inkscape:version="1.0.1 (3bc2e813f5, 2020-09-07)">
  <metadata
     id="metadata31">
    <rdf:RDF>
      <cc:Work
         rdf:about="">
        <dc:format>image/svg+xml</dc:format>
        <dc:type
           rdf:resource="http://purl.org/dc/dcmitype/StillImage" />
      </cc:Work>
    </rdf:RDF>
  </metadata>
  <defs
     id="defs29" />
  <sodipodi:namedview
     pagecolor="#ffffff"
     bordercolor="#666666"
     borderopacity="1"
     objecttolerance="10"
     gridtolerance="10"
     guidetolerance="10"
     inkscape:pageopacity="0"
     inkscape:pageshadow="2"
     inkscape:window-width="1920"
     inkscape:window-height="1017"
     id="namedview27"
     showgrid="false"
     inkscape:zoom="8.8541667"
     inkscape:cx="32"
     inkscape:cy="48"
     inkscape:window-x="-8"
     inkscape:window-y="-8"
     inkscape:window-maximized="1"
     inkscape:current-layer="svg256" />
  <title
     id="title2">sc_a-g</title>
  <line
     x1="0.07"
     y1="15.97"
     x2="63.93"
     y2="16.02"
     style="fill:none;stroke:#000;stroke-miterlimit:10"
     id="line4" />
  <line
     x1="0.07"
     y1="47.96"
     x2="63.93"
     y2="48.1"
     style="fill:none;stroke:#000;stroke-miterlimit:10"
     id="line6" />
  <line
     x1="0.07"
     y1="79.96"
     x2="63.93"
     y2="80.1"
     style="fill:none;stroke:#000;stroke-miterlimit:10"
     id="line8" />
  <path
     d="M22.7,24a1.26,1.26,0,0,1-1.11-.6A1.38,1.38,0,0,1,21.65,22c.22-.43.46-.84.69-1.26l1.4-2.56q2.31-4.2,4.61-8.42L29.89,7c.38-.72.77-1.43,1.16-2.14A1.29,1.29,0,0,1,32.16,4a1.27,1.27,0,0,1,1.1.82l3.87,7.37s4.49,8.52,5.23,9.94a1.35,1.35,0,0,1,0,1.33,1.24,1.24,0,0,1-1.1.54H22.7Z"
     style="fill:#fcef00;fill-rule:evenodd"
     id="path10" />
  <path
     d="M32,23.54H22.71c-.72,0-1-.63-.67-1.3s.82-1.48,1.22-2.22Q26,15,28.74,10c.91-1.66,1.8-3.33,2.7-5,.42-.76,1-.76,1.42,0l5.69,10.83q1.71,3.24,3.41,6.48c.35.67.06,1.21-.65,1.21ZM40.19,22l-8-15.28L23.83,22Z"
     style="fill-rule:evenodd"
     id="path12" />
  <polygon
     points="31.92 19.16 32.49 15.38 29.51 17.2 31.3 9.62 33.18 9.62 31.25 14.83 34.31 12.91 32.8 19.3 33.84 19.07 31.92 21.8 31.09 18.43 31.92 19.16"
     style="fill-rule:evenodd"
     id="polygon14" />
  <path
     d="M32,23.54H22.71c-.72,0-1-.63-.67-1.3s.82-1.48,1.22-2.22Q26,15,28.74,10c.91-1.66,1.8-3.33,2.7-5,.42-.76,1-.76,1.42,0l5.69,10.83q1.71,3.24,3.41,6.48c.35.67.06,1.21-.65,1.21ZM40.19,22l-8-15.28L23.83,22Z"
     style="fill-rule:evenodd"
     id="path16" />
  <line
     x1="30.19"
     y1="29"
     x2="34.74"
     y2="29"
     style="fill:none;stroke:#000;stroke-linecap:round;stroke-miterlimit:10"
     id="line18" />
  <line
     x1="29.46"
     y1="27.02"
     x2="35.49"
     y2="27.01"
     style="fill:none;stroke:#000;stroke-linecap:round;stroke-miterlimit:10"
     id="line20" />
  <line
     x1="32.47"
     y1="27.01"
     x2="32.47"
     y2="23.99"
     style="fill:none;stroke:#000;stroke-miterlimit:10"
     id="line22" />
  <line
     x1="31.07"
     y1="30.99"
     x2="33.89"
     y2="30.99"
     style="fill:none;stroke:#000;stroke-linecap:round;stroke-miterlimit:10"
     id="line24" />
</svg>
